<?xml version="1.0" encoding="utf-8"?>
<!-- Generator: Adobe Illustrator 26.3.1, SVG Export Plug-In . SVG Version: 6.00 Build 0)  -->
<svg version="1.1" id="Layer_1" xmlns="http://www.w3.org/2000/svg" xmlns:xlink="http://www.w3.org/1999/xlink" x="0px" y="0px"
	 viewBox="0 0 693 640" style="enable-background:new 0 0 693 640;" xml:space="preserve">
<style type="text/css">
	.st0{fill:#FFFFFF;}
</style>
<g>
	<path class="st0" d="M680.2,292.5C638.4,142.5,505.4,39.8,349.1,38c-157-1.8-298.5,106.9-337,258.4c-4.5,17.7-2.2,30.3,13,42.9
		C125.3,422.6,225,506.4,324,591.1c17.9,15.4,29.5,13.9,46.7-0.8c97.5-83.4,195.6-166.2,294.5-248.1
		C682.9,327.6,686.2,313.8,680.2,292.5z M636.3,273.8c-50.2-20.1-98.2-17.3-146.7,10.5c-11.7-71.9-26-141-67.2-201.5
		C508.1,91.8,615.4,187.1,636.3,273.8z M399.8,108.6c33.2,50,46,107,55,169c-36.2-18.8-70.9-30.3-109.2-30
		c-37.4,0.3-71.2,11.5-106.5,30c8.6-61.9,21.6-118.7,54.7-168.8C327.6,57.6,365.8,57.5,399.8,108.6z M271.1,82.5
		c-20,30.7-34.7,62.8-44.7,96.9c-9.9,33.3-16.8,67.3-21.4,104.2c-47.5-25-95.6-31.5-149.1-8.8C83.7,182.2,182.1,95,271.1,82.5z
		 M291.5,520.5C211.5,453.1,131.6,385.7,51.2,318c61.3-45.4,136.5-27.1,167.7,38.8c25.4,53.7,50.8,107.3,76.3,161
		C293.9,518.7,292.7,519.6,291.5,520.5z M346.8,550.3c-36.4-76.5-70.2-148.2-104.5-219.6c-5.5-11.4,1.8-15.2,8.6-20.5
		c52.1-40.1,140-40,192.1,0.2c7,5.4,13.7,9.2,8.3,20.5C416.9,402.3,383.1,474,346.8,550.3z M402.2,520.4c-1.2-0.9-2.5-1.8-3.7-2.6
		c29.5-62.4,57.6-125.5,89.2-186.8c16.7-32.4,77.4-46.4,121-32c10.9,3.6,21,9.3,36.8,16.3C562.1,385.7,482.1,453.1,402.2,520.4z"/>
</g>
</svg>
