<?xml version="1.0" encoding="utf-8"?>
<!-- Generator: Adobe Illustrator 26.3.1, SVG Export Plug-In . SVG Version: 6.00 Build 0)  -->
<svg version="1.1" id="Layer_1" xmlns="http://www.w3.org/2000/svg" xmlns:xlink="http://www.w3.org/1999/xlink" x="0px" y="0px"
	 viewBox="0 0 860 688" style="enable-background:new 0 0 860 688;" xml:space="preserve">
<style type="text/css">
	.st0{fill:#1B313E;}
	.st1{fill:#FFFFFF;}
	.st2{font-family:'Poppins-BoldItalic';}
	.st3{font-size:8.6523px;}
</style>
<g>
	<path class="st0" d="M580.1,276.4C564,292.6,554,314.8,554,339.3c0,48.9,40,88.9,88.9,88.9h89v85.6c0,31.8-25.7,57.5-57.5,57.5
		H240.3c59.6-37,83.7-110.2,59.8-170c-27.3-68.2-111.2-104.5-186.1-73.7V160.2c0-31.7,25.7-57.4,57.4-57.4h500.1
		c33.4,0,60.4,27.1,60.4,60.4v87.1h-89C618.5,250.3,596.3,260.3,580.1,276.4z"/>
	<path class="st0" d="M748.5,269.1H647.6c-18.7,0-35.6,7.6-47.9,19.9c-12.3,12.3-19.9,29.3-19.9,47.9c0,37.3,30.5,67.9,67.9,67.9
		H753c7.7,0,14-6.3,14-14V287.5C767,277.4,758.7,269.1,748.5,269.1z M701.5,372c-19.4,0-35.1-15.7-35.1-35.1
		c0-19.4,15.7-35.1,35.1-35.1s35.1,15.7,35.1,35.1C736.6,356.3,720.8,372,701.5,372z"/>
	<g>
		<g>
			<path class="st0" d="M283.9,461.6h0.1c-3,35-22.9,65.2-51.6,82.2c-13.3-5-32.7-8.2-54.4-8.2c-21.4,0-40.7,3.1-54,8
				c-31-18.5-51.9-52.4-52-91C72,394,119.5,346.3,178.3,346.3c55.7,0,101.4,42.9,105.8,97.5c-9,0-17.7-2.4-25.2-6.8
				c-7.5-4.4-13.9-10.8-18.2-18.7c-14.7-26.8-46.1-43.1-80.2-34.9c-25.3,6.1-45.1,26.1-51.2,51.4c-11.2,46.9,24,88.7,69,88.7
				c26.6,0,49.7-14.6,62-36.2C249.2,471.6,265.7,461.6,283.9,461.6z"/>
			<path class="st0" d="M187.6,461.6h25.5c-4,15.2-17.9,26.4-34.4,26.4c-19.6,0-35.6-15.9-35.6-35.6c0-19.6,15.9-35.6,35.6-35.6
				c16.7,0,30.6,11.5,34.5,26.9h-25.6c-2.5,0-4.7,1-6.3,2.6c-1.6,1.6-2.6,3.8-2.6,6.3C178.7,457.6,182.7,461.6,187.6,461.6z"/>
			<circle class="st0" cx="192.5" cy="452.5" r="4.4"/>
			<path class="st0" d="M232.5,543.8c-15.6,9.3-33.9,14.7-53.4,14.8c-20.1,0.2-38.9-5.3-55-15c13.3-4.9,32.6-8,54-8
				C199.7,535.6,219.1,538.8,232.5,543.8z"/>
			<g>
				<text transform="matrix(1 1.540006e-03 -1.540006e-03 1 152.7912 549.7928)" class="st1 st2 st3">zeros wallet</text>
			</g>
		</g>
	</g>
</g>
</svg>
