<?xml version="1.0" encoding="utf-8"?>
<!-- Generator: Adobe Illustrator 26.3.1, SVG Export Plug-In . SVG Version: 6.00 Build 0)  -->
<svg version="1.1" id="Layer_1" xmlns="http://www.w3.org/2000/svg" xmlns:xlink="http://www.w3.org/1999/xlink" x="0px" y="0px"
	 viewBox="0 0 1047.6 1080" style="enable-background:new 0 0 1047.6 1080;" xml:space="preserve">
<path d="M783,706c-20.7,2.2-38.8,1.4-56.7-1.8c-46.6-8.4-92.9-18-139.6-26c-50.3-8.6-100.7-9.7-150.6,4c-4.3,1.2-6.6,0.3-9-3.8
	c-39.7-69.1-79.5-138-119.4-206.9c-1.9-3.2-2.4-5.2,0.7-8.2c43.7-43.3,69.1-97.3,88.9-154.5c13.4-38.5,24.7-77.8,40.5-115.5
	c6-14.3,13-28.2,23.6-42.4c1.7,18.7,4.8,35.4,9.4,51.7c16.4,58.8,41.3,114.3,68.8,168.5C584.7,460.3,637,545,699.1,623.4
	C723.1,653.6,748.7,682.4,783,706z"/>
<path d="M131.4,635.4c1.3-36.5,18.8-71.3,55.7-94.5c30.1-18.9,61.5-35.7,92.1-53.7c4-2.4,5.3-1.1,7.2,2.2
	c38.1,66.2,76.3,132.4,114.6,198.4c2.8,4.7,1.2,6.3-2.7,8.6c-29.3,16.8-58.3,34.2-87.8,50.6C229.8,791.6,131.4,734,131.4,635.4z"/>
<path d="M399.1,727.6c7.2,32,18.3,61.3,33.8,88.8c11.2,19.8,24.4,38.1,39.4,55.2c16.8,19.2,20.6,41,9.4,63.8
	c-11.1,22.6-30.6,33.5-55.8,33.1c-13.7-0.2-25.8-5.7-35.8-15.1c-48.2-45-79.8-99.6-94.3-164c-0.7-3.2-2.1-5.9,2.6-7.6
	c32.2-11.3,59.4-31.8,89.2-47.7C391.1,732.2,394.6,730.1,399.1,727.6z"/>
<path d="M682.6,420.8c-7.2-0.3-11.2-3.2-13.6-8.5c-2.3-5.1-1.2-9.8,2.4-13.9c1.5-1.7,3.5-3.1,5.5-4.3
	c35.3-20.5,70.6-40.9,105.9-61.3c9.1-5.3,17.2-3.7,21.4,3.7c4.3,7.5,1.5,14.8-7.9,20.3c-34.8,20.2-69.6,40.2-104.4,60.3
	C688.7,419.1,685.4,421.1,682.6,420.8z"/>
<path d="M780.6,507.1c20,0,40,0,60,0c10.6,0,16.4,4.1,17,12.4c0.7,8.8-4.7,14.4-15.6,14.9c-41.1,2-82.3,3.8-123.4,5.6
	c-9.4,0.4-15.4-4.8-15.7-12.9c-0.4-8.6,5.3-14.1,15.1-14.5c20.9-0.9,41.7-1.8,62.6-2.7C780.6,509,780.6,508,780.6,507.1z"/>
<path d="M595.8,331.4c-4.5-0.3-8.7-2.1-11.3-6.5c-2.9-5-2.7-10.1,0.4-15c5.6-8.9,11.3-17.8,17-26.7c16.7-26.2,33.4-52.5,50.2-78.6
	c5.7-8.9,13.7-10.9,20.8-5.8c6.7,4.9,7.5,12.2,1.8,21.1c-19.7,30.9-39.4,61.8-59.2,92.7c-2.7,4.2-5.3,8.4-8.1,12.6
	C604.7,329.1,600.9,331,595.8,331.4z"/>
</svg>
