<?xml version="1.0" encoding="utf-8"?>
<!-- Generator: Adobe Illustrator 26.3.1, SVG Export Plug-In . SVG Version: 6.00 Build 0)  -->
<svg version="1.1" id="Layer_1" xmlns="http://www.w3.org/2000/svg" xmlns:xlink="http://www.w3.org/1999/xlink" x="0px" y="0px"
	 viewBox="0 0 448 512" style="enable-background:new 0 0 448 512;" xml:space="preserve">
<style type="text/css">
	.st0{fill:#FFFFFF;}
</style>
<g>
	
		<image style="overflow:visible;opacity:0.5;" width="366" height="366" xlink:href="62313E64.png"  transform="matrix(1 0 0 1 48 80)">
	</image>
	<g>
		<g>
			<path class="st0" d="M391.6,120.3c0-17.7-14.4-32-32-32H133.3c-17.7,0-32,14.4-32,32s14.4,32,32,32l149.1-0.1L65.5,369.1
				c-12.5,12.5-12.5,32.7,0,45.3c12.5,12.5,32.7,12.5,45.3,0l216.9-216.8l0.1,149c0,17.7,14.4,32,32,32c17.6,0,32-14.4,32-32V120.3
				H391.6z"/>
		</g>
	</g>
</g>
</svg>
