<?xml version="1.0" encoding="utf-8"?>
<!-- Generator: Adobe Illustrator 26.3.1, SVG Export Plug-In . SVG Version: 6.00 Build 0)  -->
<svg version="1.1" id="Layer_1" xmlns="http://www.w3.org/2000/svg" xmlns:xlink="http://www.w3.org/1999/xlink" x="0px" y="0px"
	 viewBox="0 0 610.2 518.4" style="enable-background:new 0 0 610.2 518.4;" xml:space="preserve">
<style type="text/css">
	.st0{fill:#022F64;}
</style>
<g>
	<path class="st0" d="M269.7,238.4c0,8.5-7,15.5-15.5,15.4c-8.5-0.1-15.4-7.2-15.2-15.7c0.1-8.3,7-15.1,15.3-15.2
		C262.8,222.9,269.7,229.9,269.7,238.4z"/>
	<path class="st0" d="M320.6,238.4c-0.1,8.4-7.3,15.5-15.6,15.4c-8.4-0.1-15.5-7.4-15.3-15.7c0.2-8.4,7.5-15.4,15.9-15.1
		C313.8,223.2,320.6,230.2,320.6,238.4z"/>
	<path class="st0" d="M371.2,238.6c-0.1,8.4-7.4,15.5-15.7,15.2c-8.5-0.2-15.2-7.3-15-15.9c0.2-8.3,7.1-15.1,15.4-15
		C364.4,223,371.3,230.1,371.2,238.6z"/>
	<path class="st0" d="M523.3,272.5c-0.2-18-8.3-31.6-24.1-40.3c-2.1-1.1-2.8-2.4-2.9-4.7c-0.5-11-2-21.9-4.4-32.7
		C466.2,83.1,348.5,18.6,240.9,57.1c-72.6,26-122.8,93.1-127,170c-0.1,2.7-1,4-3.3,5.3c-13.1,7.3-21,18.3-23.1,33.3
		c-1.5,10.5-0.2,21.1-0.6,29c0,11.4-0.2,20.1,0,28.8c0.6,20.2,14.3,37.4,33.6,42.5c25.4,6.7,41.3-11.1,40.6-30.9
		c-0.8-25.8-0.2-51.6-0.2-77.4c0-15.9-8.1-26.1-23.5-30.1c-2-0.5-2.9-1-2.6-3.4c0.9-8.6,2.1-17.2,4.1-25.7
		C159,110.2,248.9,52,337.6,69.9c76.2,15.4,131.2,77.1,137.7,154.4c0.2,2.4-0.6,2.9-2.6,3.4c-15.4,3.9-23.4,14.2-23.4,30.1
		c0,26.2,0,52.5,0,78.7c0,16,8.2,26.5,23.8,30.3c2.1,0.5,2.8,1.1,2.8,3.3c-0.2,6.7,0,13.3-0.2,20c-0.6,19.9-16.1,37.2-35.9,39.8
		c-12,1.6-24,0.3-36,0.7c-2.3,0.1-2.3-1.7-3-3c-5.4-10.8-14-17.4-26.2-18c-12.1-0.5-24.4-0.6-36.5,0c-17.5,0.9-30.4,15.2-29.8,32.1
		c0.6,17.5,14,30.5,31.8,30.7c10.6,0.1,21.2,0.1,31.7,0c13.3-0.2,22.9-6.4,28.8-18.2c1.2-2.4,2.5-2.9,4.9-2.9
		c9.4,0.1,18.8,0.2,28.3,0c31.2-0.5,56.9-22.6,62-53.4c1.7-10.4,0.6-20.8,0.8-31.3c0-2.3,0.7-3.6,2.8-4.7
		c15.9-8.9,23.9-22.7,24-40.9C523.5,304.9,523.6,288.7,523.3,272.5z M140,256.9c0.1,13.5,0,26.9,0,40.4c0,13,0,26.1,0,39.1
		c0,7.6-3.2,10.5-10.8,9.9c-11.4-0.9-21.2-10.9-21.4-22.9c-0.3-17.5-0.3-35,0-52.6c0.2-12.5,10.7-22.7,22.7-23
		C136.7,247.7,140,250.7,140,256.9z M371.9,451.5c-0.3,0-0.6,0-0.9,0h-15.2c-5.2,0-10.4,0.1-15.6,0c-6.6-0.1-11.2-4.5-11.2-10.7
		c0-5.9,4.4-10.4,10.9-10.5c10.7-0.2,21.4-0.2,32.1,0c6.4,0.1,10.7,4.6,10.7,10.7C382.7,447,378.3,451.3,371.9,451.5z M502.4,323.2
		c-0.2,12.2-10,22.3-21.7,23.1c-7.3,0.5-10.5-2.4-10.6-9.7c-0.1-13.2,0-26.4,0-39.5c0-13.2,0-26.3,0-39.5c0-7.3,3.3-10.2,10.6-9.7
		c11.6,0.8,21.5,11,21.7,23.2C502.7,288.4,502.7,305.8,502.4,323.2z"/>
	<path class="st0" d="M269.7,238.4c0,8.5-7,15.5-15.5,15.4c-8.5-0.1-15.4-7.2-15.2-15.7c0.1-8.3,7-15.1,15.3-15.2
		C262.8,222.9,269.7,229.9,269.7,238.4z"/>
	<path class="st0" d="M320.6,238.4c-0.1,8.4-7.3,15.5-15.6,15.4c-8.4-0.1-15.5-7.4-15.3-15.7c0.2-8.4,7.5-15.4,15.9-15.1
		C313.8,223.2,320.6,230.2,320.6,238.4z"/>
	<path class="st0" d="M371.2,238.6c-0.1,8.4-7.4,15.5-15.7,15.2c-8.5-0.2-15.2-7.3-15-15.9c0.2-8.3,7.1-15.1,15.4-15
		C364.4,223,371.3,230.1,371.2,238.6z"/>
	<path class="st0" d="M416.9,193.9c0-3.7-0.2-7.6-1-11.2c-4.6-21.4-22-35.1-44.5-35.3c-22.2-0.1-44.4,0-66.5,0
		c-21.9,0-43.8-0.1-65.7,0c-26.6,0.1-45.6,18.6-45.9,45.2c-0.3,29.4-0.3,58.9,0,88.3c0.2,22.3,14.3,39.6,35.1,44.3
		c3.3,0.7,7.9-0.7,9.5,2.2c1.5,2.7,0.3,6.8,0.4,10.3c0.1,5.1-0.5,10.2,0.4,15.2c1.5,8.6,6.4,14.5,14.7,17.2c7.9,2.6,15.3,1,21.3-4.8
		c12.4-12,24.6-24.2,36.7-36.5c1.9-1.9,3.8-2.7,6.4-2.6c17.4,0.1,34.8,0,52.2,0.1c4.1,0,8.1-0.2,12.1-1.1
		c21.3-4.9,34.7-22.4,34.8-45.3C417,251,417,222.4,416.9,193.9z M396.1,279.5c0,16-9.7,25.6-25.8,25.6c-19.3,0-38.5,0.1-57.8-0.1
		c-4.8,0-8.5,1.4-12,4.9c-12.5,12.7-25.2,25.2-37.9,37.7c-0.8,0.8-1.5,2.6-3,1.8c-1.1-0.6-0.5-2.1-0.5-3.2c0-9.7,0-19.4,0-29.1
		c0-8.1-3.8-11.8-12-12c-4.6-0.1-9.3,0.4-13.9-0.5c-10.1-1.9-17.6-9.9-18.8-20c-0.2-1.3-0.3-2.6-0.3-3.9c0-29.4-0.1-58.8,0-88.3
		c0.1-14.5,9.9-24.1,24.5-24.2c22.2-0.1,44.3,0,66.5,0c21.7,0,43.5,0,65.2,0c16.1,0,25.7,9.5,25.7,25.6
		C396.1,222.4,396.1,251,396.1,279.5z"/>
	<path class="st0" d="M269.7,238.4c0,8.5-7,15.5-15.5,15.4c-8.5-0.1-15.4-7.2-15.2-15.7c0.1-8.3,7-15.1,15.3-15.2
		C262.8,222.9,269.7,229.9,269.7,238.4z"/>
	<path class="st0" d="M320.6,238.4c-0.1,8.4-7.3,15.5-15.6,15.4c-8.4-0.1-15.5-7.4-15.3-15.7c0.2-8.4,7.5-15.4,15.9-15.1
		C313.8,223.2,320.6,230.2,320.6,238.4z"/>
	<path class="st0" d="M371.2,238.6c-0.1,8.4-7.4,15.5-15.7,15.2c-8.5-0.2-15.2-7.3-15-15.9c0.2-8.3,7.1-15.1,15.4-15
		C364.4,223,371.3,230.1,371.2,238.6z"/>
	<path class="st0" d="M269.7,238.4c0,8.5-7,15.5-15.5,15.4c-8.5-0.1-15.4-7.2-15.2-15.7c0.1-8.3,7-15.1,15.3-15.2
		C262.8,222.9,269.7,229.9,269.7,238.4z"/>
	<path class="st0" d="M320.6,238.4c-0.1,8.4-7.3,15.5-15.6,15.4c-8.4-0.1-15.5-7.4-15.3-15.7c0.2-8.4,7.5-15.4,15.9-15.1
		C313.8,223.2,320.6,230.2,320.6,238.4z"/>
	<path class="st0" d="M371.2,238.6c-0.1,8.4-7.4,15.5-15.7,15.2c-8.5-0.2-15.2-7.3-15-15.9c0.2-8.3,7.1-15.1,15.4-15
		C364.4,223,371.3,230.1,371.2,238.6z"/>
</g>
</svg>
