<?xml version="1.0" encoding="utf-8"?>
<!-- Generator: Adobe Illustrator 26.3.1, SVG Export Plug-In . SVG Version: 6.00 Build 0)  -->
<svg version="1.1" id="Layer_1" xmlns="http://www.w3.org/2000/svg" xmlns:xlink="http://www.w3.org/1999/xlink" x="0px" y="0px"
	 viewBox="0 0 429 436" style="enable-background:new 0 0 429 436;" xml:space="preserve">
<style type="text/css">
	.st0{fill:#FEFEFE;}
	.st1{fill:none;stroke:#000000;stroke-width:7;stroke-miterlimit:10;}
</style>
<g>
	<path d="M252.9,288.9c22.3,0,44.6-0.1,66.9,0c14.8,0.1,24.4,13.5,19.5,26.8c-3,8.2-10.5,13.2-20.4,13.2c-16.9,0.1-33.8,0-50.7,0
		c-27,0-54,0-81,0c-11.3,0-19.2-6.3-21.2-16.5c-2.2-11.5,6.1-22.8,17.8-23.4c9.5-0.5,19-0.2,28.6-0.2
		C225.9,288.9,239.4,288.9,252.9,288.9z"/>
	<g>
		<path d="M252.8,244.2c-22,0-44.1,0.1-66.1,0c-11.2,0-18.9-6.4-20.8-16.8c-1.8-10.2,5.2-20.6,15.4-22.6c2.1-0.4,4.2-0.6,6.3-0.6
			c43.6,0,87.3,0,130.9,0c13.3,0,22.2,8.5,21.9,20.7c-0.2,10-8.1,18.7-18.1,19.1c-9.6,0.4-19.3,0.2-29,0.2
			C279.8,244.3,266.3,244.2,252.8,244.2z"/>
		<path d="M253.1,159.6c-22.5,0-44.9,0.1-67.4,0c-13.4-0.1-22.6-12.1-19.4-25c2.2-9.1,10.4-15,20.7-15c36.4,0,72.8,0,109.1,0
			c7.8,0,15.6,0,23.4,0c12,0.1,20.8,8.6,20.8,20.1c0,11.5-8.7,19.9-20.9,20C297.4,159.6,275.3,159.6,253.1,159.6
			C253.1,159.6,253.1,159.6,253.1,159.6z"/>
		<path d="M114.6,139.3c10.8-13,21.4-25.7,32-38.5c0.6-0.8,1.2-1.6,1.9-2.3c2.7-2.9,6.3-3.4,9.1-1.2c2.9,2.3,3.3,6.1,0.6,9.4
			c-5.5,6.8-11.2,13.5-16.9,20.3c-7.2,8.6-14.3,17.3-21.5,25.9c-4.5,5.3-8.8,5-12.5-0.8c-3.5-5.7-7-11.3-10.4-17
			c-2.6-4.2-2-8,1.5-10c3.3-1.9,6.8-0.8,9.3,3.2C110,131.8,112.2,135.4,114.6,139.3z"/>
		<path d="M114.6,223.7c11-13.2,21.6-26,32.2-38.8c0.6-0.8,1.2-1.6,1.9-2.3c2.6-2.7,6.1-3.1,8.8-1c2.9,2.2,3.5,5.9,1,9
			c-4.3,5.5-8.8,10.7-13.3,16.1c-8.4,10.2-16.8,20.3-25.3,30.4c-4.6,5.5-8.9,5.1-12.7-1c-3.5-5.7-7-11.3-10.5-17
			c-2.4-4-1.7-7.7,1.6-9.7c3.3-2,6.8-0.9,9.3,3C109.9,216.2,112.1,219.8,114.6,223.7z"/>
		<path d="M114.8,308.6c10.5-12.7,20.8-25.1,31.2-37.5c1.1-1.3,2.1-2.7,3.4-3.8c2.7-2.4,5.7-2.6,8.4-0.2c2.6,2.2,3,5.1,1.3,8.1
			c-0.5,0.9-1.2,1.6-1.8,2.4c-12.2,14.6-24.3,29.3-36.5,43.9c-5.8,7-9.5,6.7-14.3-1.2c-3.2-5.2-6.4-10.4-9.6-15.6
			c-2.6-4.2-2-8,1.4-10c3.4-2.1,6.8-0.9,9.5,3.4c2.1,3.3,4.2,6.7,6.3,10.1C114.3,308.2,114.4,308.2,114.8,308.6z"/>
		<path class="st0" d="M252.9,231.4c-21.3,0-42.6,0-63.9,0c-1.4,0-2.9,0-4.3-0.2c-3.6-0.5-6.4-3.4-6.3-6.9c0.1-3.6,1.9-6.2,5.6-7.1
			c1.2-0.3,2.5-0.4,3.8-0.4c43.5,0,86.9,0,130.4,0c5.8,0,9,2.2,9.4,6.5c0.4,4.5-2.5,7.8-7.4,7.9c-6.8,0.2-13.6,0.1-20.5,0.1
			C284.2,231.4,268.5,231.4,252.9,231.4z"/>
		<path class="st0" d="M253.1,301.7c21.9,0,43.8,0,65.6,0c5.3,0,8.3,2.1,8.8,6c0.6,4-1.7,7.3-5.7,8.1c-1.5,0.3-3.1,0.3-4.7,0.3
			c-42.8,0-85.5,0-128.3,0c-0.9,0-1.7,0-2.6,0c-4.7-0.3-7.9-3.1-7.9-7.2c-0.1-4.2,3.2-7.2,8.2-7.3
			C208.8,301.6,230.9,301.7,253.1,301.7z"/>
	</g>
	<path class="st0" d="M253.3,146.8c-22.3,0-44.6,0-66.9,0c-4.7,0-7.9-3-8-7.1c-0.1-4.1,3.1-7.2,7.7-7.4c1-0.1,2,0,3,0
		c11.7,0,23.3,0,35,0c31.1,0,62.2,0,93.3,0c1.3,0,2.6-0.1,3.8,0.1c4,0.6,6.6,3.8,6.4,7.7c-0.2,3.8-2.9,6.5-7,6.6
		c-5.5,0.2-11.1,0.1-16.6,0.1C287.1,146.8,270.2,146.8,253.3,146.8z"/>
	<path class="st1" d="M286.1,401H142.9c-51.7,0-93.7-41.9-93.7-93.7V128.7c0-51.7,41.9-93.7,93.7-93.7h143.3
		c51.7,0,93.7,41.9,93.7,93.7v178.6C379.8,359.1,337.9,401,286.1,401z"/>
</g>
</svg>
