<?xml version="1.0" encoding="utf-8"?>
<!-- Generator: Adobe Illustrator 26.3.1, SVG Export Plug-In . SVG Version: 6.00 Build 0)  -->
<svg version="1.1" id="Layer_1" xmlns="http://www.w3.org/2000/svg" xmlns:xlink="http://www.w3.org/1999/xlink" x="0px" y="0px"
	 viewBox="0 0 421 437" style="enable-background:new 0 0 421 437;" xml:space="preserve">
<style type="text/css">
	.st0{fill:#4000D0;}
	.st1{fill:#FFFFFF;}
</style>
<path class="st0" d="M252.5,151.5v1.8c0,3.5-2.8,6.3-6.3,6.3h-80.7c-3.5,0-6.3-2.8-6.3-6.3v-1.8c0-3.5,2.8-6.3,6.3-6.3h80.7
	C249.7,145.2,252.5,148,252.5,151.5z"/>
<g>
	<path class="st0" d="M76.8,356.2V209.7L59.9,337.6c-1.8,13.8,6.7,26.5,19.5,30.5C77.7,364.5,76.8,360.5,76.8,356.2z M127.5,40.2
		c-11.2-1.5-21.7,3.9-27.4,12.8c1.6-0.3,3.2-0.4,4.8-0.4h116.4L127.5,40.2z M315.8,384.4H199.5l93.8,12.4
		c11.2,1.5,21.7-3.9,27.4-12.8C319.1,384.2,317.5,384.4,315.8,384.4z M339,68.1l-48-6.3v27.5c0,11.9,9.7,21.6,21.6,21.6H344v116.3
		L361.1,97C363,82.9,353.1,70,339,68.1z"/>
	<path class="st1" d="M312.6,110.9c-11.9,0-21.6-9.7-21.6-21.6V52.6H104.9c-1.6,0-3.2,0.1-4.8,0.4c-13.3,2.3-23.3,13.8-23.3,27.7
		v275.5c0,4.3,1,8.3,2.6,11.9c4.5,9.6,14.2,16.3,25.5,16.3h210.9c1.6,0,3.2-0.1,4.8-0.4c13.3-2.3,23.3-13.8,23.3-27.7V110.9H312.6z
		 M142.2,149.5c0-3.5,2.8-6.3,6.3-6.3h80.7c3.5,0,6.3,2.8,6.3,6.3v1.8c0,3.5-2.8,6.3-6.3,6.3h-80.7c-3.5,0-6.3-2.8-6.3-6.3V149.5z
		 M233.6,213.1c-1.1,1.1-2.7,1.8-4.4,1.8h-80.7c-3.5,0-6.3-2.8-6.3-6.3c0-1.7,0.7-3.3,1.8-4.4c1.1-1.1,2.7-1.8,4.4-1.8h80.7
		c3.5,0,6.3,2.8,6.3,6.3C235.5,210.4,234.8,211.9,233.6,213.1z M282.1,181.7c0,3.5-2.8,6.3-6.3,6.3H148.5c-3.5,0-6.3-2.8-6.3-6.3
		v-3.6c0-3.5,2.8-6.3,6.3-6.3h127.3c3.5,0,6.3,2.8,6.3,6.3V181.7z"/>
</g>
<path class="st0" d="M252.5,210.6c0,1.7-0.7,3.3-1.8,4.4c-1.1,1.1-2.7,1.8-4.4,1.8h-80.7c-3.5,0-6.3-2.8-6.3-6.3
	c0-1.7,0.7-3.3,1.8-4.4c1.1-1.1,2.7-1.8,4.4-1.8h80.7C249.7,204.4,252.5,207.2,252.5,210.6z"/>
<path class="st0" d="M299.2,180.2v3.6c0,3.5-2.8,6.3-6.3,6.3H165.6c-3.5,0-6.3-2.8-6.3-6.3v-3.6c0-3.5,2.8-6.3,6.3-6.3h127.3
	C296.4,173.9,299.2,176.7,299.2,180.2z"/>
<path class="st0" d="M280,164h-6.4c-1.5,0-2.7-1.2-2.7-2.7v-61c0-1.5,1.2-2.7,2.7-2.7h6.4c1.5,0,2.7,1.2,2.7,2.7v61
	C282.6,162.8,281.4,164,280,164z"/>
<path class="st0" d="M243.6,134.1v-6.4c0-1.5,1.2-2.7,2.7-2.7h61c1.5,0,2.7,1.2,2.7,2.7v6.4c0,1.5-1.2,2.7-2.7,2.7h-61
	C244.8,136.7,243.6,135.5,243.6,134.1z"/>
</svg>
