<?xml version="1.0" encoding="utf-8"?>
<!-- Generator: Adobe Illustrator 26.3.1, SVG Export Plug-In . SVG Version: 6.00 Build 0)  -->
<svg version="1.1" id="Layer_1" xmlns="http://www.w3.org/2000/svg" xmlns:xlink="http://www.w3.org/1999/xlink" x="0px" y="0px"
	 viewBox="0 0 489.6 486" style="enable-background:new 0 0 489.6 486;" xml:space="preserve">
<style type="text/css">
	.st0{fill:#022F64;}
</style>
<g>
	<path class="st0" d="M448.4,198.4c-18.8-88.8-96.2-156.6-187.2-163.3c-40.1-3-78.6,4.2-113.9,23.7c-67,37-104,94.2-110.4,170.4
		c-3.3,39.3,5.4,76.7,24.1,111.5c1.7,3.2,2,6,0.9,9.4c-4.8,15.3-9.4,30.6-14,45.9c-1.1,3.6-2,7.3-2.1,11.1
		c-0.6,22.8,21,39.6,43.2,33.4c15.7-4.4,31.3-9.1,46.8-14c4.9-1.6,8.7-1.1,13.2,1.3c37.9,20,78.3,27.2,120.8,22.1
		c43.9-5.2,82.6-22.7,115.2-52.7c44.9-41.4,67.2-93.2,68.4-154.2C453.3,228,451.5,213.2,448.4,198.4z M282.2,418.2
		c-42.1,9-82.5,3.4-120.6-16.6c-11-5.8-21.7-7.1-33.6-3.1c-14.8,4.9-29.7,9.1-44.6,13.6c-2.3,0.7-4.7,1.5-6.8-0.5
		c-2.3-2.2-1.5-4.7-0.7-7.2c4.7-15.5,9.1-31,14-46.4c3.4-10.7,2.2-20.6-3-30.6c-55.6-105.5,2-232,118-259.3
		c13.2-3.1,26.5-4.6,38.1-4.4c89,0,163.7,63,178.2,148.3C437.4,307.5,376.6,398,282.2,418.2z"/>
	<path class="st0" d="M271.9,249.9c-10.2,5.2-15.1,11.8-14.1,23.1c0.3,3.3,0.2,6.7-0.1,10c-0.6,7.5-6.6,13.2-14,13.5
		c-7.2,0.2-13.8-5.3-14.6-12.8c-0.4-3.4-0.1-6.9-0.1-10.4c-1.1-17.7,4.5-32.4,19.1-43.1c3.1-2.2,6.6-3.7,9.9-5.4
		c11.7-6.2,22.6-17.1,20.4-32.3c-2-14-9.2-24.4-22.6-29.3c-11.9-4.4-22.2-0.1-31,8.4c-7.3,7-11.9,15.5-13.9,25.4
		c-2,10-10,15.2-18.8,12.6c-7.6-2.3-11.5-9.7-9.7-18.5c3.7-17.5,12.3-32,25.9-43.6c20-17,45.9-19.8,67.4-7.2
		c16.9,9.9,27.1,24.8,30.9,43.9C312.4,213.8,296.9,237.1,271.9,249.9z"/>
	<path class="st0" d="M264,330.5c-0.1,10.7-8.6,19.1-19.4,19c-10.8-0.1-19.2-8.5-19.2-19.3c0-10.9,8.6-19.4,19.6-19.3
		C255.8,311.2,264.1,319.7,264,330.5z"/>
</g>
</svg>
