<?xml version="1.0" encoding="utf-8"?>
<!-- Generator: Adobe Illustrator 26.3.1, SVG Export Plug-In . SVG Version: 6.00 Build 0)  -->
<svg version="1.1" id="Layer_1" xmlns="http://www.w3.org/2000/svg" xmlns:xlink="http://www.w3.org/1999/xlink" x="0px" y="0px"
	 viewBox="0 0 726 542" style="enable-background:new 0 0 726 542;" xml:space="preserve">
<style type="text/css">
	.st0{fill:#022F64;}
</style>
<g>
	<path class="st0" d="M504.5,471.3c-67.7,25.8-137.1,33.3-208.6,20.7c-25.5-4.5-50.2-11.5-74.3-20.9c-2.6-1-5.8-1.2-5.6-5.7
		c0.9-26.9-1.6-53.9,1.6-80.8c7.6-63.9,61.4-117.7,125.4-125.4c79.7-9.6,148.5,40.2,164.4,118.7c3.5,17.1,2.3,34.3,2.5,51.5
		c0,11.1-0.2,22.2,0.1,33.4C510,467.1,509,469.5,504.5,471.3z"/>
	<path class="st0" d="M670,136.6c0.3,51.6-41.3,94.1-92.4,94.4c-51.9,0.3-94.1-41.2-94.5-93c-0.4-50.9,41.2-93.4,92-93.9
		C627.1,43.5,669.6,85,670,136.6z"/>
	<path class="st0" d="M242.7,136.5c0.2,51.9-41.3,94.1-93.2,94.4c-50.9,0.3-93.3-41.4-93.7-92.1c-0.4-52.1,41-94.4,92.7-94.8
		C199.9,43.6,242.5,85.4,242.7,136.5z"/>
	<path class="st0" d="M456.4,137.5c-0.2,51.8-42.3,93.5-94.2,93.4c-51.1-0.1-92.9-42.5-92.7-94C269.7,85.3,312,43.7,364,44
		C414.8,44.3,456.6,86.7,456.4,137.5z"/>
	<path class="st0" d="M689.7,318.2c-38.3,59.2-88.5,105.1-151.1,137.4c-0.4,0.2-1,0-2.1,0v-48.9c0-44-14.2-82.8-43.1-116
		c-3.2-3.6-3.2-5.1,0.8-7.9c58.6-42.4,150.9-29.3,194.8,27.5C691.2,313.2,691.8,315.1,689.7,318.2z"/>
	<path class="st0" d="M232.7,290.5c-29.4,33.6-43.6,72.9-43.4,117.5c0.1,15.8,0,31.7,0,48.8C139,431.1,97.1,397.1,62.2,354.3
		c-9.1-11.2-17.5-23-25.4-35c-2.3-3.5-2.6-5.7,0.3-9.2c45.4-57,136.5-69.7,194.9-27C235.6,285.7,235.6,287.1,232.7,290.5z"/>
	<path class="st0" d="M516.6,241.6c-16.4,6.5-31,14.1-44,24.3c-2.7,2.1-4.3,1-6.4-0.6c-12.9-9.7-27.1-17.3-43.3-23.5
		c19.9-12.4,35.5-28,46.9-49.6C481.2,213.6,496.5,229.3,516.6,241.6z"/>
	<path class="st0" d="M303.2,241.6c-16.2,6.4-30.7,13.8-43.6,23.9c-3.4,2.6-5.2,1.2-7.8-0.8c-12.8-9.5-26.6-16.9-42.5-23
		c19.8-12.4,35.4-28.1,46.7-49.4C267.6,213.4,282.8,229.6,303.2,241.6z"/>
</g>
</svg>
