<?xml version="1.0" encoding="utf-8"?>
<!-- Generator: Adobe Illustrator 26.3.1, SVG Export Plug-In . SVG Version: 6.00 Build 0)  -->
<svg version="1.1" id="Layer_1" xmlns="http://www.w3.org/2000/svg" xmlns:xlink="http://www.w3.org/1999/xlink" x="0px" y="0px"
	 viewBox="0 0 500 479" style="enable-background:new 0 0 500 479;" xml:space="preserve">
<g>
	<path d="M250,426c-24.5,0-44.5-20-44.5-44.5v-284c0-24.5,20-44.5,44.5-44.5c24.5,0,44.5,20,44.5,44.5v284
		C294.5,406,274.5,426,250,426z"/>
	<path d="M250,53.5c24.3,0,44,19.7,44,44v284c0,24.3-19.7,44-44,44c-24.3,0-44-19.7-44-44v-284C206,73.2,225.7,53.5,250,53.5
		 M250,52.5L250,52.5c-24.9,0-45,20.1-45,45v284c0,24.9,20.1,45,45,45h0c24.9,0,45-20.1,45-45v-284C295,72.6,274.9,52.5,250,52.5
		L250,52.5z"/>
</g>
<g>
	<path d="M108,284c-24.5,0-44.5-20-44.5-44.5S83.5,195,108,195h284c24.5,0,44.5,20,44.5,44.5S416.5,284,392,284H108z"/>
	<path d="M392,195.5c24.3,0,44,19.7,44,44c0,24.3-19.7,44-44,44H108c-24.3,0-44-19.7-44-44c0-24.3,19.7-44,44-44H392 M392,194.5H108
		c-24.9,0-45,20.1-45,45v0c0,24.9,20.1,45,45,45h284c24.9,0,45-20.1,45-45v0C437,214.6,416.9,194.5,392,194.5L392,194.5z"/>
</g>
</svg>
