<svg width="15" height="16" viewBox="0 0 15 16" fill="none" xmlns="http://www.w3.org/2000/svg">
<path d="M7.49533 0C3.35439 0 0 3.37272 0 7.53628C0 11.6998 3.35439 15.0726 7.49533 15.0726C11.6363 15.0726 14.9907 11.6998 14.9907 7.53628C14.9907 3.37272 11.6363 0 7.49533 0ZM7.49533 14.115C3.88647 14.115 0.952338 11.1649 0.952338 7.53628C0.952338 3.9077 3.88647 0.957541 7.49533 0.957541C11.1042 0.957541 14.0383 3.9077 14.0383 7.53628C14.0383 11.1649 11.1042 14.115 7.49533 14.115Z" fill="#022F64"/>
<path d="M4.53809 5.52036C4.53809 5.14432 4.65761 4.76053 4.90051 4.37673C5.13956 3.98907 5.49042 3.67118 5.9531 3.41532C6.41577 3.16333 6.9517 3.0354 7.5686 3.0354C8.13924 3.0354 8.64432 3.14007 9.08386 3.35329C9.5234 3.56651 9.85884 3.85338 10.0979 4.21779C10.3369 4.5822 10.4565 4.97762 10.4565 5.40793C10.4565 5.7452 10.3871 6.03983 10.2521 6.29569C10.1172 6.54768 9.95523 6.76865 9.76631 6.95473C9.57738 7.14081 9.24194 7.45094 8.75614 7.88513C8.62119 8.00919 8.51323 8.11773 8.43226 8.21077C8.3513 8.30382 8.28961 8.3891 8.25105 8.46664C8.21249 8.54417 8.18165 8.6217 8.15851 8.69924C8.13538 8.77677 8.10454 8.91246 8.06212 9.10629C7.98887 9.51722 7.75367 9.72656 7.35654 9.72656C7.1522 9.72656 6.97869 9.66065 6.83989 9.52497C6.70109 9.38929 6.63169 9.19158 6.63169 8.92408C6.63169 8.59069 6.68181 8.30382 6.78591 8.05958C6.89001 7.81535 7.02496 7.60214 7.19461 7.41605C7.36426 7.22997 7.59174 7.01288 7.88091 6.75702C8.13152 6.53605 8.31659 6.36547 8.42841 6.25305C8.54022 6.14062 8.63661 6.01269 8.71372 5.87701C8.79084 5.73745 8.82939 5.58626 8.82939 5.42344C8.82939 5.10555 8.71372 4.83806 8.47853 4.62096C8.24334 4.40387 7.9426 4.29532 7.5686 4.29532C7.13292 4.29532 6.81676 4.40387 6.60855 4.62484C6.40421 4.84581 6.2307 5.16758 6.08805 5.59789C5.9531 6.04758 5.69863 6.26856 5.32463 6.26856C5.10486 6.26856 4.91594 6.19102 4.76557 6.03208C4.6152 5.87313 4.53809 5.70256 4.53809 5.52036ZM7.42595 12.0409C7.1869 12.0409 6.97484 11.9634 6.79748 11.8045C6.61627 11.6494 6.52759 11.4284 6.52759 11.1454C6.52759 10.8973 6.61241 10.6841 6.78977 10.5135C6.96327 10.343 7.17533 10.2577 7.4298 10.2577C7.67656 10.2577 7.88862 10.343 8.05827 10.5135C8.22792 10.6841 8.31274 10.8934 8.31274 11.1454C8.31274 11.4245 8.22406 11.6416 8.0467 11.8006C7.86163 11.9634 7.65728 12.0409 7.42595 12.0409Z" fill="#022F64"/>
</svg>
