<?xml version="1.0" encoding="utf-8"?>
<!-- Generator: Adobe Illustrator 26.3.1, SVG Export Plug-In . SVG Version: 6.00 Build 0)  -->
<svg version="1.1" id="Layer_1" xmlns="http://www.w3.org/2000/svg" xmlns:xlink="http://www.w3.org/1999/xlink" x="0px" y="0px"
	 viewBox="0 0 672 758" style="enable-background:new 0 0 672 758;" xml:space="preserve">
<style type="text/css">
	.st0{fill:#022F64;}
</style>
<g>
	<path class="st0" d="M352,81c-80,0-144.9,64.8-144.9,144.9c0,50.1,25.5,94.3,64.2,120.3c-24.6,9.2-84.4,35.5-130.9,99.4
		c-50,68.6-54.3,139.1-54.7,164.2c13.4-2.1,26.8-4.3,40.2-6.4c2.1-31.7,10.8-87.5,49.9-138.4c38.1-49.8,95.5-82.4,160.9-95
		c5,0.5,10.1,0.8,15.3,0.8c15.1,0,29.7-2.3,43.4-6.6c12.9-4,25-9.8,36.1-17.1c39.4-25.9,65.3-70.4,65.3-121.1
		C496.9,145.8,432,81,352,81z M396.4,327.6c-13.6,6-28.6,9.3-44.4,9.3c-15.1,0-29.6-3.1-42.8-8.6c-40.1-16.8-68.3-56.4-68.3-102.5
		c0-61.2,49.8-111.1,111.1-111.1s111.1,49.8,111.1,111.1C463.1,271.3,435.6,310.5,396.4,327.6z"/>
	<path class="st0" d="M484.3,378.8c31.4,30.9,62.9,61.7,94.3,92.6c-30.9,32-61.7,64-92.6,96.1c0-18.6,0-37.3,0-55.9
		c-26.8-7.7-55.1,0.7-71.6,21c-20.2,24.8-12.8,55.3-12.2,57.6c5.1,19.5,17.8,30.9,22.7,34.9c-9-1.6-30.3-6.5-48.9-24.5
		c-30.2-29.1-28.3-68.1-27.9-73.4c2.9-43.7,36.4-68.8,47.2-76.8c37.7-28.2,79.4-25.6,90.8-24.5C485.4,410.2,484.8,394.5,484.3,378.8
		z"/>
</g>
</svg>
