<?xml version="1.0" encoding="utf-8"?>
<!-- Generator: Adobe Illustrator 26.3.1, SVG Export Plug-In . SVG Version: 6.00 Build 0)  -->
<svg version="1.1" id="Layer_1" xmlns="http://www.w3.org/2000/svg" xmlns:xlink="http://www.w3.org/1999/xlink" x="0px" y="0px"
	 viewBox="0 0 613.8 586.8" style="enable-background:new 0 0 613.8 586.8;" xml:space="preserve">
<style type="text/css">
	.st0{display:none;}
	.st1{display:inline;fill:#263238;}
	.st2{display:inline;fill:#FEFEFE;}
	.st3{fill:#263238;}
	.st4{fill:#FEFEFE;}
	.st5{fill:#FFFFFF;}
	.st6{font-family:'Poppins-BoldItalic';}
	.st7{font-size:7.9935px;}
</style>
<g class="st0">
	<path class="st1" d="M416.4,294.8c0,63.1-51.4,114.4-114.5,114.2C239,408.9,188,357.7,188,294.7c0-63.2,51.3-114.3,114.5-114.2
		C365.4,180.7,416.4,231.8,416.4,294.8z"/>
	<path class="st2" d="M294.1,197.3c0,5-0.1,9.9,0,14.8c0.1,5.6,3.2,9.2,8,9.3c5,0.1,8.2-3.5,8.3-9.5c0.1-3.7,0.1-7.5,0-11.2
		c-0.1-2.5,0.3-3.5,3.3-3.1c10.5,1.3,20.5,4,30.2,8.7c-2.6,4.6-5.2,8.8-7.5,13.1c-2.6,4.8-1.4,9.6,2.8,11.9
		c4.1,2.2,8.4,0.9,11.2-3.7c2.1-3.5,4.2-7,6.1-10.6c1.2-2.3,2.3-2.3,4.3-0.8c7.6,5.8,14.3,12.5,20.1,20.1c1.5,2,1.4,3.1-0.9,4.2
		c-3.3,1.7-6.5,3.6-9.7,5.5c-5.2,3.1-6.8,7.6-4.4,11.8c2.4,4.3,7.1,5.3,12.4,2.4c4.1-2.3,8.2-4.6,12.6-7.1c5,10,7.6,20.4,8.9,31.3
		c0.3,2.2-0.9,2.1-2.4,2.1c-4.2,0-8.5-0.1-12.7,0c-5.2,0.1-8.7,3.3-8.8,7.9c-0.1,4.8,3.4,8.2,8.9,8.3c4.1,0.1,8.2,0,12.2,0
		c1.5,0,3-0.4,2.7,2.2c-1.2,10.9-4,21.2-8.8,31.2c-4.6-2.6-8.8-5.2-13.1-7.5c-4.8-2.6-9.6-1.4-11.9,2.8c-2.2,4.1-0.9,8.4,3.7,11.2
		c3.3,2.1,6.7,4,10.1,5.8c2.3,1.2,3,2.2,1.2,4.5c-5.9,7.6-12.6,14.3-20.1,20.1c-2.1,1.6-3.1,1.1-4.2-1c-1.9-3.6-3.9-7.1-6.1-10.6
		c-2.8-4.5-7.3-5.8-11.3-3.5c-4,2.3-5.2,6.9-2.8,11.5c2,3.7,4.1,7.4,6.4,11c1.2,1.9,0.9,2.8-1.2,3.7c-9.1,3.8-18.6,6.4-28.4,7.5
		c-2.2,0.2-2.6-0.5-2.6-2.4c0.1-3.9,0.1-7.8,0-11.7c-0.1-6.1-3.1-9.7-8-9.8c-5.1-0.1-8.2,3.6-8.3,10c0,3.7-0.1,7.5,0,11.2
		c0.1,2.1-0.4,2.9-2.8,2.6c-9.7-1.2-19-3.6-27.9-7.4c-2.1-0.9-2.8-1.7-1.3-4c2.3-3.5,4.4-7.3,6.4-11c2.3-4.3,1.1-8.8-2.7-11.1
		c-4-2.5-8.6-1.3-11.4,3.1c-2.3,3.6-4.3,7.3-6.3,11c-1,1.9-2,2.3-3.9,0.9c-7.8-5.9-14.6-12.7-20.5-20.4c-1.7-2.2-0.9-3.1,1.1-4.2
		c3.6-1.9,7.1-3.9,10.6-6.1c4.5-2.8,5.7-7.3,3.4-11.3c-2.4-4-6.9-5.2-11.5-2.7c-3.4,1.8-6.9,3.7-10.1,5.9c-2.8,1.9-3.8,1-5-1.8
		c-3.4-8.6-5.8-17.3-7-26.5c-0.4-3.2,0.6-3.7,3.4-3.6c3.9,0.2,7.8,0.1,11.7,0c5.2-0.2,8.6-3.4,8.7-8c0.1-4.6-3.4-8-8.5-8.2
		c-4.2-0.1-8.5-0.1-12.7,0c-2.2,0.1-2.9-0.4-2.6-2.9c1.1-9.7,3.6-19,7.4-27.9c0.9-2.3,1.8-2.7,4-1.3c3.6,2.3,7.3,4.4,11,6.4
		c4.3,2.3,8.8,1.1,11.1-2.7c2.5-4,1.3-8.5-3.1-11.4c-3.4-2.2-7-4.2-10.6-6.1c-2.3-1.2-2.9-2.3-1.1-4.5c5.8-7.4,12.3-14,19.7-19.8
		c2.4-1.9,3.6-1.4,4.9,1.2c1.7,3.5,3.8,6.8,5.8,10.1c2.8,4.5,7.3,5.8,11.3,3.4c4-2.3,5.2-7,2.8-11.5c-1.9-3.6-3.9-7.2-6.1-10.6
		c-1.6-2.4-1-3.3,1.4-4.3C273.2,200.7,283.1,198.2,294.1,197.3z"/>
	<path class="st1" d="M302,351.9c-31.4-0.1-56.9-25.8-56.9-57.2c0-31.6,25.9-57.3,57.5-57c31.4,0.2,56.8,26,56.7,57.4
		C359.2,326.5,333.4,352,302,351.9z"/>
	<path class="st2" d="M261.4,294.7c0-22.5,18.4-40.7,40.8-40.7c22.5,0,40.7,18.4,40.7,40.8c0,22.5-18.4,40.7-40.8,40.7
		C279.7,335.5,261.4,317.2,261.4,294.7z"/>
</g>
<g>
	<path class="st3" d="M306.9,64.9c56.8,0,113.5-0.1,170.3,0c27.8,0,50.2,17.7,56.7,44.4c1.2,4.8,1.5,9.7,1.5,14.7
		c0,112.9,0,225.7,0,338.6c0,34.6-24.8,59.3-59.5,59.3c-90.6,0-181.2,0-271.8,0c-1.5,0-3.1,0.2-4.6-0.2c-4.1-0.9-6.5-3.5-6.8-7.8
		c-0.2-4,2.7-7.6,6.8-8.2c1.8-0.3,3.7-0.1,5.6-0.1c90.4,0,180.8,0,271.3,0c22.1,0,38.6-13.8,42.1-35.1c0.4-2.7,0.5-5.4,0.5-8.1
		c0-112.7,0-225.4,0-338.1c0-25.5-17.4-43-42.8-43c-112.9,0-225.7,0-338.6,0c-25.4,0-42.9,17.5-42.9,42.9c0,63.2,0,126.5,0,189.7
		c0,1.7,0.2,3.4-0.1,5.1c-0.8,4.4-3.6,7-8.1,7c-4.5,0-7.2-2.7-8-7.1c-0.3-1.5-0.1-3.1-0.1-4.6c0-63.1,0-126.1,0-189.2
		c0-35.7,24.5-60.2,60.1-60.2C194.7,64.9,250.8,64.9,306.9,64.9z"/>
	<path class="st3" d="M307.1,113.9c50.6,0,101.3,0,151.9,0c17.5,0,27.4,9.9,27.4,27.5c0,4.1,0.1,8.2,0,12.2c-0.1,5.6-3.2,9.2-8,9.2
		c-4.8,0.1-8.1-3.5-8.2-9c-0.1-4.8,0-9.5,0-14.3c-0.1-6.3-3.1-9.3-9.5-9.3c-13.4-0.1-26.8,0-40.3,0c-88.4,0-176.7,0-265.1,0
		c-9.1,0-11.5,2.4-11.5,11.4c0,41.1,0,82.2,0,123.4c0,1.7,0.2,3.4-0.1,5.1c-0.8,4.4-3.6,7-8.1,7c-4.5,0-7.2-2.7-8-7.1
		c-0.3-1.5-0.1-3-0.1-4.6c0-41.3,0-82.6,0-123.9c0-17.8,9.9-27.6,27.8-27.6C205.9,113.9,256.5,113.9,307.1,113.9z"/>
	<path class="st3" d="M344.7,472.9c-38.4,0-76.8,0-115.2,0c-1.5,0-3.1,0.1-4.6-0.1c-4.5-0.4-7.6-3.8-7.7-8c0-4.2,3.1-7.7,7.5-8.2
		c1.7-0.2,3.4-0.1,5.1-0.1c76.1,0,152.3,0,228.4,0c9.7,0,11.9-2.3,11.9-12c0-10.9-0.1-21.8,0.1-32.6c0-3-0.3-4.5-4-4.4
		c-10.6,0.1-12.4-1.9-12.4-12.4c0-14.3,0-28.6,0-42.8c0-7,2.9-9.9,9.9-9.9c9.9,0,19.7-0.1,29.6,0c6.3,0,9.4,3.1,9.4,9.4
		c0.1,15.1,0,30.2,0,45.4c0,7.7-2.8,10.8-10.3,10.4c-4.8-0.3-6.3,0.9-6.1,5.9c0.4,11.4,0.2,22.8,0.1,34.2
		c-0.1,14.8-10.6,25.3-25.5,25.3C422.2,472.9,383.4,472.9,344.7,472.9z"/>
	<path class="st3" d="M470.1,282.4c0-11.4-0.1-22.8,0.1-34.1c0.1-3.1-0.8-4-3.9-3.9c-10.8,0-12.5-1.9-12.5-12.9
		c0-13.9,0-27.8,0-41.8c0-7.7,2.8-10.5,10.3-10.5c9.7,0,19.4-0.1,29,0c6.6,0,9.6,3,9.6,9.7c0,14.9,0,29.9,0,44.8
		c0,8-2.7,11-10.6,10.6c-4.5-0.2-5.9,0.9-5.8,5.7c0.3,22.1,0.1,44.1,0.2,66.2c0,4.6-1.5,8-6,9.5c-5.3,1.7-10.2-2.4-10.3-8.6
		C470,305.5,470.1,294,470.1,282.4z"/>
	<path class="st4" d="M486.4,375.4c0,1.7,0.1,3.4,0,5.1c-0.2,3.5,1.5,9.1-0.7,10c-4,1.7-9.2,0.7-13.9,0.8c-1.8,0-1.6-1.3-1.6-2.5
		c0-9.2,0.1-18.3-0.1-27.5c0-2.4,1-2.6,3-2.7c13.4-0.7,13.4-0.8,13.4,12.7C486.4,372.7,486.4,374,486.4,375.4z"/>
	<path class="st4" d="M486.4,212.3c0,1.2,0,2.4,0,3.6c0,13.6,0,13.5-13.8,12.3c-1.9-0.2-2.6-0.7-2.6-2.6c0.1-9.2,0.1-18.3,0-27.5
		c0-2,0.6-2.8,2.6-2.6c0.2,0,0.3,0,0.5,0c13.2-0.7,13.2-0.7,13.2,12.2C486.4,209.3,486.4,210.8,486.4,212.3z"/>
	<g>
		<path class="st3" d="M408.2,301.8h0.1c-2.8,32.3-21.2,60.2-47.7,75.9c-12.3-4.6-30.2-7.5-50.2-7.5c-19.8,0-37.6,2.9-49.9,7.4
			c-28.6-17.1-47.9-48.4-48-84.1c-0.1-54.3,43.9-98.3,98.1-98.3c51.5,0,93.7,39.7,97.8,90.1c-8.3,0-16.3-2.2-23.3-6.3
			c-6.9-4.1-12.8-9.9-16.8-17.2c-13.6-24.8-42.6-39.8-74.1-32.2c-23.4,5.7-41.7,24.1-47.3,47.5c-10.4,43.3,22.2,82,63.8,82
			c24.6,0,46-13.5,57.2-33.4C376.1,311.1,391.4,301.8,408.2,301.8z"/>
		<path class="st3" d="M319.3,301.8h23.5c-3.7,14.1-16.5,24.4-31.8,24.4c-18.1,0-32.9-14.7-32.9-32.9c0-18.1,14.7-32.9,32.9-32.9
			c15.4,0,28.3,10.6,31.9,24.9h-23.7c-2.3,0-4.3,0.9-5.8,2.4c-1.5,1.5-2.4,3.5-2.4,5.8C311,298.2,314.7,301.8,319.3,301.8z"/>
		<circle class="st3" cx="323.8" cy="293.4" r="4.1"/>
		<path class="st3" d="M360.7,377.8c-14.5,8.6-31.3,13.6-49.3,13.7c-18.5,0.1-36-4.9-50.9-13.8c12.3-4.6,30.1-7.4,49.9-7.4
			C330.4,370.2,348.4,373.2,360.7,377.8z"/>
		<text transform="matrix(1 1.540010e-03 -1.540010e-03 1 287.037 383.2601)" class="st5 st6 st7">zeros wallet</text>
	</g>
</g>
</svg>
