<?xml version="1.0" encoding="utf-8"?>
<!-- Generator: Adobe Illustrator 26.3.1, SVG Export Plug-In . SVG Version: 6.00 Build 0)  -->
<svg version="1.1" id="Layer_1" xmlns="http://www.w3.org/2000/svg" xmlns:xlink="http://www.w3.org/1999/xlink" x="0px" y="0px"
	 viewBox="0 0 453.6 489.6" style="enable-background:new 0 0 453.6 489.6;" xml:space="preserve">
<style type="text/css">
	.st0{fill:none;stroke:#000000;stroke-miterlimit:10;}
	.st1{stroke:#000000;stroke-miterlimit:10;}
</style>
<g>
	<path class="st0" d="M296.2,48.1c-10.8,22.8-21.7,45.6-32.5,68.4h-74.4c-9.5-22.3-18.9-44.6-28.4-66.9
		C206.1,49.2,251.1,48.7,296.2,48.1z"/>
	<circle class="st0" cx="226.8" cy="325" r="84.6"/>
	<path class="st0" d="M311.2,221.7c-13.3-20.9-26.9-38.1-39-51.8h-90.7c-9.5,10.1-20.8,23.6-31.8,40.6c-17.5,27-76,117.2-38.3,179.5
		c28.2,46.6,93.9,50.5,107.5,51.3c11,0.7,82.9,4.9,117.9-45.3c16.5-23.7,17.4-49,17.8-60.8C356,292.3,335.7,260.2,311.2,221.7z
		 M226.8,417.1c-50.8,0-92.2-41.3-92.2-92.2c0-50.8,41.3-92.2,92.2-92.2c50.8,0,92.2,41.3,92.2,92.2
		C319,375.8,277.6,417.1,226.8,417.1z"/>
	<circle class="st0" cx="226.8" cy="325" r="84.6"/>
	<path class="st0" d="M311.2,221.7c-13.3-20.9-26.9-38.1-39-51.8h-90.7c-9.5,10.1-20.8,23.6-31.8,40.6c-17.5,27-76,117.2-38.3,179.5
		c28.2,46.6,93.9,50.5,107.5,51.3c11,0.7,82.9,4.9,117.9-45.3c16.5-23.7,17.4-49,17.8-60.8C356,292.3,335.7,260.2,311.2,221.7z
		 M226.8,417.1c-50.8,0-92.2-41.3-92.2-92.2c0-50.8,41.3-92.2,92.2-92.2c50.8,0,92.2,41.3,92.2,92.2
		C319,375.8,277.6,417.1,226.8,417.1z"/>
	<path class="st1" d="M317.6,217.6c-10.7-16.9-22.7-33.1-35.9-48.3c10.1-2.2,17.7-11.2,17.7-22V139c0-12.4-10.1-22.5-22.5-22.5H272
		l36.1-76l-158.4,1.8l31.5,74.2h-2.6c-12.4,0-22.5,10.1-22.5,22.5v8.3c0,10.2,6.8,18.8,16.1,21.6c-10.6,11.7-20.2,24.3-28.7,37.4
		c-9.2,14.1-28.2,43.5-40.6,78.1C87,328.5,87.7,365.3,105,393.8c19.5,32.2,59.8,51.7,113.4,54.9c2.1,0.1,6.3,0.4,12.1,0.4
		c29.3,0,82.8-6.3,112.4-48.9c17.8-25.5,18.7-53.1,19.1-64.9C363.6,290.2,342.3,256.6,317.6,217.6z M161,49.7
		c45.1-0.5,90.1-1,135.2-1.5c-10.8,22.8-21.7,45.6-32.5,68.4h-74.4C179.9,94.2,170.4,71.9,161,49.7z M163.6,147.3V139
		c0-8.3,6.8-15,15-15h98.2c8.3,0,15,6.8,15,15v8.3c0,8.3-6.8,15-15,15h-98.2c-0.1,0-0.2,0-0.4,0
		C170.2,162.1,163.6,155.4,163.6,147.3z M354.6,335.1c-0.4,11.8-1.3,37.1-17.8,60.8c-35,50.2-106.9,45.9-117.9,45.3
		c-13.6-0.8-79.2-4.7-107.5-51.3c-37.7-62.3,20.8-152.5,38.3-179.5c11-17,22.3-30.5,31.8-40.6h90.7c12.1,13.7,25.7,30.9,39,51.8
		C335.7,260.2,356,292.3,354.6,335.1z"/>
	<path class="st0" d="M291.9,139v8.3c0,8.3-6.8,15-15,15h-98.2c-0.1,0-0.2,0-0.4,0c-8.1-0.2-14.7-6.9-14.7-15V139
		c0-8.3,6.8-15,15-15h98.2C285.1,124,291.9,130.8,291.9,139z"/>
	<path class="st0" d="M291.9,139v8.3c0,8.3-6.8,15-15,15h-98.2c-0.1,0-0.2,0-0.4,0c-8.1-0.2-14.7-6.9-14.7-15V139
		c0-8.3,6.8-15,15-15h98.2C285.1,124,291.9,130.8,291.9,139z"/>
	<path class="st1" d="M226.8,232.8c-50.8,0-92.2,41.3-92.2,92.2c0,50.8,41.3,92.2,92.2,92.2c50.8,0,92.2-41.3,92.2-92.2
		C319,274.1,277.6,232.8,226.8,232.8z M226.8,409.6c-46.7,0-84.6-37.9-84.6-84.6c0-46.7,37.9-84.6,84.6-84.6
		c46.7,0,84.6,37.9,84.6,84.6C311.5,371.7,273.6,409.6,226.8,409.6z"/>
	<circle class="st0" cx="226.8" cy="325" r="84.6"/>
	<circle class="st0" cx="226.8" cy="325" r="84.6"/>
	<g>
		<path d="M221.8,383.1V368c-8.7-0.2-17.7-2.9-23-6.6l3.6-10.1c5.4,3.6,13.2,6.5,21.6,6.5c10.7,0,17.9-6.2,17.9-14.7
			c0-8.3-5.9-13.4-17-17.9c-15.3-6-24.8-12.9-24.8-26c0-12.5,8.9-21.9,22.7-24.2v-15.2h9.3v14.6c9,0.3,15.2,2.7,19.5,5.3l-3.8,9.9
			c-3.2-1.8-9.3-5.1-18.9-5.1c-11.6,0-15.9,6.9-15.9,12.9c0,7.8,5.6,11.7,18.6,17.1c15.5,6.3,23.3,14.1,23.3,27.5
			c0,11.9-8.3,23-23.7,25.5v15.6H221.8z"/>
	</g>
</g>
</svg>
