<?xml version="1.0" encoding="utf-8"?>
<!-- Generator: Adobe Illustrator 26.3.1, SVG Export Plug-In . SVG Version: 6.00 Build 0)  -->
<svg version="1.1" id="Layer_1" xmlns="http://www.w3.org/2000/svg" xmlns:xlink="http://www.w3.org/1999/xlink" x="0px" y="0px"
	 viewBox="0 0 512 512" style="enable-background:new 0 0 512 512;" xml:space="preserve">
<style type="text/css">
	.st0{fill:#014F93;}
	.st1{fill:#FFFFFF;}
</style>
<g>
	<circle class="st0" cx="256" cy="256.1" r="241"/>
	<path class="st1" d="M183.4,357.8V212.5h-29.1c-5.9,0-11.2-3.5-13.4-9c-2.3-5.4-1-11.7,3.1-15.8l43.6-43.6
		c2.7-2.7,6.4-4.3,10.3-4.3c3.9,0,7.5,1.5,10.3,4.3l43.6,43.6c4.2,4.2,5.4,10.4,3.1,15.8c-2.3,5.4-7.5,9-13.4,9h-29.1l0.1,145.3
		c0,8-6.5,14.5-14.5,14.5S183.4,365.8,183.4,357.8z M299.6,154.4c0-8,6.5-14.5,14.5-14.5c8,0,14.5,6.5,14.5,14.5v145.3h29.1
		c5.9,0,11.2,3.5,13.4,9c2.3,5.4,1,11.7-3.1,15.8l-43.6,43.6c-2.7,2.7-6.4,4.3-10.3,4.3c-3.9,0-7.5-1.5-10.3-4.3l-43.6-43.6
		c-4.2-4.2-5.4-10.4-3.1-15.8c2.3-5.4,7.5-9,13.4-9h29.1L299.6,154.4L299.6,154.4z"/>
</g>
</svg>
