<?xml version="1.0" encoding="utf-8"?>
<!-- Generator: Adobe Illustrator 26.3.1, SVG Export Plug-In . SVG Version: 6.00 Build 0)  -->
<svg version="1.1" id="Layer_1" xmlns="http://www.w3.org/2000/svg" xmlns:xlink="http://www.w3.org/1999/xlink" x="0px" y="0px"
	 viewBox="0 0 617.4 581.4" style="enable-background:new 0 0 617.4 581.4;" xml:space="preserve">
<g>
	<path d="M63.1,299.8c-7.3-99.9,58-161.7,130.7-173.9c16.3-2.7,32.7-2.1,49-2.2c9.1-0.1,10.2-1.2,10.2-10.5c0-17.6,0-35.3,0-52.9
		c0-1.9,0-3.9,0-7c13.8,11.3,26.7,21.9,39.6,32.5c32.7,27,65.3,54,98.2,80.8c4.4,3.6,3.5,4.8-0.2,7.9
		c-44.2,36.3-88.3,72.8-132.4,109.2c-1.3,1.1-2.7,2.1-4.9,3.9c0-15.1,0-29.2,0-43.3c0-6.4,0-12.8,0-19.2c0-4.3-1.9-7-6.3-7.2
		c-53-3.4-102.7,5.2-145.4,39.7C86.9,269.4,74.5,283.5,63.1,299.8z"/>
	<path d="M364.1,528.1c-32.7-26.9-64.3-52.9-95.9-79c-13.9-11.4-27.7-23-41.7-34.3c-3.7-3-3.9-4.4-0.1-7.5
		c35-28.6,69.8-57.5,104.6-86.2c10.6-8.8,21.3-17.5,32-26.3c1.8,1.5,0.9,3.4,0.9,5c0.1,18.6,0.1,37.3,0,55.9c0,4.6,1.4,8.1,6.5,8.2
		c25.4,0.7,50.7,1,75.7-5.4c43.4-11,77.8-35.2,104.1-71.2c1.1-1.6,2.3-3.1,4.2-5.7c0.7,14.2,0.4,27.3-1.4,40.3
		C544,388,499,437.7,434.5,453.8c-19.4,4.8-39.2,4.4-59,4.3c-10.4,0-11.4,1-11.4,11.2C364.1,488.5,364.1,507.7,364.1,528.1z"/>
</g>
</svg>
