<?xml version="1.0" encoding="utf-8"?>
<!-- Generator: Adobe Illustrator 26.3.1, SVG Export Plug-In . SVG Version: 6.00 Build 0)  -->
<svg version="1.1" id="Layer_1" xmlns="http://www.w3.org/2000/svg" xmlns:xlink="http://www.w3.org/1999/xlink" x="0px" y="0px"
	 viewBox="0 0 640.3 658.8" style="enable-background:new 0 0 640.3 658.8;" xml:space="preserve">
<style type="text/css">
	.st0{fill:#022F64;}
</style>
<g>
	<path class="st0" d="M586.6,130.6c-4.2-22.1-27.1-31.3-47-24.7c-12.3,4.1-24.3,8.9-36.3,13.5c-55.1,21.1-110.3,42.1-165.5,63.1
		c-62.8,24-125.6,48-188.5,72c-24.1,9.2-48.4,18.3-72.4,27.8c-6.1,2.4-11.7,5.6-16.2,10.4c-11.3,12.4-8.8,27.9,6,38
		c4.7,3.2,9.8,5.4,15.2,6.9c28.6,8.1,57,16.5,85.7,24.5c6.7,1.9,10.4,5.1,12.7,11.9c15.4,45.5,31.6,90.7,47.3,136.1
		c2.8,8.2,6.9,15.6,13.4,21.6c12.5,11.6,29.4,13.9,44.7,6.5c10.1-4.9,17.7-13,25.7-20.4c14.3-13.1,28.7-26.1,42.7-39.4
		c3.6-3.5,6.4-2.1,9.6,0.5c16.9,13.8,34,27.4,51,41.1c10.7,8.7,21.4,17.4,32.4,25.8c7,5.3,14.9,8.5,23.7,9
		c17.3,1.1,31.9-8.7,38.2-25.3c2.4-6.4,3.8-13.1,5.1-19.8c15.2-76.6,31-153.1,46.4-229.6c8.4-41.6,16.6-83.2,25.4-124.8
		 M251.5,479.1c-0.3,1.2-0.5,2.4-1.6,3.4c-11-31.4-22-62.8-32.9-94.1c-2.6-7.6-5.1-15.2-8-22.6c-1.5-3.9-0.7-5.4,3-7.3
		c55.9-28.3,111.7-56.9,167.5-85.3c2.2-1.1,3.9-3.6,7.4-2.7c-4.2,4.5-8.2,8.8-12.3,13.1c-32,34-63.9,67.9-95.9,101.8
		c-3.7,3.9-6.2,8.2-7.4,13.5C264.8,425.7,258.1,452.4,251.5,479.1z M330.7,459.2c-13,12.1-26.2,24.2-39.3,36.2
		c-4.6,4.2-9.2,8.5-15,13.8c7-28.2,13.6-54.9,20.3-82.2c12,9.7,23.7,19,35.3,28.4C334.7,457.4,331.7,458.3,330.7,459.2z
		 M557.3,144.6c-5.2,26.2-10.6,52.3-15.9,78.4c-14.2,69.9-28.3,139.8-42.5,209.7c-5.3,26.3-10.6,52.6-15.9,79
		c-3,14.9-9.3,17.3-21.1,7.8c-49.4-39.7-98.7-79.5-148.2-119.2c-3.3-2.6-2.3-3.9,0-6.2c51.7-54.8,103.3-109.6,154.9-164.4
		c1.8-1.9,3.6-3.8,5.4-5.7c5.5-6.4,6-14.5,1.3-20.6c-4.6-6.1-12.7-7.9-20.2-4.1c-21.3,10.8-42.5,21.7-63.7,32.5
		c-67,34.2-134,68.4-201,102.7c-2.6,1.3-4.8,1.8-7.8,0.9c-29.9-8.7-59.9-17.2-89.9-25.8c-0.1-0.4-0.1-0.7-0.2-1.1
		c10.8-4.1,21.6-8.2,32.5-12.4c130.9-50,261.8-99.9,392.7-149.9c8.8-3.4,17.5-6.7,26.3-10.1c0.8-0.3,1.6-0.6,2.5-0.9
		C556.1,132,559.2,134.6,557.3,144.6z"/>
</g>
</svg>
