<?xml version="1.0" encoding="utf-8"?>
<!-- Generator: Adobe Illustrator 26.3.1, SVG Export Plug-In . SVG Version: 6.00 Build 0)  -->
<svg version="1.1" id="Layer_1" xmlns="http://www.w3.org/2000/svg" xmlns:xlink="http://www.w3.org/1999/xlink" x="0px" y="0px"
	 viewBox="0 0 1076.4 1080" style="enable-background:new 0 0 1076.4 1080;" xml:space="preserve">
<style type="text/css">
	.st0{fill:#022F64;}
</style>
<path class="st0" d="M982.7,992.1C865,820.7,747.2,649.3,629.3,478c-4.2-6.1-4.6-9.7,0.5-15.6C720.4,357.6,810.6,252.6,901,147.7
	c18.9-21.9,37.7-43.8,57.7-67.1c-23.1,0-44.5,0.6-65.9-0.2c-10-0.4-16.2,3-22.6,10.5c-91.6,107-183.7,213.7-275.3,320.7
	c-5.9,6.9-7.7,5.2-12-1c-74-107.9-148.2-215.7-222.1-323.7c-3.3-4.8-6.7-6.3-12.3-6.3c-83.8,0.2-167.6,0.1-251.4,0.2
	c-2.4,0-5.2-1.2-7.6,1.2c1.9,2.8,3.6,5.5,5.5,8.2c113.2,164.7,226.4,329.5,339.8,494c3.9,5.6,4.1,8.7-0.5,14.1
	c-93.8,108.7-187.5,217.5-281.1,326.4c-21.4,24.9-42.5,50.1-63.8,75.1h79c36.7-42.9,73.4-85.8,110.2-128.7
	c63.7-74.1,127.6-148.2,191.3-222.4c3.6-4.2,5.4-5.7,9.3,0.1c79.5,116.1,159.2,232,238.8,347.9c0.7,1,1.1,2.1,1.6,3.1h267.5
	C986.8,996.5,984.4,994.5,982.7,992.1z M871.3,942.5c-35.6,0.1-71.2-0.1-106.8,0.2c-5.5,0-8.5-2-11.5-6.3
	C569.4,673.6,385.7,411,202,148.3c-1.5-2.2-3-4.4-5.5-8.1c40.1,0,78.6,0.1,117.1-0.1c5.5,0,7,3.7,9.3,7c62,88.6,124,177.2,186,265.8
	C630.9,587.4,753,762,875,936.5c1,1.4,1.9,2.9,2.9,4.3C876,943.8,873.4,942.5,871.3,942.5z"/>
</svg>
