<?xml version="1.0" encoding="utf-8"?>
<!-- Generator: Adobe Illustrator 26.3.1, SVG Export Plug-In . SVG Version: 6.00 Build 0)  -->
<svg version="1.1" id="Layer_1" xmlns="http://www.w3.org/2000/svg" xmlns:xlink="http://www.w3.org/1999/xlink" x="0px" y="0px"
	 viewBox="0 0 683.1 768" style="enable-background:new 0 0 683.1 768;" xml:space="preserve">
<style type="text/css">
	.st0{enable-background:new    ;}
	.st1{clip-path:url(#SVGID_00000096770566325030208820000018273267909180354714_);enable-background:new    ;}
	.st2{fill:#F0F0F0;}
	.st3{clip-path:url(#SVGID_00000108310788397213440320000006352462129324832649_);enable-background:new    ;}
	.st4{fill:#EBEBEB;}
	.st5{fill:#E6E6E6;}
	.st6{fill:#E0E0E0;}
	.st7{fill:#DBDBDB;}
	.st8{fill:#D6D6D6;}
	.st9{fill:#D1D1D1;}
	.st10{fill:#CCCCCC;}
	.st11{fill:#C7C7C7;}
	.st12{fill:#C2C2C2;}
	.st13{clip-path:url(#SVGID_00000016071205602104749830000005965093423577008775_);enable-background:new    ;}
	.st14{fill:#BDBDBD;}
	.st15{fill:#B8B8B8;}
	.st16{clip-path:url(#SVGID_00000080918904095610369450000004241905050887163536_);enable-background:new    ;}
	.st17{fill:#B3B3B3;}
	.st18{fill:#ADADAD;}
	.st19{fill:#A8A8A8;}
	.st20{clip-path:url(#SVGID_00000043419158732460165720000014796199894835603631_);enable-background:new    ;}
	.st21{fill:#A3A3A3;}
	.st22{fill:#9E9E9E;}
	.st23{fill:#999999;}
	.st24{clip-path:url(#SVGID_00000090994101525033914000000014954443763047945880_);enable-background:new    ;}
	.st25{clip-path:url(#SVGID_00000181797833087865973370000011028193199449676163_);enable-background:new    ;}
	.st26{fill:#858585;}
	.st27{fill:#8A8A8A;}
	.st28{fill:#8F8F8F;}
	.st29{fill:#949494;}
	.st30{fill:#F5F5F5;}
	.st31{clip-path:url(#SVGID_00000135668764254065045570000003316087753607639462_);enable-background:new    ;}
	.st32{clip-path:url(#SVGID_00000060728815113943811880000003725520845735931307_);enable-background:new    ;}
	.st33{clip-path:url(#SVGID_00000155868637066780289580000016540679109908059779_);enable-background:new    ;}
	.st34{clip-path:url(#SVGID_00000120535017101812802750000017555672649629360001_);enable-background:new    ;}
	.st35{clip-path:url(#SVGID_00000183941661613035711170000002827179743303373715_);enable-background:new    ;}
	.st36{clip-path:url(#SVGID_00000172416165644793462260000004633601934356703364_);enable-background:new    ;}
	.st37{clip-path:url(#SVGID_00000096764999132015728660000000812225275700209828_);enable-background:new    ;}
	.st38{clip-path:url(#SVGID_00000143576367999939149740000011699736293908324993_);enable-background:new    ;}
	.st39{clip-path:url(#SVGID_00000100351139185199255300000003094970696538595504_);enable-background:new    ;}
	.st40{clip-path:url(#SVGID_00000118360696702349880670000018397751815198357682_);enable-background:new    ;}
	.st41{clip-path:url(#SVGID_00000151515438111492214590000010777778564891434658_);enable-background:new    ;}
	.st42{clip-path:url(#SVGID_00000129167797204450093490000013556014487126534803_);enable-background:new    ;}
	.st43{clip-path:url(#SVGID_00000182497546202494887750000017863853047820750527_);enable-background:new    ;}
	.st44{clip-path:url(#SVGID_00000058578894532860579070000008684292160996310182_);enable-background:new    ;}
	.st45{clip-path:url(#SVGID_00000145060033307521883280000017508840579249495681_);enable-background:new    ;}
	.st46{clip-path:url(#SVGID_00000183968489255152616320000000465760960052503198_);enable-background:new    ;}
	.st47{clip-path:url(#SVGID_00000108294222509642910450000012517765722530188196_);enable-background:new    ;}
	.st48{clip-path:url(#SVGID_00000122700827705002052040000000805698610107158927_);enable-background:new    ;}
	.st49{clip-path:url(#SVGID_00000036210362171185592860000017141747741868024209_);enable-background:new    ;}
	.st50{fill:#E8E8E8;}
	.st51{clip-path:url(#SVGID_00000113341145642156918870000011335217834384026007_);enable-background:new    ;}
	.st52{clip-path:url(#SVGID_00000163767607023002647020000017174192105372667523_);enable-background:new    ;}
	.st53{clip-path:url(#SVGID_00000142881302178615588620000002628398067999563922_);enable-background:new    ;}
	.st54{clip-path:url(#SVGID_00000098915927079209839520000016287839808418722465_);enable-background:new    ;}
	.st55{clip-path:url(#SVGID_00000054257804356731427950000011245806456665588399_);enable-background:new    ;}
	.st56{clip-path:url(#SVGID_00000057110383166068750010000012362690421251883182_);enable-background:new    ;}
	.st57{clip-path:url(#SVGID_00000044169735302314474960000000812516904321412485_);enable-background:new    ;}
	.st58{clip-path:url(#SVGID_00000006665894014114848490000010573935373823326134_);enable-background:new    ;}
	.st59{clip-path:url(#SVGID_00000030468085609661950550000009978230270249129363_);enable-background:new    ;}
	.st60{clip-path:url(#SVGID_00000138571483382356172160000009330616799570053512_);enable-background:new    ;}
	.st61{clip-path:url(#SVGID_00000146484672559584840540000010885430713159454081_);enable-background:new    ;}
	.st62{clip-path:url(#SVGID_00000033333628048294824170000016837698234373264548_);enable-background:new    ;}
	.st63{clip-path:url(#SVGID_00000135656543839536288200000013844312509840969649_);enable-background:new    ;}
	.st64{clip-path:url(#SVGID_00000049937986309513329900000000298381102455216825_);enable-background:new    ;}
	.st65{clip-path:url(#SVGID_00000166644934150328998120000002965139237153695161_);enable-background:new    ;}
	.st66{clip-path:url(#SVGID_00000164504486199134573580000006038244608621823928_);enable-background:new    ;}
	.st67{clip-path:url(#SVGID_00000124845983368687880470000012640181566386934947_);enable-background:new    ;}
	.st68{clip-path:url(#SVGID_00000133519608048035623890000008760503833528799157_);enable-background:new    ;}
	.st69{clip-path:url(#SVGID_00000071537976869633556060000012796500504769749691_);enable-background:new    ;}
	.st70{clip-path:url(#SVGID_00000103957484025788962150000008512155139693944717_);enable-background:new    ;}
	.st71{clip-path:url(#SVGID_00000065053942281465859310000003166022006558503593_);enable-background:new    ;}
	.st72{clip-path:url(#SVGID_00000051352983127545744480000011186001697766826394_);enable-background:new    ;}
	.st73{clip-path:url(#SVGID_00000119116298624577418540000012156179457201410689_);enable-background:new    ;}
	.st74{clip-path:url(#SVGID_00000020395711928381014350000012546382221635308696_);enable-background:new    ;}
	.st75{clip-path:url(#SVGID_00000167369758411985262800000006528925382425905031_);enable-background:new    ;}
	.st76{clip-path:url(#SVGID_00000172427749630297679900000005571041932888305555_);enable-background:new    ;}
	.st77{clip-path:url(#SVGID_00000034055213056568886000000006620228765264355212_);enable-background:new    ;}
	.st78{clip-path:url(#SVGID_00000130622924011330021360000007948133129610774145_);enable-background:new    ;}
	.st79{clip-path:url(#SVGID_00000083807141438069646870000002975753174966081675_);enable-background:new    ;}
	.st80{clip-path:url(#SVGID_00000051376488492524794920000008607052230669381795_);enable-background:new    ;}
	.st81{clip-path:url(#SVGID_00000119827415798143002110000006260059244232038535_);enable-background:new    ;}
	.st82{clip-path:url(#SVGID_00000179626292855527539940000001048943999585495444_);enable-background:new    ;}
	.st83{clip-path:url(#SVGID_00000161591111751669273220000012902758454206118577_);enable-background:new    ;}
	.st84{clip-path:url(#SVGID_00000105423551934698603710000016815157443247224198_);enable-background:new    ;}
	.st85{fill:#9C9C9C;}
	.st86{clip-path:url(#SVGID_00000036971216085560663810000009704635351438241419_);enable-background:new    ;}
</style>
<g>
	<g>
		<g class="st0">
			<g class="st0">
				<defs>
					<path id="SVGID_1_" class="st0" d="M139.4,342.2l39.3-3.6c0.5,1,1,2.1,1.5,3.1l-39.3,3.6C140.4,344.2,139.9,343.2,139.4,342.2z
						"/>
				</defs>
				<clipPath id="SVGID_00000179610238822284403820000000618744092181973413_">
					<use xlink:href="#SVGID_1_"  style="overflow:visible;"/>
				</clipPath>
				<g style="clip-path:url(#SVGID_00000179610238822284403820000000618744092181973413_);enable-background:new    ;">
					<path class="st2" d="M139.4,342.2l39.3-3.6c0.5,1,1,2.1,1.5,3.1l-39.3,3.6C140.4,344.2,139.9,343.2,139.4,342.2"/>
				</g>
			</g>
			<g class="st0">
				<defs>
					<path id="SVGID_00000022522122604872344090000003514001039032445369_" class="st0" d="M141,345.2l39.3-3.6
						c1.6,2.8,3.4,5.1,5.7,6.6l-39.3,3.6C144.4,350.3,142.5,348,141,345.2z"/>
				</defs>
				<clipPath id="SVGID_00000040575289238848213520000007245534106625373083_">
					<use xlink:href="#SVGID_00000022522122604872344090000003514001039032445369_"  style="overflow:visible;"/>
				</clipPath>
				<g style="clip-path:url(#SVGID_00000040575289238848213520000007245534106625373083_);enable-background:new    ;">
					<path class="st2" d="M141,345.2l39.3-3.6c0.1,0.1,0.1,0.2,0.2,0.3l-39.3,3.6C141.1,345.5,141,345.4,141,345.2"/>
					<path class="st4" d="M141.1,345.6l39.3-3.6c0.3,0.6,0.7,1.1,1,1.6l-39.3,3.6C141.8,346.7,141.5,346.1,141.1,345.6"/>
					<path class="st5" d="M142.2,347.2l39.3-3.6c0.3,0.4,0.5,0.7,0.8,1.1l-39.3,3.6C142.7,347.9,142.4,347.6,142.2,347.2"/>
					<path class="st6" d="M143,348.3l39.3-3.6c0.2,0.3,0.4,0.6,0.7,0.8l-39.3,3.6C143.4,348.9,143.2,348.6,143,348.3"/>
					<path class="st7" d="M143.6,349.1l39.3-3.6c0.2,0.2,0.4,0.4,0.6,0.7l-39.3,3.6C144,349.6,143.8,349.3,143.6,349.1"/>
					<path class="st8" d="M144.2,349.8l39.3-3.6c0.2,0.2,0.4,0.4,0.5,0.6l-39.3,3.6C144.6,350.2,144.4,350,144.2,349.8"/>
					<path class="st9" d="M144.8,350.3l39.3-3.6c0.2,0.2,0.3,0.3,0.5,0.5l-39.3,3.6C145.1,350.6,144.9,350.5,144.8,350.3"/>
					<path class="st10" d="M145.3,350.8l39.3-3.6c0.2,0.1,0.3,0.3,0.5,0.4l-39.3,3.6C145.6,351.1,145.5,350.9,145.3,350.8"/>
					<path class="st11" d="M145.8,351.2l39.3-3.6c0.2,0.1,0.3,0.3,0.5,0.4l-39.3,3.6C146.1,351.5,146,351.3,145.8,351.2"/>
					<path class="st12" d="M146.3,351.6l39.3-3.6c0.1,0.1,0.3,0.2,0.4,0.3l-39.3,3.6C146.5,351.8,146.4,351.7,146.3,351.6"/>
				</g>
			</g>
			<g class="st0">
				<defs>
					<path id="SVGID_00000124144759465774482090000018190829175793911216_" class="st0" d="M146.7,351.9l39.3-3.6
						c2.3,2.9,5,4.9,7.9,6.3l-39.3,3.6C151.7,356.7,149,354.8,146.7,351.9z"/>
				</defs>
				<clipPath id="SVGID_00000039854687202762699300000006315682645472519332_">
					<use xlink:href="#SVGID_00000124144759465774482090000018190829175793911216_"  style="overflow:visible;"/>
				</clipPath>
				<g style="clip-path:url(#SVGID_00000039854687202762699300000006315682645472519332_);enable-background:new    ;">
					<path class="st6" d="M146.7,351.9l39.3-3.6c0.2,0.2,0.3,0.4,0.5,0.6l-39.3,3.6C147,352.3,146.8,352.1,146.7,351.9"/>
					<path class="st7" d="M147.2,352.5l39.3-3.6c0.3,0.3,0.5,0.6,0.8,0.9l-39.3,3.6C147.7,353.1,147.4,352.8,147.2,352.5"/>
					<path class="st8" d="M148,353.3l39.3-3.6c0.3,0.3,0.5,0.5,0.8,0.8l-39.3,3.6C148.5,353.9,148.2,353.6,148,353.3"/>
					<path class="st9" d="M148.8,354.1l39.3-3.6c0.3,0.3,0.5,0.5,0.8,0.7l-39.3,3.6C149.3,354.6,149,354.4,148.8,354.1"/>
					<path class="st10" d="M149.6,354.9l39.3-3.6c0.3,0.2,0.6,0.5,0.8,0.7l-39.3,3.6C150.1,355.4,149.9,355.1,149.6,354.9"/>
					<path class="st11" d="M150.4,355.6l39.3-3.6c0.3,0.2,0.6,0.5,0.9,0.7l-39.3,3.6C151,356,150.7,355.8,150.4,355.6"/>
					<path class="st12" d="M151.3,356.3l39.3-3.6c0.3,0.2,0.6,0.4,1,0.7l-39.3,3.6C152,356.7,151.6,356.5,151.3,356.3"/>
					<path class="st14" d="M152.3,356.9l39.3-3.6c0.4,0.2,0.7,0.4,1.1,0.6l-39.3,3.6C153,357.4,152.7,357.1,152.3,356.9"/>
					<path class="st15" d="M153.4,357.6l39.3-3.6c0.4,0.2,0.8,0.4,1.2,0.6l-39.3,3.6C154.1,358,153.8,357.8,153.4,357.6"/>
				</g>
			</g>
			<g class="st0">
				<defs>
					<path id="SVGID_00000181051518626862966370000014532107241978248878_" class="st0" d="M154.5,358.2l39.3-3.6
						c2.2,2.3,4.7,4,7.4,4.8l-39.3,3.6C159.2,362.1,156.8,360.5,154.5,358.2z"/>
				</defs>
				<clipPath id="SVGID_00000075853396698763446810000008922359171606454929_">
					<use xlink:href="#SVGID_00000181051518626862966370000014532107241978248878_"  style="overflow:visible;"/>
				</clipPath>
				<g style="clip-path:url(#SVGID_00000075853396698763446810000008922359171606454929_);enable-background:new    ;">
					<path class="st8" d="M154.5,358.2l39.3-3.6c0.2,0.2,0.5,0.5,0.7,0.7l-39.3,3.6C155,358.6,154.8,358.4,154.5,358.2"/>
					<path class="st9" d="M155.2,358.9l39.3-3.6c0.3,0.3,0.5,0.5,0.8,0.7l-39.3,3.6C155.8,359.4,155.5,359.1,155.2,358.9"/>
					<path class="st10" d="M156,359.6l39.3-3.6c0.3,0.2,0.5,0.4,0.8,0.6l-39.3,3.6C156.5,360,156.3,359.8,156,359.6"/>
					<path class="st11" d="M156.8,360.2l39.3-3.6c0.2,0.2,0.5,0.4,0.7,0.5l-39.3,3.6C157.3,360.6,157,360.4,156.8,360.2"/>
					<path class="st12" d="M157.5,360.8l39.3-3.6c0.2,0.2,0.5,0.3,0.7,0.5l-39.3,3.6C158,361.1,157.8,360.9,157.5,360.8"/>
					<path class="st14" d="M158.2,361.2l39.3-3.6c0.2,0.1,0.5,0.3,0.7,0.4l-39.3,3.6C158.7,361.5,158.5,361.4,158.2,361.2"/>
					<path class="st15" d="M158.9,361.7l39.3-3.6c0.2,0.1,0.5,0.3,0.7,0.4l-39.3,3.6C159.4,361.9,159.2,361.8,158.9,361.7"/>
					<path class="st17" d="M159.7,362.1l39.3-3.6c0.2,0.1,0.5,0.2,0.7,0.3l-39.3,3.6C160.1,362.3,159.9,362.2,159.7,362.1"/>
					<path class="st18" d="M160.4,362.4l39.3-3.6c0.2,0.1,0.5,0.2,0.7,0.3l-39.3,3.6C160.9,362.6,160.6,362.5,160.4,362.4"/>
					<path class="st19" d="M161.1,362.7l39.3-3.6c0.3,0.1,0.5,0.2,0.8,0.3l-39.3,3.6C161.6,362.9,161.4,362.8,161.1,362.7"/>
				</g>
			</g>
			<g class="st0">
				<defs>
					<path id="SVGID_00000083089933327194773950000001679265932604913064_" class="st0" d="M161.9,362.9l39.3-3.6
						c0.6,0.6,1.1,1.3,1.8,1.4l-39.3,3.6C163,364.3,162.5,363.5,161.9,362.9z"/>
				</defs>
				<clipPath id="SVGID_00000090987846443837214930000011954083275228140673_">
					<use xlink:href="#SVGID_00000083089933327194773950000001679265932604913064_"  style="overflow:visible;"/>
				</clipPath>
				<g style="clip-path:url(#SVGID_00000090987846443837214930000011954083275228140673_);enable-background:new    ;">
					<path class="st8" d="M161.9,362.9l39.3-3.6c0,0,0,0,0,0L161.9,362.9C161.9,363,161.9,362.9,161.9,362.9"/>
					<path class="st7" d="M161.9,363l39.3-3.6c0.2,0.2,0.3,0.3,0.5,0.5l-39.3,3.6C162.3,363.3,162.1,363.1,161.9,363"/>
					<path class="st8" d="M162.4,363.5l39.3-3.6c0.1,0.1,0.2,0.2,0.2,0.2l-39.3,3.6C162.6,363.6,162.5,363.6,162.4,363.5"/>
					<path class="st9" d="M162.7,363.7l39.3-3.6c0.1,0,0.1,0.1,0.2,0.1l-39.3,3.6C162.8,363.8,162.7,363.8,162.7,363.7"/>
					<path class="st10" d="M162.8,363.9l39.3-3.6c0,0,0.1,0.1,0.1,0.1l-39.3,3.6C162.9,363.9,162.8,363.9,162.8,363.9"/>
					<path class="st11" d="M162.9,364l39.3-3.6c0,0,0.1,0.1,0.1,0.1L163,364C163,364,163,364,162.9,364"/>
					<path class="st12" d="M163,364l39.3-3.6c0,0,0.1,0,0.1,0.1L163,364C163.1,364.1,163.1,364.1,163,364"/>
					<path class="st14" d="M163.1,364.1l39.3-3.6c0,0,0.1,0,0.1,0.1L163.1,364.1C163.2,364.1,163.2,364.1,163.1,364.1"/>
					<path class="st15" d="M163.2,364.2l39.3-3.6c0,0,0.1,0,0.1,0L163.2,364.2C163.3,364.2,163.2,364.2,163.2,364.2"/>
					<path class="st17" d="M163.3,364.2l39.3-3.6c0,0,0.1,0,0.1,0L163.3,364.2C163.4,364.2,163.3,364.2,163.3,364.2"/>
					<path class="st18" d="M163.4,364.2l39.3-3.6c0,0,0.1,0,0.1,0L163.4,364.2C163.4,364.3,163.4,364.3,163.4,364.2"/>
					<path class="st19" d="M163.5,364.3l39.3-3.6c0,0,0.1,0,0.1,0L163.5,364.3C163.5,364.3,163.5,364.3,163.5,364.3"/>
					<path class="st21" d="M163.5,364.3l39.3-3.6c0,0,0.1,0,0.1,0L163.5,364.3C163.6,364.3,163.6,364.3,163.5,364.3"/>
					<path class="st22" d="M163.6,364.3l39.3-3.6c0,0,0.1,0,0.1,0L163.6,364.3C163.7,364.3,163.7,364.3,163.6,364.3"/>
					<path class="st23" d="M163.7,364.3l39.3-3.6c0,0,0,0,0,0L163.7,364.3C163.7,364.3,163.7,364.3,163.7,364.3"/>
				</g>
			</g>
			<g class="st0">
				<defs>
					<path id="SVGID_00000062906284570990588510000007408197204999807678_" class="st0" d="M163.8,364.3l39.3-3.6
						c0.7,0.8,1.2,1.1,1.7,1.2l-39.3,3.6C164.9,365.4,164.4,365.2,163.8,364.3z"/>
				</defs>
				<clipPath id="SVGID_00000113310779127547308480000005623714167844042940_">
					<use xlink:href="#SVGID_00000062906284570990588510000007408197204999807678_"  style="overflow:visible;"/>
				</clipPath>
				<g style="clip-path:url(#SVGID_00000113310779127547308480000005623714167844042940_);enable-background:new    ;">
					<path class="st6" d="M163.8,364.3l39.3-3.6c0,0,0,0.1,0.1,0.1L163.8,364.3C163.8,364.4,163.8,364.4,163.8,364.3"/>
					<path class="st7" d="M163.8,364.4l39.3-3.6c0.1,0.1,0.1,0.2,0.2,0.2l-39.3,3.6C164,364.6,163.9,364.5,163.8,364.4"/>
					<path class="st8" d="M164,364.7l39.3-3.6c0.1,0.1,0.1,0.1,0.2,0.2l-39.3,3.6C164.1,364.8,164.1,364.7,164,364.7"/>
					<path class="st9" d="M164.2,364.8l39.3-3.6c0,0,0.1,0.1,0.1,0.1l-39.3,3.6C164.3,364.9,164.2,364.9,164.2,364.8"/>
					<path class="st10" d="M164.3,364.9l39.3-3.6c0,0,0.1,0.1,0.1,0.1l-39.3,3.6C164.4,365,164.4,365,164.3,364.9"/>
					<path class="st11" d="M164.5,365.1l39.3-3.6c0,0,0.1,0.1,0.1,0.1l-39.3,3.6C164.5,365.1,164.5,365.1,164.5,365.1"/>
					<path class="st12" d="M164.6,365.1l39.3-3.6c0,0,0.1,0,0.1,0.1l-39.3,3.6C164.6,365.2,164.6,365.2,164.6,365.1"/>
					<path class="st14" d="M164.7,365.2l39.3-3.6c0,0,0.1,0,0.1,0.1L164.7,365.2C164.7,365.2,164.7,365.2,164.7,365.2"/>
					<path class="st15" d="M164.8,365.3l39.3-3.6c0,0,0.1,0,0.1,0.1L164.8,365.3C164.8,365.3,164.8,365.3,164.8,365.3"/>
					<path class="st17" d="M164.9,365.3l39.3-3.6c0,0,0.1,0,0.1,0L164.9,365.3C164.9,365.3,164.9,365.3,164.9,365.3"/>
					<path class="st18" d="M165,365.4l39.3-3.6c0,0,0.1,0,0.1,0L165,365.4C165,365.4,165,365.4,165,365.4"/>
					<path class="st19" d="M165.1,365.4l39.3-3.6c0,0,0.1,0,0.1,0l-39.3,3.6C165.1,365.4,165.1,365.4,165.1,365.4"/>
					<path class="st21" d="M165.2,365.4l39.3-3.6c0,0,0.1,0,0.1,0l-39.3,3.6C165.2,365.5,165.2,365.4,165.2,365.4"/>
					<path class="st22" d="M165.3,365.5l39.3-3.6c0,0,0.1,0,0.1,0l-39.3,3.6C165.4,365.5,165.3,365.5,165.3,365.5"/>
					<path class="st23" d="M165.4,365.5l39.3-3.6c0,0,0.1,0,0.1,0L165.4,365.5C165.5,365.5,165.4,365.5,165.4,365.5"/>
				</g>
			</g>
			<g class="st0">
				<defs>
					<path id="SVGID_00000063618165315568251190000014736496797841747616_" class="st0" d="M163.3,313.3l39.3-3.6
						c-8.2,2.3-16.2,5.8-22.5,13.5c-3.7,4.5-4,8.7-1.4,15.3l-39.3,3.6c-2.6-6.6-2.4-10.8,1.4-15.3
						C147.2,319.1,155.1,315.7,163.3,313.3z"/>
				</defs>
				<clipPath id="SVGID_00000034061999790086374670000006216555991007840184_">
					<use xlink:href="#SVGID_00000063618165315568251190000014736496797841747616_"  style="overflow:visible;"/>
				</clipPath>
				<g style="clip-path:url(#SVGID_00000034061999790086374670000006216555991007840184_);enable-background:new    ;">
					<path class="st26" d="M163.3,313.3l39.3-3.6c-7.2,2-14.1,4.9-19.9,10.7l-39.3,3.6C149.2,318.2,156.2,315.4,163.3,313.3"/>
					<path class="st27" d="M143.4,324l39.3-3.6c-0.9,0.9-1.7,1.8-2.5,2.8l-39.3,3.6C141.7,325.8,142.5,324.9,143.4,324"/>
					<path class="st28" d="M140.8,326.8l39.3-3.6c0,0,0,0.1-0.1,0.1c-0.3,0.3-0.5,0.7-0.8,1l-39.3,3.6
						C140.2,327.6,140.5,327.2,140.8,326.8C140.8,326.8,140.8,326.8,140.8,326.8"/>
					<path class="st29" d="M140,327.9l39.3-3.6c-0.2,0.3-0.4,0.5-0.5,0.8l-39.3,3.6C139.6,328.4,139.8,328.2,140,327.9"/>
					<path class="st23" d="M139.5,328.7l39.3-3.6c-0.1,0.2-0.3,0.4-0.4,0.6l-39.3,3.6C139.2,329.1,139.3,328.9,139.5,328.7"/>
					<path class="st22" d="M139.1,329.3l39.3-3.6c-0.1,0.2-0.2,0.3-0.3,0.5l-39.3,3.6C138.9,329.6,139,329.5,139.1,329.3"/>
					<path class="st21" d="M138.8,329.8l39.3-3.6c-0.1,0.2-0.2,0.3-0.2,0.5l-39.3,3.6C138.7,330.1,138.7,330,138.8,329.8"/>
					<path class="st19" d="M138.6,330.3l39.3-3.6c-0.1,0.1-0.1,0.3-0.2,0.4l-39.3,3.6C138.5,330.6,138.5,330.4,138.6,330.3"/>
					<path class="st18" d="M138.4,330.7l39.3-3.6c-0.1,0.1-0.1,0.3-0.1,0.4l-39.3,3.6C138.3,331,138.4,330.8,138.4,330.7"/>
					<path class="st17" d="M138.3,331.1l39.3-3.6c0,0.1-0.1,0.2-0.1,0.4l-39.3,3.6C138.2,331.3,138.2,331.2,138.3,331.1"/>
					<path class="st15" d="M138.2,331.5l39.3-3.6c0,0.1-0.1,0.2-0.1,0.4l-39.3,3.6C138.1,331.7,138.1,331.6,138.2,331.5"/>
					<path class="st14" d="M138,331.8l39.3-3.6c0,0.1-0.1,0.2-0.1,0.4l-39.3,3.6C138,332.1,138,331.9,138,331.8"/>
					<path class="st12" d="M138,332.2l39.3-3.6c0,0.1-0.1,0.2-0.1,0.3l-39.3,3.6C137.9,332.4,137.9,332.3,138,332.2"/>
					<path class="st11" d="M137.9,332.5l39.3-3.6c0,0.1,0,0.2-0.1,0.3l-39.3,3.6C137.8,332.8,137.9,332.6,137.9,332.5"/>
					<path class="st10" d="M137.8,332.9l39.3-3.6c0,0.1,0,0.2-0.1,0.4l-39.3,3.6C137.8,333.1,137.8,333,137.8,332.9"/>
					<path class="st9" d="M137.8,333.2l39.3-3.6c0,0.1,0,0.2,0,0.4l-39.3,3.6C137.7,333.5,137.8,333.4,137.8,333.2"/>
					<path class="st8" d="M137.7,333.6l39.3-3.6c0,0.1,0,0.3,0,0.4l-39.3,3.6C137.7,333.9,137.7,333.7,137.7,333.6"/>
					<path class="st7" d="M137.7,334l39.3-3.6c0,0.1,0,0.3,0,0.4l-39.3,3.6C137.7,334.3,137.7,334.2,137.7,334"/>
					<path class="st6" d="M137.7,334.4l39.3-3.6c0,0.2,0,0.3,0,0.5l-39.3,3.6C137.7,334.8,137.7,334.6,137.7,334.4"/>
					<path class="st5" d="M137.7,334.9l39.3-3.6c0,0.2,0,0.4,0,0.6l-39.3,3.6C137.7,335.3,137.7,335.1,137.7,334.9"/>
					<path class="st4" d="M137.7,335.5l39.3-3.6c0,0.2,0,0.5,0.1,0.7l-39.3,3.6C137.7,335.9,137.7,335.7,137.7,335.5"/>
					<path class="st2" d="M137.8,336.2l39.3-3.6c0,0.3,0.1,0.7,0.2,1l-39.3,3.6C137.9,336.8,137.8,336.5,137.8,336.2"/>
					<path class="st30" d="M137.9,337.2l39.3-3.6c0.3,1.5,0.8,3.1,1.5,5l-39.3,3.6C138.7,340.3,138.2,338.7,137.9,337.2"/>
				</g>
			</g>
			<g class="st0">
				<defs>
					<path id="SVGID_00000074432896002446930150000001516763491123123869_" class="st0" d="M165.5,312.3l39.3-3.6
						c-0.9,0.1-1.5,0.6-2.2,1.1l-39.3,3.6C164,312.9,164.6,312.4,165.5,312.3z"/>
				</defs>
				<clipPath id="SVGID_00000111152480717065012710000004113825588688803479_">
					<use xlink:href="#SVGID_00000074432896002446930150000001516763491123123869_"  style="overflow:visible;"/>
				</clipPath>
				<g style="clip-path:url(#SVGID_00000111152480717065012710000004113825588688803479_);enable-background:new    ;">
					<path class="st26" d="M165.5,312.3l39.3-3.6c-0.9,0.1-1.5,0.6-2.2,1.1l-39.3,3.6C164,312.9,164.6,312.4,165.5,312.3"/>
				</g>
			</g>
			<g class="st0">
				<defs>
					<path id="SVGID_00000101802469764388583850000011495769639140172460_" class="st0" d="M167.2,311.6l39.3-3.6
						c-0.5,0-0.8,0.3-1.1,0.7l-39.3,3.6C166.4,311.9,166.7,311.7,167.2,311.6z"/>
				</defs>
				<clipPath id="SVGID_00000162345940292255731520000016350370665798874767_">
					<use xlink:href="#SVGID_00000101802469764388583850000011495769639140172460_"  style="overflow:visible;"/>
				</clipPath>
				<g style="clip-path:url(#SVGID_00000162345940292255731520000016350370665798874767_);enable-background:new    ;">
					<path class="st26" d="M167.2,311.6l39.3-3.6c-0.4,0-0.6,0.2-0.9,0.4l-39.3,3.6C166.6,311.8,166.9,311.6,167.2,311.6"/>
					<path class="st27" d="M166.4,312l39.3-3.6c0,0-0.1,0.1-0.1,0.1l-39.3,3.6C166.3,312.1,166.3,312,166.4,312"/>
					<path class="st28" d="M166.3,312.1l39.3-3.6c0,0-0.1,0.1-0.1,0.1l-39.3,3.6C166.2,312.2,166.2,312.2,166.3,312.1"/>
					<path class="st29" d="M166.2,312.2l39.3-3.6c0,0,0,0,0,0.1L166.2,312.2C166.1,312.3,166.2,312.3,166.2,312.2"/>
				</g>
			</g>
			<g class="st0">
				<defs>
					<path id="SVGID_00000082351112494915785160000000274699586030191264_" class="st0" d="M172.8,310.2l39.3-3.6
						c-1.6,0.1-3,0.9-4.4,1.6l-39.3,3.6C169.8,311,171.2,310.3,172.8,310.2z"/>
				</defs>
				<clipPath id="SVGID_00000031902643012653292790000011223273966209470353_">
					<use xlink:href="#SVGID_00000082351112494915785160000000274699586030191264_"  style="overflow:visible;"/>
				</clipPath>
				<g style="clip-path:url(#SVGID_00000031902643012653292790000011223273966209470353_);enable-background:new    ;">
					<path class="st26" d="M172.8,310.2l39.3-3.6c-1.6,0.1-3,0.9-4.4,1.6l-39.3,3.6C169.8,311,171.2,310.3,172.8,310.2"/>
				</g>
			</g>
			<g class="st0">
				<defs>
					<path id="SVGID_00000149346666926830346850000002806373219057491891_" class="st0" d="M175.3,309.5l39.3-3.6
						c-0.5,0-0.8,0.3-1.1,0.7l-39.3,3.6C174.5,309.7,174.8,309.5,175.3,309.5z"/>
				</defs>
				<clipPath id="SVGID_00000086676511376118131820000012612248669014561701_">
					<use xlink:href="#SVGID_00000149346666926830346850000002806373219057491891_"  style="overflow:visible;"/>
				</clipPath>
				<g style="clip-path:url(#SVGID_00000086676511376118131820000012612248669014561701_);enable-background:new    ;">
					<path class="st26" d="M175.3,309.5l39.3-3.6c-0.4,0-0.6,0.2-0.9,0.4l-39.3,3.6C174.7,309.6,175,309.5,175.3,309.5"/>
					<path class="st27" d="M174.5,309.9l39.3-3.6c0,0-0.1,0.1-0.1,0.1l-39.3,3.6C174.4,309.9,174.4,309.9,174.5,309.9"/>
					<path class="st28" d="M174.4,310l39.3-3.6c0,0-0.1,0.1-0.1,0.1l-39.3,3.6C174.3,310.1,174.3,310,174.4,310"/>
					<path class="st29" d="M174.3,310.1l39.3-3.6c0,0,0,0,0,0.1L174.3,310.1C174.2,310.1,174.3,310.1,174.3,310.1"/>
				</g>
			</g>
			<g class="st0">
				<defs>
					<path id="SVGID_00000152250367886059701180000004076620071539859116_" class="st0" d="M165.5,365.5l39.3-3.6
						c6.4,3.6,12.2,6.3,18.1,8.3l-39.3,3.6C177.7,371.8,171.9,369.1,165.5,365.5z"/>
				</defs>
				<clipPath id="SVGID_00000044162258422257637810000012832336807534198177_">
					<use xlink:href="#SVGID_00000152250367886059701180000004076620071539859116_"  style="overflow:visible;"/>
				</clipPath>
				<g style="clip-path:url(#SVGID_00000044162258422257637810000012832336807534198177_);enable-background:new    ;">
					<path class="st15" d="M165.5,365.5l39.3-3.6c2.1,1.2,4.2,2.3,6.3,3.3l-39.3,3.6C169.7,367.8,167.6,366.7,165.5,365.5"/>
					<path class="st17" d="M171.8,368.8l39.3-3.6c1.8,0.9,3.6,1.8,5.4,2.5l-39.3,3.6C175.4,370.6,173.6,369.7,171.8,368.8"/>
					<path class="st18" d="M177.2,371.3l39.3-3.6c1.6,0.7,3.2,1.3,4.8,1.9l-39.3,3.6C180.4,372.7,178.8,372,177.2,371.3"/>
					<path class="st19" d="M182,373.2l39.3-3.6c0.5,0.2,1.1,0.4,1.6,0.6l-39.3,3.6C183.1,373.6,182.6,373.4,182,373.2"/>
				</g>
			</g>
			<g class="st0">
				<defs>
					<path id="SVGID_00000142870590330662671940000000664662908076218558_" class="st0" d="M183.6,373.8l39.3-3.6
						c0.5,0.8,1.1,1.1,1.7,1.2c0.4,0,0.9,0,1.3,0l-39.3,3.6c-0.4,0-0.9,0-1.3,0C184.7,374.9,184.1,374.7,183.6,373.8z"/>
				</defs>
				<clipPath id="SVGID_00000047755921991355122340000002138011648796373126_">
					<use xlink:href="#SVGID_00000142870590330662671940000000664662908076218558_"  style="overflow:visible;"/>
				</clipPath>
				<g style="clip-path:url(#SVGID_00000047755921991355122340000002138011648796373126_);enable-background:new    ;">
					<path class="st4" d="M183.6,373.8l39.3-3.6c0,0.1,0.1,0.1,0.1,0.2l-39.3,3.6C183.7,373.9,183.7,373.9,183.6,373.8"/>
					<path class="st5" d="M183.8,374l39.3-3.6c0,0.1,0.1,0.1,0.1,0.1l-39.3,3.6C183.8,374.1,183.8,374,183.8,374"/>
					<path class="st6" d="M183.9,374.1l39.3-3.6c0,0,0.1,0.1,0.1,0.1l-39.3,3.6C183.9,374.2,183.9,374.2,183.9,374.1"/>
					<path class="st7" d="M183.9,374.2l39.3-3.6c0,0,0.1,0.1,0.1,0.1L183.9,374.2C184,374.3,184,374.3,183.9,374.2"/>
					<path class="st8" d="M184,374.3l39.3-3.6c0,0,0.1,0.1,0.1,0.1L184,374.3C184.1,374.4,184.1,374.4,184,374.3"/>
					<path class="st9" d="M184.1,374.4l39.3-3.6c0,0,0.1,0,0.1,0.1L184.1,374.4C184.2,374.5,184.1,374.4,184.1,374.4"/>
					<path class="st10" d="M184.2,374.5l39.3-3.6c0,0,0.1,0,0.1,0.1L184.2,374.5C184.2,374.5,184.2,374.5,184.2,374.5"/>
					<path class="st11" d="M184.3,374.6l39.3-3.6c0,0,0.1,0,0.1,0.1L184.3,374.6C184.3,374.6,184.3,374.6,184.3,374.6"/>
					<path class="st12" d="M184.4,374.6l39.3-3.6c0,0,0.1,0,0.1,0.1L184.4,374.6C184.4,374.7,184.4,374.6,184.4,374.6"/>
					<path class="st14" d="M184.4,374.7l39.3-3.6c0,0,0.1,0,0.1,0.1L184.4,374.7C184.5,374.7,184.5,374.7,184.4,374.7"/>
					<path class="st15" d="M184.5,374.7l39.3-3.6c0,0,0.1,0,0.1,0L184.5,374.7C184.6,374.8,184.5,374.7,184.5,374.7"/>
					<path class="st17" d="M184.6,374.8l39.3-3.6c0,0,0.1,0,0.1,0L184.6,374.8C184.7,374.8,184.6,374.8,184.6,374.8"/>
					<path class="st18" d="M184.7,374.8l39.3-3.6c0,0,0.1,0,0.1,0l-39.3,3.6C184.8,374.8,184.7,374.8,184.7,374.8"/>
					<path class="st19" d="M184.8,374.9l39.3-3.6c0,0,0.1,0,0.1,0l-39.3,3.6C184.9,374.9,184.9,374.9,184.8,374.9"/>
					<path class="st21" d="M184.9,374.9l39.3-3.6c0,0,0.1,0,0.1,0l-39.3,3.6C185,374.9,185,374.9,184.9,374.9"/>
					<path class="st22" d="M185.1,374.9l39.3-3.6c0.1,0,0.1,0,0.2,0l-39.3,3.6C185.2,375,185.1,374.9,185.1,374.9"/>
					<path class="st23" d="M185.3,375l39.3-3.6c0,0,0.1,0,0.1,0c0,0,0.1,0,0.1,0l-39.3,3.6c0,0-0.1,0-0.1,0
						C185.3,375,185.3,375,185.3,375"/>
					<path class="st29" d="M185.5,375l39.3-3.6c0.2,0,0.4,0,0.7,0l-39.3,3.6C185.9,375,185.7,375,185.5,375"/>
					<path class="st28" d="M186.2,375l39.3-3.6c0,0,0.1,0,0.1,0L186.2,375C186.2,375,186.2,375,186.2,375"/>
					<path class="st29" d="M186.3,375l39.3-3.6c0.1,0,0.3,0,0.4,0l-39.3,3.6C186.5,375,186.4,375,186.3,375"/>
				</g>
			</g>
			<g class="st0">
				<defs>
					<path id="SVGID_00000160178220899271609960000002092329839947237512_" class="st0" d="M184.6,307.6l39.3-3.6
						c-2.8,0.3-5.4,1.1-8.1,2l-39.3,3.6C179.2,308.7,181.8,307.8,184.6,307.6z"/>
				</defs>
				<clipPath id="SVGID_00000165235519015736511800000016726172409845399439_">
					<use xlink:href="#SVGID_00000160178220899271609960000002092329839947237512_"  style="overflow:visible;"/>
				</clipPath>
				<g style="clip-path:url(#SVGID_00000165235519015736511800000016726172409845399439_);enable-background:new    ;">
					<path class="st26" d="M184.6,307.6l39.3-3.6c-2.8,0.3-5.4,1.1-8.1,2l-39.3,3.6C179.2,308.7,181.8,307.8,184.6,307.6"/>
				</g>
			</g>
			<g class="st0">
				<defs>
					<path id="SVGID_00000111871375017244684330000008876112449444888963_" class="st0" d="M187.8,306.8l39.3-3.6
						c-0.5,0-0.8,0.3-1.1,0.7l-39.3,3.6C187,307.1,187.3,306.9,187.8,306.8z"/>
				</defs>
				<clipPath id="SVGID_00000119820788551641138150000007365122548487477949_">
					<use xlink:href="#SVGID_00000111871375017244684330000008876112449444888963_"  style="overflow:visible;"/>
				</clipPath>
				<g style="clip-path:url(#SVGID_00000119820788551641138150000007365122548487477949_);enable-background:new    ;">
					<path class="st26" d="M187.8,306.8l39.3-3.6c-0.4,0-0.6,0.2-0.8,0.4l-39.3,3.6C187.2,307,187.4,306.9,187.8,306.8"/>
					<path class="st27" d="M186.9,307.2l39.3-3.6c0,0-0.1,0.1-0.1,0.1l-39.3,3.6C186.9,307.3,186.9,307.2,186.9,307.2"/>
					<path class="st28" d="M186.8,307.3l39.3-3.6c0,0-0.1,0.1-0.1,0.1l-39.3,3.6C186.8,307.4,186.8,307.4,186.8,307.3"/>
					<path class="st29" d="M186.7,307.5l39.3-3.6c0,0,0,0,0,0L186.7,307.5C186.7,307.5,186.7,307.5,186.7,307.5"/>
				</g>
			</g>
			<g class="st0">
				<defs>
					<path id="SVGID_00000104688329606143935900000001481569112660994440_" class="st0" d="M186.7,375l39.3-3.6
						c2.5,1.4,5,2.8,7.7,3.1c0.3,0,0.6,0.1,0.9,0.1l-39.3,3.6c-0.3,0-0.6,0-0.9-0.1C191.7,377.8,189.2,376.4,186.7,375z"/>
				</defs>
				<clipPath id="SVGID_00000023990634405292198390000015592935434692299925_">
					<use xlink:href="#SVGID_00000104688329606143935900000001481569112660994440_"  style="overflow:visible;"/>
				</clipPath>
				<g style="clip-path:url(#SVGID_00000023990634405292198390000015592935434692299925_);enable-background:new    ;">
					<path class="st15" d="M186.7,375l39.3-3.6c0.9,0.5,1.9,1.1,2.9,1.5l-39.3,3.6C188.5,376.1,187.6,375.5,186.7,375"/>
					<path class="st17" d="M189.5,376.5l39.3-3.6c0.4,0.2,0.8,0.4,1.2,0.6l-39.3,3.6C190.3,376.9,189.9,376.7,189.5,376.5"/>
					<path class="st18" d="M190.7,377.1l39.3-3.6c0.3,0.1,0.6,0.3,1,0.4l-39.3,3.6C191.4,377.4,191.1,377.3,190.7,377.1"/>
					<path class="st19" d="M191.7,377.5l39.3-3.6c0.3,0.1,0.5,0.2,0.8,0.3l-39.3,3.6C192.2,377.7,192,377.6,191.7,377.5"/>
					<path class="st21" d="M192.5,377.8l39.3-3.6c0.3,0.1,0.5,0.1,0.8,0.2l-39.3,3.6C193,377.9,192.8,377.8,192.5,377.8"/>
					<path class="st22" d="M193.3,378l39.3-3.6c0.2,0.1,0.5,0.1,0.7,0.1l-39.3,3.6C193.8,378.1,193.5,378,193.3,378"/>
					<path class="st23" d="M194,378.1l39.3-3.6c0.1,0,0.2,0,0.4,0c0.1,0,0.3,0,0.4,0l-39.3,3.6c-0.1,0-0.3,0-0.4,0
						C194.2,378.1,194.1,378.1,194,378.1"/>
					<path class="st29" d="M194.7,378.2l39.3-3.6c0.2,0,0.4,0,0.6,0l-39.3,3.6C195.1,378.2,194.9,378.2,194.7,378.2"/>
				</g>
			</g>
			<g class="st0">
				<defs>
					<path id="SVGID_00000050636616975994722340000017802233612176415666_" class="st0" d="M195.3,378.2l39.3-3.6
						c0.4,0.8,1,1.1,1.6,1.1l-39.3,3.6C196.3,379.3,195.7,379,195.3,378.2z"/>
				</defs>
				<clipPath id="SVGID_00000065774769334020182140000016337030964875505036_">
					<use xlink:href="#SVGID_00000050636616975994722340000017802233612176415666_"  style="overflow:visible;"/>
				</clipPath>
				<g style="clip-path:url(#SVGID_00000065774769334020182140000016337030964875505036_);enable-background:new    ;">
					<path class="st2" d="M195.3,378.2l39.3-3.6c0,0,0,0,0,0.1L195.3,378.2C195.3,378.3,195.3,378.2,195.3,378.2"/>
					<path class="st4" d="M195.3,378.3l39.3-3.6c0,0.1,0.1,0.1,0.1,0.2l-39.3,3.6C195.4,378.4,195.4,378.3,195.3,378.3"/>
					<path class="st5" d="M195.4,378.5l39.3-3.6c0,0,0.1,0.1,0.1,0.1l-39.3,3.6C195.5,378.5,195.5,378.5,195.4,378.5"/>
					<path class="st6" d="M195.5,378.6l39.3-3.6c0,0,0.1,0.1,0.1,0.1l-39.3,3.6C195.6,378.7,195.6,378.6,195.5,378.6"/>
					<path class="st7" d="M195.6,378.7l39.3-3.6c0,0,0.1,0.1,0.1,0.1L195.6,378.7C195.7,378.7,195.6,378.7,195.6,378.7"/>
					<path class="st8" d="M195.7,378.8l39.3-3.6c0,0,0,0.1,0.1,0.1L195.7,378.8C195.8,378.8,195.7,378.8,195.7,378.8"/>
					<path class="st9" d="M195.8,378.8l39.3-3.6c0,0,0,0,0.1,0.1L195.8,378.8C195.8,378.9,195.8,378.9,195.8,378.8"/>
					<path class="st10" d="M195.8,378.9l39.3-3.6c0,0,0,0,0.1,0.1L195.8,378.9C195.9,379,195.9,378.9,195.8,378.9"/>
					<path class="st11" d="M195.9,379l39.3-3.6c0,0,0,0,0.1,0.1L195.9,379C196,379,195.9,379,195.9,379"/>
					<path class="st12" d="M196,379l39.3-3.6c0,0,0,0,0.1,0.1L196,379C196,379.1,196,379,196,379"/>
					<path class="st14" d="M196.1,379.1l39.3-3.6c0,0,0.1,0,0.1,0L196.1,379.1C196.1,379.1,196.1,379.1,196.1,379.1"/>
					<path class="st15" d="M196.1,379.1l39.3-3.6c0,0,0.1,0,0.1,0L196.1,379.1C196.2,379.2,196.2,379.1,196.1,379.1"/>
					<path class="st17" d="M196.2,379.2l39.3-3.6c0,0,0.1,0,0.1,0L196.2,379.2C196.3,379.2,196.3,379.2,196.2,379.2"/>
					<path class="st18" d="M196.3,379.2l39.3-3.6c0,0,0.1,0,0.1,0L196.3,379.2C196.4,379.2,196.3,379.2,196.3,379.2"/>
					<path class="st19" d="M196.4,379.2l39.3-3.6c0,0,0.1,0,0.1,0l-39.3,3.6C196.5,379.3,196.4,379.3,196.4,379.2"/>
					<path class="st21" d="M196.5,379.3l39.3-3.6c0,0,0.1,0,0.1,0l-39.3,3.6C196.6,379.3,196.6,379.3,196.5,379.3"/>
					<path class="st22" d="M196.6,379.3l39.3-3.6c0,0,0.1,0,0.1,0l-39.3,3.6C196.7,379.3,196.7,379.3,196.6,379.3"/>
					<path class="st23" d="M196.8,379.3l39.3-3.6c0,0,0.1,0,0.1,0L196.8,379.3C196.8,379.3,196.8,379.3,196.8,379.3"/>
				</g>
			</g>
			<g class="st0">
				<defs>
					<path id="SVGID_00000026154529303105575870000002894248201499968942_" class="st0" d="M192.3,306.3l39.3-3.6
						c-1.3,0.1-2.3,0.5-3.3,0.7L189,307C190.1,306.8,191.1,306.4,192.3,306.3z"/>
				</defs>
				<clipPath id="SVGID_00000053547174801426061380000005210368467168383911_">
					<use xlink:href="#SVGID_00000026154529303105575870000002894248201499968942_"  style="overflow:visible;"/>
				</clipPath>
				<g style="clip-path:url(#SVGID_00000053547174801426061380000005210368467168383911_);enable-background:new    ;">
					<path class="st26" d="M192.3,306.3l39.3-3.6c-1.3,0.1-2.3,0.5-3.3,0.7L189,307C190.1,306.8,191.1,306.4,192.3,306.3"/>
				</g>
			</g>
			<g class="st0">
				<defs>
					<path id="SVGID_00000057136497829877557460000004311864837196537786_" class="st0" d="M235.8,293.9l-39.3,3.6
						c-1.7,0.2-3.4,0.3-5.1,0.3l39.3-3.6C232.4,294.1,234.1,294,235.8,293.9z"/>
				</defs>
				<clipPath id="SVGID_00000109717947179025670970000017653550862339901323_">
					<use xlink:href="#SVGID_00000057136497829877557460000004311864837196537786_"  style="overflow:visible;"/>
				</clipPath>
				<g style="clip-path:url(#SVGID_00000109717947179025670970000017653550862339901323_);enable-background:new    ;">
					<path class="st28" d="M191.3,297.7l39.3-3.6c1.7,0,3.4-0.1,5.1-0.3l-39.3,3.6C194.7,297.6,193,297.7,191.3,297.7"/>
				</g>
			</g>
			<g class="st0">
				<defs>
					<path id="SVGID_00000134231796439992595310000005108799034967375270_" class="st0" d="M206.9,304.3l39.3-3.6
						c-4.3,0.4-8.6,1-12.8,2l-39.3,3.6C198.3,305.3,202.6,304.7,206.9,304.3z"/>
				</defs>
				<clipPath id="SVGID_00000143576420399003404080000015306557710070359179_">
					<use xlink:href="#SVGID_00000134231796439992595310000005108799034967375270_"  style="overflow:visible;"/>
				</clipPath>
				<g style="clip-path:url(#SVGID_00000143576420399003404080000015306557710070359179_);enable-background:new    ;">
					<path class="st26" d="M206.9,304.3l39.3-3.6c-4.3,0.4-8.6,1-12.8,2l-39.3,3.6C198.3,305.3,202.6,304.7,206.9,304.3"/>
				</g>
			</g>
			<g class="st0">
				<defs>
					<path id="SVGID_00000092440033898757052220000014853086323579614902_" class="st0" d="M196.9,379.4l39.3-3.6
						c7.4,2.7,14.1,5.4,21,6.6l-39.3,3.6C211,384.8,204.3,382,196.9,379.4z"/>
				</defs>
				<clipPath id="SVGID_00000021816200868303577190000000755419801568763524_">
					<use xlink:href="#SVGID_00000092440033898757052220000014853086323579614902_"  style="overflow:visible;"/>
				</clipPath>
				<g style="clip-path:url(#SVGID_00000021816200868303577190000000755419801568763524_);enable-background:new    ;">
					<path class="st18" d="M196.9,379.4l39.3-3.6c2.2,0.8,4.4,1.6,6.5,2.4l-39.3,3.6C201.3,381,199.1,380.2,196.9,379.4"/>
					<path class="st19" d="M203.4,381.7l39.3-3.6c2.6,0.9,5.1,1.8,7.7,2.6l-39.3,3.6C208.5,383.6,206,382.7,203.4,381.7"/>
					<path class="st21" d="M211.1,384.3l39.3-3.6c1.4,0.4,2.8,0.8,4.2,1.1l-39.3,3.6C213.9,385.1,212.5,384.7,211.1,384.3"/>
					<path class="st22" d="M215.3,385.4l39.3-3.6c0.9,0.2,1.8,0.4,2.6,0.5l-39.3,3.6C217,385.8,216.1,385.6,215.3,385.4"/>
				</g>
			</g>
			<g class="st0">
				<defs>
					<path id="SVGID_00000169524200295628323390000014899182193377525409_" class="st0" d="M222.3,303l39.3-3.6
						c-2.1,0.2-4.2,0.4-6.2,0.8l-39.3,3.6C218.2,303.4,220.2,303.2,222.3,303z"/>
				</defs>
				<clipPath id="SVGID_00000023248043341922228820000003234960532592055725_">
					<use xlink:href="#SVGID_00000169524200295628323390000014899182193377525409_"  style="overflow:visible;"/>
				</clipPath>
				<g style="clip-path:url(#SVGID_00000023248043341922228820000003234960532592055725_);enable-background:new    ;">
					<path class="st26" d="M222.3,303l39.3-3.6c-2.1,0.2-4.2,0.4-6.2,0.8l-39.3,3.6C218.2,303.4,220.2,303.2,222.3,303"/>
				</g>
			</g>
			<g class="st0">
				<defs>
					<path id="SVGID_00000037656429289883717170000010894499374299912588_" class="st0" d="M317.6,290.6l-39.3,3.6
						c-1.2,0.1-2.8,0.1-4.9,0c-15.9-0.1-31.7-0.4-47.5,0.4c-6.1,0.4-12.2,0.8-18.2,1.1l39.3-3.6c6.1-0.4,12.1-0.8,18.2-1.1
						c15.8-0.7,31.7-0.5,47.5-0.4C314.8,290.6,316.4,290.7,317.6,290.6z"/>
				</defs>
				<clipPath id="SVGID_00000060748105265091496520000011560137676687875713_">
					<use xlink:href="#SVGID_00000037656429289883717170000010894499374299912588_"  style="overflow:visible;"/>
				</clipPath>
				<g style="clip-path:url(#SVGID_00000060748105265091496520000011560137676687875713_);enable-background:new    ;">
					<path class="st28" d="M207.6,295.7l39.3-3.6c6.1-0.4,12.1-0.8,18.2-1.1c5.7-0.3,11.4-0.4,17.1-0.5l-39.3,3.6
						c-5.7,0.1-11.4,0.2-17.1,0.5C219.7,294.9,213.6,295.3,207.6,295.7"/>
					<path class="st29" d="M242.9,294.1l39.3-3.6c10.1-0.1,20.3,0,30.4,0.1c1.4,0,2.5,0.1,3.5,0.1l-39.3,3.6c-1,0-2.1,0-3.5-0.1
						C263.2,294.1,253.1,294,242.9,294.1"/>
					<path class="st28" d="M276.8,294.2l39.3-3.6c0.5,0,1,0,1.4-0.1l-39.3,3.6C277.8,294.2,277.4,294.2,276.8,294.2"/>
				</g>
			</g>
			<g class="st0">
				<defs>
					<path id="SVGID_00000094592942323156730080000002401690665110832779_" class="st0" d="M397.4,649.4L358,653
						c0.8-0.1,1.5-0.3,2.4-0.9l39.3-3.6C398.9,649.1,398.1,649.3,397.4,649.4z"/>
				</defs>
				<clipPath id="SVGID_00000165208680024867140710000002832523480172205712_">
					<use xlink:href="#SVGID_00000094592942323156730080000002401690665110832779_"  style="overflow:visible;"/>
				</clipPath>
				<g style="clip-path:url(#SVGID_00000165208680024867140710000002832523480172205712_);enable-background:new    ;">
					<path class="st26" d="M360.4,652.1l39.3-3.6c-0.8,0.6-1.6,0.9-2.4,0.9L358,653C358.8,652.9,359.6,652.7,360.4,652.1"/>
				</g>
			</g>
			<g class="st0">
				<defs>
					<path id="SVGID_00000165943174882998683890000014405377125813602470_" class="st0" d="M360.4,645.9l39.3-3.6c0,2,0,4.1,0,6.1
						l-39.3,3.6C360.4,650,360.3,648,360.4,645.9z"/>
				</defs>
				<clipPath id="SVGID_00000089561453819593327890000000599830866997743019_">
					<use xlink:href="#SVGID_00000165943174882998683890000014405377125813602470_"  style="overflow:visible;"/>
				</clipPath>
				<g style="clip-path:url(#SVGID_00000089561453819593327890000000599830866997743019_);enable-background:new    ;">
					<path class="st6" d="M360.4,645.9l39.3-3.6c0,2,0,4.1,0,6.1l-39.3,3.6C360.4,650,360.3,648,360.4,645.9"/>
				</g>
			</g>
			<g class="st0">
				<defs>
					<path id="SVGID_00000060032012242767380010000010218034296631514799_" class="st0" d="M342.8,389.4l39.3-3.6
						c-0.6,0.1-1.2,0.2-1.8,0.3l-39.3,3.6C341.6,389.6,342.2,389.5,342.8,389.4z"/>
				</defs>
				<clipPath id="SVGID_00000000212263084070007270000012217784060975377572_">
					<use xlink:href="#SVGID_00000060032012242767380010000010218034296631514799_"  style="overflow:visible;"/>
				</clipPath>
				<g style="clip-path:url(#SVGID_00000000212263084070007270000012217784060975377572_);enable-background:new    ;">
					<path class="st26" d="M342.8,389.4l39.3-3.6c-0.6,0.1-1.2,0.2-1.8,0.3l-39.3,3.6C341.6,389.6,342.2,389.5,342.8,389.4"/>
				</g>
			</g>
			<g>
				<polygon class="st50" points="363.1,436.4 402.5,432.8 399.7,642.3 360.4,645.9 				"/>
			</g>
			<g class="st0">
				<defs>
					<path id="SVGID_00000013915027673316907000000010306030075085239169_" class="st0" d="M364,429.4l39.3-3.6
						c-0.7,2.9-0.8,4.9-0.9,7l-39.3,3.6C363.2,434.4,363.3,432.3,364,429.4z"/>
				</defs>
				<clipPath id="SVGID_00000165234633136111062220000011314362213932586626_">
					<use xlink:href="#SVGID_00000013915027673316907000000010306030075085239169_"  style="overflow:visible;"/>
				</clipPath>
				<g style="clip-path:url(#SVGID_00000165234633136111062220000011314362213932586626_);enable-background:new    ;">
					<path class="st14" d="M364,429.4l39.3-3.6c-0.1,0.2-0.1,0.4-0.1,0.6l-39.3,3.6C363.9,429.9,364,429.7,364,429.4"/>
					<path class="st12" d="M363.9,430l39.3-3.6c-0.1,0.3-0.2,0.7-0.2,1l-39.3,3.6C363.7,430.7,363.8,430.4,363.9,430"/>
					<path class="st11" d="M363.7,431l39.3-3.6c-0.1,0.3-0.1,0.6-0.2,0.9l-39.3,3.6C363.5,431.6,363.6,431.3,363.7,431"/>
					<path class="st10" d="M363.5,431.9l39.3-3.6c0,0.3-0.1,0.6-0.1,0.9l-39.3,3.6C363.4,432.5,363.4,432.2,363.5,431.9"/>
					<path class="st9" d="M363.4,432.8l39.3-3.6c0,0.3-0.1,0.6-0.1,0.9l-39.3,3.6C363.3,433.4,363.3,433.1,363.4,432.8"/>
					<path class="st8" d="M363.3,433.7l39.3-3.6c0,0.3-0.1,0.7-0.1,1l-39.3,3.6C363.2,434.3,363.2,434,363.3,433.7"/>
					<path class="st7" d="M363.2,434.6l39.3-3.6c0,0.5,0,0.9-0.1,1.4l-39.3,3.6C363.2,435.6,363.2,435.1,363.2,434.6"/>
					<path class="st6" d="M363.2,436l39.3-3.6c0,0.1,0,0.2,0,0.4l-39.3,3.6C363.1,436.3,363.2,436.2,363.2,436"/>
				</g>
			</g>
			<g class="st0">
				<defs>
					<path id="SVGID_00000115504379047733317520000009890839010465406395_" class="st0" d="M366.8,312.9l39.3-3.6
						c-1.7,0.2-2.1,1.4-2.1,4.4c-0.1,21.8-0.5,43.6-0.8,65.4c-0.1,7.3-0.1,7.1-5.2,7.6l-39.3,3.6c5-0.5,5.1-0.3,5.2-7.6
						c0.3-21.8,0.6-43.6,0.8-65.4C364.7,314.3,365.1,313,366.8,312.9z"/>
				</defs>
				<clipPath id="SVGID_00000068668545691836862050000005029176211664294276_">
					<use xlink:href="#SVGID_00000115504379047733317520000009890839010465406395_"  style="overflow:visible;"/>
				</clipPath>
				<g style="clip-path:url(#SVGID_00000068668545691836862050000005029176211664294276_);enable-background:new    ;">
					<path class="st26" d="M366.8,312.9l39.3-3.6c-0.6,0.1-1,0.2-1.3,0.5l-39.3,3.6C365.8,313.1,366.2,312.9,366.8,312.9"/>
					<path class="st27" d="M365.5,313.4l39.3-3.6c0,0-0.1,0.1-0.1,0.1l-39.3,3.6C365.4,313.5,365.5,313.5,365.5,313.4"/>
					<path class="st28" d="M365.4,313.5l39.3-3.6c0,0-0.1,0.1-0.1,0.1l-39.3,3.6C365.3,313.6,365.4,313.6,365.4,313.5"/>
					<path class="st29" d="M365.3,313.6l39.3-3.6c0,0,0,0.1-0.1,0.1L365.3,313.6C365.3,313.7,365.3,313.7,365.3,313.6"/>
					<path class="st23" d="M365.2,313.7l39.3-3.6c0,0,0,0.1-0.1,0.1l-39.3,3.6C365.2,313.8,365.2,313.8,365.2,313.7"/>
					<path class="st22" d="M365.2,313.8l39.3-3.6c0,0,0,0.1-0.1,0.1L365.2,313.8C365.1,313.9,365.2,313.9,365.2,313.8"/>
					<path class="st21" d="M365.1,313.9l39.3-3.6c0,0,0,0.1,0,0.1l-39.3,3.6C365.1,314,365.1,314,365.1,313.9"/>
					<path class="st19" d="M365.1,314l39.3-3.6c0,0,0,0.1,0,0.1l-39.3,3.6C365,314.1,365.1,314.1,365.1,314"/>
					<path class="st18" d="M365,314.1l39.3-3.6c0,0,0,0.1,0,0.1l-39.3,3.6C365,314.2,365,314.2,365,314.1"/>
					<path class="st17" d="M365,314.3l39.3-3.6c0,0,0,0.1,0,0.1l-39.3,3.6C365,314.3,365,314.3,365,314.3"/>
					<path class="st15" d="M364.9,314.4l39.3-3.6c0,0,0,0.1,0,0.1l-39.3,3.6C364.9,314.5,364.9,314.4,364.9,314.4"/>
					<path class="st14" d="M364.9,314.5l39.3-3.6c0,0,0,0.1,0,0.1l-39.3,3.6C364.9,314.6,364.9,314.6,364.9,314.5"/>
					<path class="st12" d="M364.9,314.7l39.3-3.6c0,0.1,0,0.1,0,0.2l-39.3,3.6C364.8,314.8,364.9,314.7,364.9,314.7"/>
					<path class="st11" d="M364.8,314.9l39.3-3.6c0,0.1,0,0.1,0,0.2l-39.3,3.6C364.8,315,364.8,314.9,364.8,314.9"/>
					<path class="st10" d="M364.8,315.1l39.3-3.6c0,0.1,0,0.2,0,0.3l-39.3,3.6C364.8,315.2,364.8,315.1,364.8,315.1"/>
					<path class="st9" d="M364.8,315.3l39.3-3.6c0,0.1,0,0.2,0,0.3l-39.3,3.6C364.7,315.5,364.7,315.4,364.8,315.3"/>
					<path class="st8" d="M364.7,315.7l39.3-3.6c0,0.1,0,0.3,0,0.5l-39.3,3.6C364.7,316,364.7,315.8,364.7,315.7"/>
					<path class="st7" d="M364.7,316.1l39.3-3.6c0,0.2,0,0.5,0,0.8l-39.3,3.6C364.7,316.6,364.7,316.4,364.7,316.1"/>
					<path class="st6" d="M364.7,316.9l39.3-3.6c0,0.1,0,0.2,0,0.4c-0.1,21.8-0.5,43.6-0.8,65.4c0,0.5,0,1,0,1.5l-39.3,3.6
						c0-0.5,0-1,0-1.5c0.3-21.8,0.6-43.6,0.8-65.4C364.7,317.1,364.7,317,364.7,316.9"/>
					<path class="st7" d="M363.8,384.1l39.3-3.6c0,0.7,0,1.4-0.1,2l-39.3,3.6C363.8,385.5,363.8,384.9,363.8,384.1"/>
					<path class="st8" d="M363.8,386.1l39.3-3.6c0,0.3,0,0.5-0.1,0.7l-39.3,3.6C363.7,386.6,363.8,386.3,363.8,386.1"/>
					<path class="st9" d="M363.7,386.8l39.3-3.6c0,0.1,0,0.3,0,0.4l-39.3,3.6C363.7,387.1,363.7,386.9,363.7,386.8"/>
					<path class="st10" d="M363.7,387.2l39.3-3.6c0,0.1,0,0.2,0,0.3l-39.3,3.6C363.7,387.4,363.7,387.3,363.7,387.2"/>
					<path class="st11" d="M363.6,387.5l39.3-3.6c0,0.1,0,0.2,0,0.2l-39.3,3.6C363.6,387.7,363.6,387.6,363.6,387.5"/>
					<path class="st12" d="M363.6,387.8l39.3-3.6c0,0.1,0,0.1,0,0.2l-39.3,3.6C363.6,387.9,363.6,387.8,363.6,387.8"/>
					<path class="st14" d="M363.6,388l39.3-3.6c0,0.1,0,0.1,0,0.2l-39.3,3.6C363.5,388.1,363.5,388,363.6,388"/>
					<path class="st15" d="M363.5,388.1l39.3-3.6c0,0.1,0,0.1,0,0.1l-39.3,3.6C363.5,388.2,363.5,388.2,363.5,388.1"/>
					<path class="st17" d="M363.5,388.3l39.3-3.6c0,0,0,0.1,0,0.1l-39.3,3.6C363.4,388.3,363.5,388.3,363.5,388.3"/>
					<path class="st18" d="M363.4,388.4l39.3-3.6c0,0,0,0.1,0,0.1l-39.3,3.6C363.4,388.5,363.4,388.4,363.4,388.4"/>
					<path class="st19" d="M363.4,388.5l39.3-3.6c0,0,0,0.1,0,0.1l-39.3,3.6C363.4,388.6,363.4,388.5,363.4,388.5"/>
					<path class="st21" d="M363.3,388.6l39.3-3.6c0,0,0,0.1,0,0.1l-39.3,3.6C363.3,388.7,363.3,388.6,363.3,388.6"/>
					<path class="st22" d="M363.3,388.7l39.3-3.6c0,0,0,0.1-0.1,0.1l-39.3,3.6C363.3,388.8,363.3,388.7,363.3,388.7"/>
					<path class="st23" d="M363.2,388.8l39.3-3.6c0,0,0,0.1-0.1,0.1L363.2,388.8C363.2,388.9,363.2,388.8,363.2,388.8"/>
					<path class="st29" d="M363.2,388.9l39.3-3.6c0,0,0,0.1-0.1,0.1L363.2,388.9C363.1,389,363.2,388.9,363.2,388.9"/>
					<path class="st28" d="M363.1,389l39.3-3.6c0,0-0.1,0.1-0.1,0.1l-39.3,3.6C363.1,389.1,363.1,389.1,363.1,389"/>
					<path class="st27" d="M363,389.1l39.3-3.6c0,0-0.1,0.1-0.1,0.1l-39.3,3.6C363,389.2,363,389.2,363,389.1"/>
					<path class="st26" d="M362.9,389.2l39.3-3.6c-0.7,0.7-2,0.8-4.2,1l-39.3,3.6C361,390,362.2,389.9,362.9,389.2"/>
				</g>
			</g>
			<g class="st0">
				<defs>
					<path id="SVGID_00000099638623367796843140000011524676472327942540_" class="st0" d="M217.9,385.9l39.3-3.6
						c3.8,2,7.9,2.5,11.8,3.6c25.5,7.5,51.2,11.7,76.9,15.5c5.9,0.9,11.7,1.6,17.6,2.3c9.7,1.1,19.3,2,29,2.5
						c9.1,0.5,18.2,1.5,27.2,1l-39.3,3.6c-9.1,0.5-18.1-0.5-27.2-1c-9.7-0.5-19.3-1.3-29-2.5c-5.9-0.7-11.7-1.5-17.6-2.3
						c-25.7-3.8-51.4-8-76.9-15.5C225.8,388.4,221.8,387.9,217.9,385.9z"/>
				</defs>
				<clipPath id="SVGID_00000143602903394246750440000011252986908264125840_">
					<use xlink:href="#SVGID_00000099638623367796843140000011524676472327942540_"  style="overflow:visible;"/>
				</clipPath>
				<g style="clip-path:url(#SVGID_00000143602903394246750440000011252986908264125840_);enable-background:new    ;">
					<path class="st15" d="M217.9,385.9l39.3-3.6c0.1,0.1,0.2,0.1,0.3,0.2l-39.3,3.6C218.1,386,218,386,217.9,385.9"/>
					<path class="st17" d="M218.2,386.1l39.3-3.6c0.3,0.2,0.7,0.3,1,0.5l-39.3,3.6C218.9,386.4,218.6,386.3,218.2,386.1"/>
					<path class="st18" d="M219.3,386.6l39.3-3.6c0.4,0.2,0.8,0.3,1.3,0.5l-39.3,3.6C220.1,386.9,219.7,386.8,219.3,386.6"/>
					<path class="st19" d="M220.5,387.1l39.3-3.6c0.6,0.2,1.2,0.4,1.7,0.6l-39.3,3.6C221.7,387.5,221.1,387.3,220.5,387.1"/>
					<path class="st21" d="M222.3,387.6l39.3-3.6c2.5,0.7,5,1.2,7.4,1.9c7.8,2.3,15.6,4.3,23.4,6l-39.3,3.6
						c-7.8-1.8-15.6-3.7-23.4-6C227.2,388.8,224.7,388.4,222.3,387.6"/>
					<path class="st22" d="M253.1,395.6l39.3-3.6c14.8,3.3,29.6,5.8,44.4,8.1l-39.3,3.6C282.6,401.4,267.8,398.9,253.1,395.6"/>
					<path class="st23" d="M297.5,403.7l39.3-3.6c3.1,0.5,6.1,0.9,9.2,1.4c5.9,0.9,11.7,1.6,17.6,2.3c6.4,0.7,12.8,1.4,19.2,1.8
						l-39.3,3.6c-6.4-0.5-12.8-1.1-19.2-1.8c-5.9-0.7-11.7-1.5-17.6-2.3C303.6,404.6,300.5,404.1,297.5,403.7"/>
					<path class="st29" d="M343.4,409.2l39.3-3.6c3.3,0.2,6.5,0.5,9.8,0.6c7.8,0.4,15.6,1.2,23.4,1.1l-39.3,3.6
						c-7.8,0.1-15.6-0.7-23.4-1.1C349.9,409.6,346.7,409.4,343.4,409.2"/>
					<path class="st28" d="M376.6,410.9l39.3-3.6c1.3,0,2.6-0.1,3.9-0.1l-39.3,3.6C379.1,410.9,377.9,410.9,376.6,410.9"/>
				</g>
			</g>
			<g class="st0">
				<defs>
					<path id="SVGID_00000152236686037681006750000009344854559757687999_" class="st0" d="M365.9,235.1l39.3-3.6
						c-0.2,8.5-0.4,16.9-0.5,25.3c-0.1,14.4-0.2,28.7-0.3,43.1l-39.3,3.6c0.1-14.3,0.2-28.7,0.3-43.1
						C365.5,251.9,365.7,243.5,365.9,235.1z"/>
				</defs>
				<clipPath id="SVGID_00000091016117569695339010000010035252433926463638_">
					<use xlink:href="#SVGID_00000152236686037681006750000009344854559757687999_"  style="overflow:visible;"/>
				</clipPath>
				<g style="clip-path:url(#SVGID_00000091016117569695339010000010035252433926463638_);enable-background:new    ;">
					<path class="st6" d="M365.9,235.1l39.3-3.6c0,0.4,0,0.8,0,1.1l-39.3,3.6C365.9,235.8,365.9,235.4,365.9,235.1"/>
					<path class="st7" d="M365.9,236.2l39.3-3.6c-0.1,4.7-0.2,9.4-0.3,14.1l-39.3,3.6C365.7,245.6,365.8,240.9,365.9,236.2"/>
					<path class="st6" d="M365.6,250.3l39.3-3.6c-0.1,3.4-0.1,6.8-0.2,10.1c-0.1,14.4-0.2,28.7-0.3,43.1l-39.3,3.6
						c0.1-14.3,0.2-28.7,0.3-43.1C365.5,257,365.5,253.6,365.6,250.3"/>
				</g>
			</g>
			<g class="st0">
				<defs>
					<path id="SVGID_00000034769289811448421290000014644169641885092262_" class="st0" d="M367.3,234l39.3-3.6
						c-0.5,0-1,0.3-1.5,1.1l-39.3,3.6C366.3,234.3,366.8,234,367.3,234z"/>
				</defs>
				<clipPath id="SVGID_00000095304592260868357250000014710873859966183848_">
					<use xlink:href="#SVGID_00000034769289811448421290000014644169641885092262_"  style="overflow:visible;"/>
				</clipPath>
				<g style="clip-path:url(#SVGID_00000095304592260868357250000014710873859966183848_);enable-background:new    ;">
					<path class="st26" d="M367.3,234l39.3-3.6c-0.4,0-0.7,0.2-1,0.5l-39.3,3.6C366.6,234.2,367,234,367.3,234"/>
					<path class="st27" d="M366.3,234.5l39.3-3.6c-0.1,0.1-0.1,0.1-0.2,0.2l-39.3,3.6C366.2,234.6,366.3,234.5,366.3,234.5"/>
					<path class="st28" d="M366.2,234.6l39.3-3.6c0,0-0.1,0.1-0.1,0.2l-39.3,3.6C366.1,234.7,366.1,234.7,366.2,234.6"/>
					<path class="st29" d="M366.1,234.8l39.3-3.6c0,0.1-0.1,0.1-0.1,0.2l-39.3,3.6C366,234.9,366,234.9,366.1,234.8"/>
					<path class="st23" d="M365.9,235l39.3-3.6c0,0,0,0.1-0.1,0.1L365.9,235C365.9,235,365.9,235,365.9,235"/>
				</g>
			</g>
			<g class="st0">
				<defs>
					<path id="SVGID_00000010292698295097346370000004889364499017493673_" class="st0" d="M380.4,410.8l39.3-3.6
						c1.2,0.1,2.4,0.2,3.6,0.2L384,411C382.8,410.9,381.6,410.9,380.4,410.8z"/>
				</defs>
				<clipPath id="SVGID_00000129906838324547296120000001646877174414763186_">
					<use xlink:href="#SVGID_00000010292698295097346370000004889364499017493673_"  style="overflow:visible;"/>
				</clipPath>
				<g style="clip-path:url(#SVGID_00000129906838324547296120000001646877174414763186_);enable-background:new    ;">
					<path class="st29" d="M380.4,410.8l39.3-3.6c1.2,0.1,2.4,0.2,3.6,0.2L384,411C382.8,410.9,381.6,410.9,380.4,410.8"/>
				</g>
			</g>
			<g class="st0">
				<defs>
					<path id="SVGID_00000031912992803166033570000015080805263441674907_" class="st0" d="M402.7,429.9l39.3-3.6
						c-0.5,0-1,0.2-1.5,0.6l-39.3,3.6C401.7,430.1,402.2,429.9,402.7,429.9z"/>
				</defs>
				<clipPath id="SVGID_00000106855101921638276320000015159229384008098488_">
					<use xlink:href="#SVGID_00000031912992803166033570000015080805263441674907_"  style="overflow:visible;"/>
				</clipPath>
				<g style="clip-path:url(#SVGID_00000106855101921638276320000015159229384008098488_);enable-background:new    ;">
					<path class="st26" d="M402.7,429.9l39.3-3.6c-0.5,0-1,0.2-1.5,0.6l-39.3,3.6C401.7,430.1,402.2,429.9,402.7,429.9"/>
				</g>
			</g>
			<g class="st0">
				<defs>
					<path id="SVGID_00000116920533560845875470000010285814857078341533_" class="st0" d="M365.1,303.5l39.3-3.6
						c2.1,1.6,4.3,2,6.6,2.2c2.7,0.3,3.7,0.4,4.7,0.7c7.8,2.1,15.7,3.4,23.5,5.1l-39.3,3.6c-7.8-1.6-15.7-2.9-23.5-5.1
						c-1-0.3-2.1-0.4-4.7-0.7C369.4,305.5,367.2,305.1,365.1,303.5z"/>
				</defs>
				<clipPath id="SVGID_00000023269316131949409890000003448935736859439512_">
					<use xlink:href="#SVGID_00000116920533560845875470000010285814857078341533_"  style="overflow:visible;"/>
				</clipPath>
				<g style="clip-path:url(#SVGID_00000023269316131949409890000003448935736859439512_);enable-background:new    ;">
					<path class="st11" d="M365.1,303.5l39.3-3.6c0.1,0.1,0.1,0.1,0.2,0.2l-39.3,3.6C365.3,303.6,365.2,303.5,365.1,303.5"/>
					<path class="st12" d="M365.3,303.7l39.3-3.6c0.1,0.1,0.3,0.2,0.4,0.3l-39.3,3.6C365.6,303.8,365.5,303.8,365.3,303.7"/>
					<path class="st14" d="M365.7,303.9l39.3-3.6c0.1,0.1,0.3,0.2,0.4,0.3l-39.3,3.6C366,304.1,365.9,304,365.7,303.9"/>
					<path class="st15" d="M366.2,304.2l39.3-3.6c0.2,0.1,0.3,0.2,0.5,0.2l-39.3,3.6C366.5,304.4,366.3,304.3,366.2,304.2"/>
					<path class="st17" d="M366.6,304.4l39.3-3.6c0.2,0.1,0.3,0.2,0.5,0.2l-39.3,3.6C367,304.6,366.8,304.5,366.6,304.4"/>
					<path class="st18" d="M367.1,304.7l39.3-3.6c0.2,0.1,0.4,0.2,0.6,0.2l-39.3,3.6C367.5,304.8,367.3,304.8,367.1,304.7"/>
					<path class="st19" d="M367.7,304.9l39.3-3.6c0.2,0.1,0.4,0.2,0.7,0.2l-39.3,3.6C368.2,305.1,367.9,305,367.7,304.9"/>
					<path class="st21" d="M368.4,305.1l39.3-3.6c0.3,0.1,0.6,0.2,0.8,0.2l-39.3,3.6C368.9,305.3,368.7,305.2,368.4,305.1"/>
					<path class="st22" d="M369.2,305.3l39.3-3.6c0.4,0.1,0.8,0.2,1.3,0.2l-39.3,3.6C370.1,305.5,369.6,305.4,369.2,305.3"/>
					<path class="st23" d="M370.5,305.6l39.3-3.6c0.4,0.1,0.8,0.1,1.2,0.2c1.4,0.2,2.3,0.3,3,0.4l-39.3,3.6c-0.7-0.1-1.7-0.2-3-0.4
						C371.3,305.7,370.9,305.6,370.5,305.6"/>
					<path class="st22" d="M374.7,306.1l39.3-3.6c0.5,0.1,0.8,0.1,1.2,0.2l-39.3,3.6C375.6,306.2,375.2,306.2,374.7,306.1"/>
					<path class="st21" d="M375.9,306.3l39.3-3.6c0.2,0,0.3,0.1,0.5,0.1c2.1,0.6,4.1,1.1,6.2,1.5l-39.3,3.6c-2.1-0.5-4.1-1-6.2-1.5
						C376.3,306.4,376.1,306.4,375.9,306.3"/>
					<path class="st22" d="M382.6,308l39.3-3.6c5.8,1.3,11.6,2.3,17.4,3.5l-39.3,3.6C394.2,310.3,388.4,309.3,382.6,308"/>
				</g>
			</g>
			<g class="st0">
				<defs>
					<path id="SVGID_00000023964584822001308040000002164769520112386485_" class="st0" d="M400,311.5l39.3-3.6
						c0.9,0.2,1.9,0.3,2.8,0.5l-39.3,3.6C401.9,311.8,400.9,311.7,400,311.5z"/>
				</defs>
				<clipPath id="SVGID_00000016056100806010497030000003775513243820127924_">
					<use xlink:href="#SVGID_00000023964584822001308040000002164769520112386485_"  style="overflow:visible;"/>
				</clipPath>
				<g style="clip-path:url(#SVGID_00000016056100806010497030000003775513243820127924_);enable-background:new    ;">
					<path class="st22" d="M400,311.5l39.3-3.6c0.9,0.2,1.9,0.3,2.8,0.5l-39.3,3.6C401.9,311.8,400.9,311.7,400,311.5"/>
				</g>
			</g>
			<g class="st0">
				<defs>
					<path id="SVGID_00000108307456553015524160000017045994508140198819_" class="st0" d="M402.8,312l39.3-3.6
						c1.1,0.9,2.3,1.2,3.4,1.4c0.8,0.1,1.7,0.1,2.5,0.1l-39.3,3.6c-0.8,0-1.7,0-2.5-0.1C405.1,313.3,403.9,312.9,402.8,312z"/>
				</defs>
				<clipPath id="SVGID_00000108299073001426603660000012238031901774100923_">
					<use xlink:href="#SVGID_00000108307456553015524160000017045994508140198819_"  style="overflow:visible;"/>
				</clipPath>
				<g style="clip-path:url(#SVGID_00000108299073001426603660000012238031901774100923_);enable-background:new    ;">
					<path class="st10" d="M402.8,312l39.3-3.6c0,0,0.1,0.1,0.1,0.1l-39.3,3.6C402.9,312.1,402.8,312,402.8,312"/>
					<path class="st11" d="M402.9,312.1l39.3-3.6c0.1,0.1,0.2,0.1,0.2,0.2l-39.3,3.6C403.1,312.2,403,312.2,402.9,312.1"/>
					<path class="st12" d="M403.2,312.3l39.3-3.6c0.1,0.1,0.2,0.1,0.2,0.2l-39.3,3.6C403.3,312.4,403.2,312.3,403.2,312.3"/>
					<path class="st14" d="M403.4,312.5l39.3-3.6c0.1,0.1,0.2,0.1,0.3,0.2l-39.3,3.6C403.6,312.6,403.5,312.5,403.4,312.5"/>
					<path class="st15" d="M403.7,312.6L443,309c0.1,0.1,0.2,0.1,0.3,0.1l-39.3,3.6C403.8,312.7,403.7,312.7,403.7,312.6"/>
					<path class="st17" d="M403.9,312.7l39.3-3.6c0.1,0,0.2,0.1,0.3,0.1l-39.3,3.6C404.1,312.8,404,312.8,403.9,312.7"/>
					<path class="st18" d="M404.2,312.9l39.3-3.6c0.1,0,0.2,0.1,0.3,0.1l-39.3,3.6C404.4,313,404.3,312.9,404.2,312.9"/>
					<path class="st19" d="M404.5,313l39.3-3.6c0.1,0,0.2,0.1,0.4,0.1l-39.3,3.6C404.8,313.1,404.7,313,404.5,313"/>
					<path class="st21" d="M404.9,313.1l39.3-3.6c0.1,0,0.3,0.1,0.4,0.1l-39.3,3.6C405.2,313.2,405,313.2,404.9,313.1"/>
					<path class="st22" d="M405.3,313.2l39.3-3.6c0.2,0,0.4,0.1,0.6,0.1l-39.3,3.6C405.7,313.3,405.5,313.3,405.3,313.2"/>
					<path class="st23" d="M405.9,313.3l39.3-3.6c0.1,0,0.2,0,0.4,0c0.2,0,0.3,0,0.5,0l-39.3,3.6c-0.2,0-0.3,0-0.5,0
						C406.1,313.4,406,313.4,405.9,313.3"/>
					<path class="st29" d="M406.7,313.4l39.3-3.6c0.7,0.1,1.4,0.1,2,0.1l-39.3,3.6C408.1,313.5,407.4,313.5,406.7,313.4"/>
				</g>
			</g>
			<g class="st0">
				<defs>
					<path id="SVGID_00000165195641650660697340000002004201771385641404_" class="st0" d="M464.2,406.7l-39.3,3.6
						c-4.2,0.4-8.4,0.4-12.6,0.5c-9.4,0.1-18.8,0.2-28.3,0.2l39.3-3.6c9.4-0.1,18.9-0.1,28.3-0.2C455.8,407.1,460,407.1,464.2,406.7
						z"/>
				</defs>
				<clipPath id="SVGID_00000054248485535195419180000013262888108663519162_">
					<use xlink:href="#SVGID_00000165195641650660697340000002004201771385641404_"  style="overflow:visible;"/>
				</clipPath>
				<g style="clip-path:url(#SVGID_00000054248485535195419180000013262888108663519162_);enable-background:new    ;">
					<path class="st29" d="M384,411l39.3-3.6c8.1-0.1,16.2-0.1,24.4-0.2l-39.3,3.6C400.2,410.9,392.1,411,384,411"/>
					<path class="st28" d="M408.4,410.8l39.3-3.6c1.3,0,2.6,0,3.9,0c4.2-0.1,8.4-0.1,12.6-0.5l-39.3,3.6c-4.2,0.4-8.4,0.4-12.6,0.5
						C411,410.8,409.7,410.8,408.4,410.8"/>
				</g>
			</g>
			<g class="st0">
				<defs>
					<path id="SVGID_00000104700239325036310850000013543068612248507833_" class="st0" d="M408.8,313.5l39.3-3.6
						c4.6,1.5,9.1,3.3,13.8,3.8l-39.3,3.6C417.9,316.8,413.3,315,408.8,313.5z"/>
				</defs>
				<clipPath id="SVGID_00000029730651484080976730000017446655465786364592_">
					<use xlink:href="#SVGID_00000104700239325036310850000013543068612248507833_"  style="overflow:visible;"/>
				</clipPath>
				<g style="clip-path:url(#SVGID_00000029730651484080976730000017446655465786364592_);enable-background:new    ;">
					<path class="st19" d="M408.8,313.5l39.3-3.6c2.6,0.8,5.1,1.8,7.7,2.5l-39.3,3.6C413.9,315.3,411.3,314.4,408.8,313.5"/>
					<path class="st21" d="M416.5,316.1l39.3-3.6c1,0.3,1.9,0.5,2.9,0.8l-39.3,3.6C418.4,316.6,417.4,316.3,416.5,316.1"/>
					<path class="st22" d="M419.4,316.8l39.3-3.6c0.7,0.2,1.5,0.3,2.2,0.4l-39.3,3.6C420.8,317.1,420.1,317,419.4,316.8"/>
					<path class="st23" d="M421.6,317.2l39.3-3.6c0.3,0.1,0.7,0.1,1,0.1l-39.3,3.6C422.2,317.3,421.9,317.3,421.6,317.2"/>
				</g>
			</g>
			<g class="st0">
				<defs>
					<path id="SVGID_00000056409981987930614550000016537726083470405518_" class="st0" d="M473.1,405.9l-39.3,3.6
						c-0.8,0.1-1.7,0.1-2.7-0.1l39.3-3.6C471.4,406,472.3,406,473.1,405.9z"/>
				</defs>
				<clipPath id="SVGID_00000165955178551019416020000005666480147159841208_">
					<use xlink:href="#SVGID_00000056409981987930614550000016537726083470405518_"  style="overflow:visible;"/>
				</clipPath>
				<g style="clip-path:url(#SVGID_00000165955178551019416020000005666480147159841208_);enable-background:new    ;">
					<path class="st23" d="M431,409.5l39.3-3.6c0.3,0,0.5,0.1,0.7,0.1l-39.3,3.6C431.5,409.5,431.3,409.5,431,409.5"/>
					<path class="st29" d="M431.7,409.5l39.3-3.6c0.4,0,0.7,0,1.1,0l-39.3,3.6C432.5,409.6,432.1,409.6,431.7,409.5"/>
					<path class="st28" d="M432.8,409.6l39.3-3.6c0.3,0,0.6,0,0.9,0l-39.3,3.6C433.5,409.5,433.1,409.6,432.8,409.6"/>
				</g>
			</g>
			<g class="st0">
				<defs>
					<path id="SVGID_00000093872447686374296400000010426803556872460418_" class="st0" d="M422.6,317.4l39.3-3.6
						c1.5,0.9,2.4,1.1,3.3,1.2l-39.3,3.6C425,318.5,424.1,318.3,422.6,317.4z"/>
				</defs>
				<clipPath id="SVGID_00000073716733575367983110000000184822853331494825_">
					<use xlink:href="#SVGID_00000093872447686374296400000010426803556872460418_"  style="overflow:visible;"/>
				</clipPath>
				<g style="clip-path:url(#SVGID_00000073716733575367983110000000184822853331494825_);enable-background:new    ;">
					<path class="st14" d="M422.6,317.4l39.3-3.6c0.2,0.1,0.3,0.2,0.5,0.3l-39.3,3.6C422.9,317.6,422.7,317.5,422.6,317.4"/>
					<path class="st15" d="M423,317.7l39.3-3.6c0.2,0.1,0.4,0.2,0.5,0.3l-39.3,3.6C423.4,317.8,423.2,317.8,423,317.7"/>
					<path class="st17" d="M423.6,317.9l39.3-3.6c0.1,0.1,0.3,0.1,0.4,0.2l-39.3,3.6C423.9,318.1,423.7,318,423.6,317.9"/>
					<path class="st18" d="M424,318.1l39.3-3.6c0.1,0.1,0.3,0.1,0.4,0.2l-39.3,3.6C424.3,318.2,424.1,318.2,424,318.1"/>
					<path class="st19" d="M424.4,318.3l39.3-3.6c0.1,0,0.2,0.1,0.4,0.1l-39.3,3.6C424.6,318.4,424.5,318.3,424.4,318.3"/>
					<path class="st21" d="M424.7,318.4l39.3-3.6c0.1,0,0.3,0.1,0.4,0.1l-39.3,3.6C425,318.5,424.9,318.4,424.7,318.4"/>
					<path class="st22" d="M425.1,318.5l39.3-3.6c0.2,0,0.3,0.1,0.4,0.1l-39.3,3.6C425.4,318.6,425.3,318.5,425.1,318.5"/>
					<path class="st23" d="M425.6,318.6l39.3-3.6c0.1,0,0.2,0,0.3,0l-39.3,3.6C425.8,318.6,425.7,318.6,425.6,318.6"/>
				</g>
			</g>
			<g class="st0">
				<defs>
					<path id="SVGID_00000169531308329756557070000011273337539819806123_" class="st0" d="M482.5,405l-39.3,3.6
						c-2.1,0.2-4.3,0.3-6.4,0.4l39.3-3.6C478.2,405.3,480.4,405.1,482.5,405z"/>
				</defs>
				<clipPath id="SVGID_00000054249594604808035210000014548573144845552006_">
					<use xlink:href="#SVGID_00000169531308329756557070000011273337539819806123_"  style="overflow:visible;"/>
				</clipPath>
				<g style="clip-path:url(#SVGID_00000054249594604808035210000014548573144845552006_);enable-background:new    ;">
					<path class="st28" d="M436.8,408.9l39.3-3.6c2.2-0.1,4.3-0.2,6.4-0.4l-39.3,3.6C441.1,408.7,438.9,408.9,436.8,408.9"/>
				</g>
			</g>
			<g class="st0">
				<defs>
					<path id="SVGID_00000181777270972193319870000003587230388288619688_" class="st0" d="M425.9,318.6l39.3-3.6
						c6.4,1.8,11.8,3.5,17.1,5.2l-39.3,3.6C437.6,322.1,432.3,320.4,425.9,318.6z"/>
				</defs>
				<clipPath id="SVGID_00000017480756403704118860000015175417404252767119_">
					<use xlink:href="#SVGID_00000181777270972193319870000003587230388288619688_"  style="overflow:visible;"/>
				</clipPath>
				<g style="clip-path:url(#SVGID_00000017480756403704118860000015175417404252767119_);enable-background:new    ;">
					<path class="st21" d="M425.9,318.6l39.3-3.6c1.6,0.4,3.1,0.9,4.6,1.3l-39.3,3.6C429,319.5,427.5,319.1,425.9,318.6"/>
					<path class="st19" d="M430.4,319.9l39.3-3.6c4.5,1.3,8.5,2.6,12.5,3.9l-39.3,3.6C438.9,322.5,434.9,321.3,430.4,319.9"/>
				</g>
			</g>
			<g class="st0">
				<defs>
					<path id="SVGID_00000035529083637593407720000013982921729128387218_" class="st0" d="M443,323.8l39.3-3.6
						c0.7,0.9,1.5,1.1,2.4,1.2c0.5,0.1,0.9,0,1.4,0l-39.3,3.6c-0.5,0-0.9,0-1.4,0C444.5,324.9,443.7,324.7,443,323.8z"/>
				</defs>
				<clipPath id="SVGID_00000144324988485171474230000014525310877875835057_">
					<use xlink:href="#SVGID_00000035529083637593407720000013982921729128387218_"  style="overflow:visible;"/>
				</clipPath>
				<g style="clip-path:url(#SVGID_00000144324988485171474230000014525310877875835057_);enable-background:new    ;">
					<polyline class="st6" points="443,323.8 482.3,320.2 482.3,320.2 443,323.8 443,323.8 					"/>
					<path class="st7" d="M443,323.8l39.3-3.6c0,0.1,0.1,0.1,0.1,0.2l-39.3,3.6C443.1,323.9,443,323.9,443,323.8"/>
					<path class="st8" d="M443.1,324l39.3-3.6c0,0,0.1,0.1,0.1,0.1l-39.3,3.6C443.2,324.1,443.2,324,443.1,324"/>
					<path class="st9" d="M443.2,324.1l39.3-3.6c0,0,0.1,0.1,0.1,0.1l-39.3,3.6C443.3,324.2,443.3,324.1,443.2,324.1"/>
					<path class="st10" d="M443.4,324.2l39.3-3.6c0,0,0.1,0.1,0.1,0.1l-39.3,3.6C443.5,324.3,443.4,324.3,443.4,324.2"/>
					<path class="st11" d="M443.5,324.3l39.3-3.6c0,0,0.1,0.1,0.1,0.1l-39.3,3.6C443.6,324.4,443.6,324.4,443.5,324.3"/>
					<path class="st12" d="M443.6,324.4l39.3-3.6c0,0,0.1,0.1,0.1,0.1l-39.3,3.6C443.7,324.5,443.7,324.5,443.6,324.4"/>
					<path class="st14" d="M443.8,324.5l39.3-3.6c0,0,0.1,0.1,0.1,0.1l-39.3,3.6C443.9,324.6,443.8,324.6,443.8,324.5"/>
					<path class="st15" d="M443.9,324.6l39.3-3.6c0,0,0.1,0.1,0.1,0.1l-39.3,3.6C444,324.7,444,324.6,443.9,324.6"/>
					<path class="st17" d="M444.1,324.7l39.3-3.6c0.1,0,0.1,0.1,0.2,0.1l-39.3,3.6C444.2,324.7,444.1,324.7,444.1,324.7"/>
					<path class="st18" d="M444.2,324.8l39.3-3.6c0.1,0,0.1,0,0.2,0.1l-39.3,3.6C444.3,324.8,444.3,324.8,444.2,324.8"/>
					<path class="st19" d="M444.4,324.8l39.3-3.6c0.1,0,0.1,0,0.2,0.1l-39.3,3.6C444.5,324.9,444.5,324.9,444.4,324.8"/>
					<path class="st21" d="M444.6,324.9l39.3-3.6c0.1,0,0.2,0,0.2,0.1l-39.3,3.6C444.8,324.9,444.7,324.9,444.6,324.9"/>
					<path class="st22" d="M444.8,325l39.3-3.6c0.1,0,0.2,0,0.3,0.1l-39.3,3.6C445,325,444.9,325,444.8,325"/>
					<path class="st23" d="M445.1,325l39.3-3.6c0.1,0,0.1,0,0.2,0c0.1,0,0.2,0,0.2,0l-39.3,3.6c-0.1,0-0.2,0-0.2,0
						C445.3,325,445.2,325,445.1,325"/>
					<path class="st29" d="M445.5,325.1l39.3-3.6c0.4,0,0.8,0,1.2,0l-39.3,3.6C446.3,325.1,445.9,325.1,445.5,325.1"/>
				</g>
			</g>
			<g class="st0">
				<defs>
					<path id="SVGID_00000077303566275006862900000015341679054615008669_" class="st0" d="M446.7,325.1l39.3-3.6
						c1.4,0.6,2.7,1.6,4.2,1.8l-39.3,3.6C449.5,326.7,448.1,325.7,446.7,325.1z"/>
				</defs>
				<clipPath id="SVGID_00000142873882083406643200000007009539739440267944_">
					<use xlink:href="#SVGID_00000077303566275006862900000015341679054615008669_"  style="overflow:visible;"/>
				</clipPath>
				<g style="clip-path:url(#SVGID_00000142873882083406643200000007009539739440267944_);enable-background:new    ;">
					<path class="st17" d="M446.7,325.1l39.3-3.6c0.1,0.1,0.3,0.1,0.4,0.2l-39.3,3.6C447,325.2,446.8,325.1,446.7,325.1"/>
					<path class="st15" d="M447.1,325.3l39.3-3.6c0.5,0.3,1,0.5,1.5,0.8l-39.3,3.6C448.1,325.8,447.6,325.5,447.1,325.3"/>
					<path class="st17" d="M448.7,326.1l39.3-3.6c0.2,0.1,0.4,0.2,0.6,0.3l-39.3,3.6C449.1,326.3,448.9,326.2,448.7,326.1"/>
					<path class="st18" d="M449.3,326.4l39.3-3.6c0.1,0.1,0.3,0.1,0.4,0.2l-39.3,3.6C449.6,326.5,449.4,326.4,449.3,326.4"/>
					<path class="st19" d="M449.7,326.5l39.3-3.6c0.1,0,0.2,0.1,0.4,0.1l-39.3,3.6C450,326.6,449.9,326.6,449.7,326.5"/>
					<path class="st21" d="M450.1,326.7l39.3-3.6c0.1,0,0.2,0.1,0.3,0.1l-39.3,3.6C450.3,326.7,450.2,326.7,450.1,326.7"/>
					<path class="st22" d="M450.4,326.8l39.3-3.6c0.1,0,0.2,0,0.3,0.1l-39.3,3.6C450.7,326.8,450.5,326.8,450.4,326.8"/>
					<path class="st23" d="M450.8,326.8l39.3-3.6c0.1,0,0.1,0,0.2,0l-39.3,3.6C450.9,326.8,450.8,326.8,450.8,326.8"/>
				</g>
			</g>
			<g class="st0">
				<defs>
					<path id="SVGID_00000120541143977791378670000010082569108852377996_" class="st0" d="M497.5,402.4l-39.3,3.6
						c-0.7,0.1-1.5,0.1-2.2,0.2l39.3-3.6C496,402.5,496.8,402.5,497.5,402.4z"/>
				</defs>
				<clipPath id="SVGID_00000143605292998662864670000008410032151011749531_">
					<use xlink:href="#SVGID_00000120541143977791378670000010082569108852377996_"  style="overflow:visible;"/>
				</clipPath>
				<g style="clip-path:url(#SVGID_00000143605292998662864670000008410032151011749531_);enable-background:new    ;">
					<path class="st28" d="M456,406.2l39.3-3.6c0.7,0,1.5-0.1,2.2-0.2l-39.3,3.6C457.4,406.1,456.7,406.1,456,406.2"/>
				</g>
			</g>
			<g class="st0">
				<defs>
					<path id="SVGID_00000085949202728713926930000015141891591697512361_" class="st0" d="M472,424.7l-39.3,3.6c0.2,0,0.4,0,0.5,0
						c10.2-1,20.3-2.4,30.5-3.7l39.3-3.6c-10.2,1.3-20.3,2.7-30.5,3.7C472.4,424.7,472.2,424.7,472,424.7z"/>
				</defs>
				<clipPath id="SVGID_00000177470183429383433990000015409975644231285644_">
					<use xlink:href="#SVGID_00000085949202728713926930000015141891591697512361_"  style="overflow:visible;"/>
				</clipPath>
				<g style="clip-path:url(#SVGID_00000177470183429383433990000015409975644231285644_);enable-background:new    ;">
					<path class="st26" d="M463.7,424.5l39.3-3.6c-10.2,1.3-20.3,2.7-30.5,3.7c-0.2,0-0.4,0-0.5,0l-39.3,3.6c0.2,0,0.4,0,0.5,0
						C443.4,427.3,453.5,425.8,463.7,424.5"/>
				</g>
			</g>
			<g class="st0">
				<defs>
					<path id="SVGID_00000180338617383692437150000001315547145279937196_" class="st0" d="M466,423.8l39.3-3.6
						c-0.8,0.1-1.6,0.3-2.3,0.8l-39.3,3.6C464.4,424.1,465.1,423.8,466,423.8z"/>
				</defs>
				<clipPath id="SVGID_00000173840782021548097420000004309245831592530859_">
					<use xlink:href="#SVGID_00000180338617383692437150000001315547145279937196_"  style="overflow:visible;"/>
				</clipPath>
				<g style="clip-path:url(#SVGID_00000173840782021548097420000004309245831592530859_);enable-background:new    ;">
					<path class="st26" d="M466,423.8l39.3-3.6c-0.8,0.1-1.6,0.3-2.3,0.8l-39.3,3.6C464.4,424.1,465.1,423.8,466,423.8"/>
				</g>
			</g>
			<g class="st0">
				<defs>
					<path id="SVGID_00000021815975442236246360000013003091290385841076_" class="st0" d="M469.1,423.1l39.3-3.6
						c-0.5,0-0.8,0.3-1.1,0.7l-39.3,3.6C468.3,423.4,468.6,423.2,469.1,423.1z"/>
				</defs>
				<clipPath id="SVGID_00000169530241696519348490000015901466993444611205_">
					<use xlink:href="#SVGID_00000021815975442236246360000013003091290385841076_"  style="overflow:visible;"/>
				</clipPath>
				<g style="clip-path:url(#SVGID_00000169530241696519348490000015901466993444611205_);enable-background:new    ;">
					<path class="st26" d="M469.1,423.1l39.3-3.6c-0.4,0-0.7,0.2-0.9,0.4l-39.3,3.6C468.5,423.3,468.8,423.2,469.1,423.1"/>
					<path class="st27" d="M468.2,423.5l39.3-3.6c0,0-0.1,0.1-0.1,0.1l-39.3,3.6C468.2,423.6,468.2,423.6,468.2,423.5"/>
					<path class="st28" d="M468.1,423.7l39.3-3.6c0,0-0.1,0.1-0.1,0.1l-39.3,3.6C468,423.8,468.1,423.7,468.1,423.7"/>
					<path class="st29" d="M468,423.8l39.3-3.6c0,0,0,0,0,0L468,423.8C468,423.8,468,423.8,468,423.8"/>
				</g>
			</g>
			<g class="st0">
				<defs>
					<path id="SVGID_00000037676303662235604160000015561547043904781971_" class="st0" d="M450.9,326.8l39.3-3.6
						c5.4,2.2,10,4.4,14.7,5.5l-39.3,3.6C460.9,331.2,456.3,329,450.9,326.8z"/>
				</defs>
				<clipPath id="SVGID_00000151542405573919090700000012105020344248182463_">
					<use xlink:href="#SVGID_00000037676303662235604160000015561547043904781971_"  style="overflow:visible;"/>
				</clipPath>
				<g style="clip-path:url(#SVGID_00000151542405573919090700000012105020344248182463_);enable-background:new    ;">
					<path class="st18" d="M450.9,326.8l39.3-3.6c3.7,1.5,7,3,10.2,4.2l-39.3,3.6C457.9,329.8,454.6,328.3,450.9,326.8"/>
					<path class="st19" d="M461.2,331l39.3-3.6c1,0.3,1.9,0.7,2.9,0.9l-39.3,3.6C463.1,331.7,462.1,331.3,461.2,331"/>
					<path class="st21" d="M464,331.9l39.3-3.6c0.5,0.2,1.1,0.3,1.6,0.4l-39.3,3.6C465.1,332.2,464.6,332.1,464,331.9"/>
				</g>
			</g>
			<g class="st0">
				<defs>
					<path id="SVGID_00000138540266838451889600000009192308787994618261_" class="st0" d="M492.3,417.4l39.3-3.6
						c-7.3,2-14.6,3.9-22,5.8l-39.3,3.6C477.6,421.3,485,419.4,492.3,417.4z"/>
				</defs>
				<clipPath id="SVGID_00000113319489642259397610000002828088942094417599_">
					<use xlink:href="#SVGID_00000138540266838451889600000009192308787994618261_"  style="overflow:visible;"/>
				</clipPath>
				<g style="clip-path:url(#SVGID_00000113319489642259397610000002828088942094417599_);enable-background:new    ;">
					<path class="st26" d="M492.3,417.4l39.3-3.6c-7.3,2-14.6,3.9-22,5.8l-39.3,3.6C477.6,421.3,485,419.4,492.3,417.4"/>
				</g>
			</g>
			<g class="st0">
				<defs>
					<path id="SVGID_00000170259030758900157390000006063485053518362806_" class="st0" d="M465.7,332.4l39.3-3.6
						c9.9,5,19.8,9.9,29.7,14.9l-39.3,3.6C485.5,342.3,475.6,337.3,465.7,332.4z"/>
				</defs>
				<clipPath id="SVGID_00000027582424789731652500000008710845094341864116_">
					<use xlink:href="#SVGID_00000170259030758900157390000006063485053518362806_"  style="overflow:visible;"/>
				</clipPath>
				<g style="clip-path:url(#SVGID_00000027582424789731652500000008710845094341864116_);enable-background:new    ;">
					<path class="st15" d="M465.7,332.4l39.3-3.6c9.9,5,19.8,9.9,29.7,14.9l-39.3,3.6C485.5,342.3,475.6,337.3,465.7,332.4"/>
				</g>
			</g>
			<g class="st0">
				<defs>
					<path id="SVGID_00000150084895060305473270000006944860853700564630_" class="st0" d="M495.4,347.2l39.3-3.6
						c0.5,0.4,1,0.8,1.5,1.1l-39.3,3.6C496.4,348,495.9,347.6,495.4,347.2z"/>
				</defs>
				<clipPath id="SVGID_00000067194618287568165080000013009253318157838215_">
					<use xlink:href="#SVGID_00000150084895060305473270000006944860853700564630_"  style="overflow:visible;"/>
				</clipPath>
				<g style="clip-path:url(#SVGID_00000067194618287568165080000013009253318157838215_);enable-background:new    ;">
					<path class="st11" d="M495.4,347.2l39.3-3.6c0.5,0.4,1,0.8,1.5,1.1l-39.3,3.6C496.4,348,495.9,347.6,495.4,347.2"/>
				</g>
			</g>
			<g class="st0">
				<defs>
					<path id="SVGID_00000109014363896932535530000011078140441383916959_" class="st0" d="M517.4,243.3l-39.3,3.6
						c1.7-0.2,2.2-1.3,2.2-4.6c0.3-32.2,0.7-64.4,1.3-96.6c0.1-4.1-0.8-5.1-3.6-5.4c-102.7-11.7-205.5-23.6-308.2-35.4l39.3-3.6
						c102.7,11.8,205.5,23.7,308.2,35.4c2.8,0.3,3.7,1.3,3.6,5.4c-0.5,32.2-1,64.4-1.3,96.6C519.6,242,519.1,243.1,517.4,243.3z"/>
				</defs>
				<clipPath id="SVGID_00000111184327646607237970000012953193813555833475_">
					<use xlink:href="#SVGID_00000109014363896932535530000011078140441383916959_"  style="overflow:visible;"/>
				</clipPath>
				<g style="clip-path:url(#SVGID_00000111184327646607237970000012953193813555833475_);enable-background:new    ;">
					<path class="st23" d="M169.8,105l39.3-3.6c102.7,11.8,205.5,23.7,308.2,35.4c0.1,0,0.3,0,0.4,0.1l-39.3,3.6
						c-0.1,0-0.3,0-0.4-0.1C375.3,128.6,272.5,116.8,169.8,105"/>
					<path class="st22" d="M478.4,140.4l39.3-3.6c0.2,0,0.4,0.1,0.5,0.1l-39.3,3.6C478.8,140.5,478.6,140.4,478.4,140.4"/>
					<path class="st21" d="M478.9,140.5l39.3-3.6c0.1,0,0.2,0.1,0.4,0.1l-39.3,3.6C479.2,140.6,479.1,140.5,478.9,140.5"/>
					<path class="st19" d="M479.3,140.6l39.3-3.6c0.1,0,0.2,0.1,0.3,0.1l-39.3,3.6C479.5,140.6,479.4,140.6,479.3,140.6"/>
					<path class="st18" d="M479.5,140.7l39.3-3.6c0.1,0,0.1,0.1,0.2,0.1l-39.3,3.6C479.7,140.7,479.6,140.7,479.5,140.7"/>
					<path class="st17" d="M479.8,140.7l39.3-3.6c0.1,0,0.1,0,0.2,0.1l-39.3,3.6C479.9,140.8,479.8,140.8,479.8,140.7"/>
					<path class="st15" d="M479.9,140.8l39.3-3.6c0,0,0.1,0,0.1,0.1l-39.3,3.6C480,140.9,480,140.8,479.9,140.8"/>
					<path class="st14" d="M480.1,140.9l39.3-3.6c0,0,0.1,0,0.1,0.1l-39.3,3.6C480.1,140.9,480.1,140.9,480.1,140.9"/>
					<path class="st12" d="M480.2,141l39.3-3.6c0,0,0.1,0,0.1,0.1l-39.3,3.6C480.3,141,480.2,141,480.2,141"/>
					<path class="st11" d="M480.3,141l39.3-3.6c0,0,0.1,0,0.1,0.1L480.3,141C480.4,141.1,480.3,141.1,480.3,141"/>
					<path class="st10" d="M480.4,141.1l39.3-3.6c0,0,0.1,0,0.1,0.1L480.4,141.1C480.4,141.2,480.4,141.1,480.4,141.1"/>
					<path class="st9" d="M480.5,141.2l39.3-3.6c0,0,0.1,0.1,0.1,0.1L480.5,141.2C480.5,141.2,480.5,141.2,480.5,141.2"/>
					<path class="st8" d="M480.6,141.3l39.3-3.6c0,0,0.1,0.1,0.1,0.1L480.6,141.3C480.6,141.3,480.6,141.3,480.6,141.3"/>
					<path class="st7" d="M480.6,141.4l39.3-3.6c0,0,0.1,0.1,0.1,0.1L480.6,141.4C480.7,141.4,480.7,141.4,480.6,141.4"/>
					<path class="st6" d="M480.7,141.4l39.3-3.6c0,0,0.1,0.1,0.1,0.1l-39.3,3.6C480.8,141.5,480.8,141.5,480.7,141.4"/>
					<path class="st5" d="M480.8,141.5l39.3-3.6c0,0,0.1,0.1,0.1,0.1l-39.3,3.6C480.9,141.6,480.8,141.6,480.8,141.5"/>
					<path class="st4" d="M480.9,141.7l39.3-3.6c0,0,0.1,0.1,0.1,0.2l-39.3,3.6C481,141.8,480.9,141.7,480.9,141.7"/>
					<path class="st2" d="M481,141.8l39.3-3.6c0,0.1,0.1,0.1,0.1,0.2l-39.3,3.6C481.1,142,481,141.9,481,141.8"/>
					<path class="st30" d="M481.1,142l39.3-3.6c0.1,0.3,0.3,0.7,0.3,1.1l-39.3,3.6C481.4,142.7,481.2,142.3,481.1,142"/>
					<path class="st2" d="M481.4,143.1l39.3-3.6c0,0.2,0.1,0.3,0.1,0.5l-39.3,3.6C481.5,143.5,481.5,143.3,481.4,143.1"/>
					<path class="st4" d="M481.5,143.6l39.3-3.6c0,0.2,0,0.3,0,0.5l-39.3,3.6C481.5,144,481.5,143.8,481.5,143.6"/>
					<path class="st5" d="M481.6,144.2l39.3-3.6c0,0.2,0,0.4,0,0.7l-39.3,3.6C481.6,144.6,481.6,144.4,481.6,144.2"/>
					<path class="st6" d="M481.6,144.8l39.3-3.6c0,0.3,0,0.6,0,0.9c-0.5,32.2-1,64.4-1.3,96.6c0,0.1,0,0.2,0,0.2l-39.3,3.6
						c0-0.1,0-0.2,0-0.2c0.3-32.2,0.7-64.4,1.3-96.6C481.6,145.4,481.6,145.1,481.6,144.8"/>
					<path class="st7" d="M480.3,242.6l39.3-3.6c0,0.3,0,0.5,0,0.8l-39.3,3.6C480.3,243.1,480.3,242.8,480.3,242.6"/>
					<path class="st8" d="M480.3,243.4l39.3-3.6c0,0.2,0,0.4,0,0.5l-39.3,3.6C480.2,243.7,480.3,243.5,480.3,243.4"/>
					<path class="st9" d="M480.2,243.9l39.3-3.6c0,0.1,0,0.3,0,0.4l-39.3,3.6C480.2,244.1,480.2,244,480.2,243.9"/>
					<path class="st10" d="M480.2,244.2l39.3-3.6c0,0.1,0,0.2,0,0.3l-39.3,3.6C480.2,244.4,480.2,244.3,480.2,244.2"/>
					<path class="st11" d="M480.1,244.5l39.3-3.6c0,0.1,0,0.2,0,0.2l-39.3,3.6C480.1,244.7,480.1,244.6,480.1,244.5"/>
					<path class="st12" d="M480.1,244.8l39.3-3.6c0,0.1,0,0.1,0,0.2l-39.3,3.6C480.1,244.9,480.1,244.8,480.1,244.8"/>
					<path class="st14" d="M480.1,245l39.3-3.6c0,0.1,0,0.1,0,0.2l-39.3,3.6C480,245.1,480,245,480.1,245"/>
					<path class="st15" d="M480,245.1l39.3-3.6c0,0.1,0,0.1,0,0.1l-39.3,3.6C480,245.2,480,245.2,480,245.1"/>
					<path class="st17" d="M480,245.3l39.3-3.6c0,0,0,0.1,0,0.1l-39.3,3.6C479.9,245.4,480,245.3,480,245.3"/>
					<path class="st18" d="M479.9,245.4l39.3-3.6c0,0,0,0.1,0,0.1l-39.3,3.6C479.9,245.5,479.9,245.5,479.9,245.4"/>
					<path class="st19" d="M479.9,245.6l39.3-3.6c0,0,0,0.1,0,0.1l-39.3,3.6C479.9,245.6,479.9,245.6,479.9,245.6"/>
					<path class="st21" d="M479.8,245.7l39.3-3.6c0,0,0,0.1-0.1,0.1l-39.3,3.6C479.8,245.8,479.8,245.7,479.8,245.7"/>
					<path class="st22" d="M479.8,245.8l39.3-3.6c0,0,0,0.1-0.1,0.1l-39.3,3.6C479.7,245.9,479.8,245.8,479.8,245.8"/>
					<path class="st23" d="M479.7,245.9l39.3-3.6c0,0,0,0.1-0.1,0.1l-39.3,3.6C479.7,246,479.7,245.9,479.7,245.9"/>
					<path class="st29" d="M479.7,246l39.3-3.6c0,0,0,0.1-0.1,0.1l-39.3,3.6C479.6,246.1,479.6,246,479.7,246"/>
					<path class="st28" d="M479.6,246.1l39.3-3.6c0,0-0.1,0.1-0.1,0.1l-39.3,3.6C479.5,246.2,479.6,246.1,479.6,246.1"/>
					<path class="st27" d="M479.5,246.2l39.3-3.6c0,0-0.1,0.1-0.1,0.1l-39.3,3.6C479.4,246.3,479.5,246.3,479.5,246.2"/>
					<path class="st26" d="M479.4,246.3l39.3-3.6c-0.3,0.3-0.8,0.5-1.3,0.5l-39.3,3.6C478.6,246.8,479.1,246.7,479.4,246.3"/>
				</g>
			</g>
			<g class="st0">
				<defs>
					<path id="SVGID_00000016066409116905170350000006719613912458957480_" class="st0" d="M496.9,348.4l39.3-3.6
						c3.6,2.5,7.2,5,10.8,7.4l-39.3,3.6C504.1,353.3,500.5,350.9,496.9,348.4z"/>
				</defs>
				<clipPath id="SVGID_00000163061363398028687110000008193446217341983147_">
					<use xlink:href="#SVGID_00000016066409116905170350000006719613912458957480_"  style="overflow:visible;"/>
				</clipPath>
				<g style="clip-path:url(#SVGID_00000163061363398028687110000008193446217341983147_);enable-background:new    ;">
					<path class="st12" d="M496.9,348.4l39.3-3.6c3.6,2.5,7.2,5,10.8,7.4l-39.3,3.6C504.1,353.3,500.5,350.9,496.9,348.4"/>
				</g>
			</g>
			<g class="st0">
				<defs>
					<path id="SVGID_00000057106947502406545320000007300670083031431103_" class="st0" d="M519.7,401.4l39.3-3.6
						c-7.6,6.8-16,11.4-24.9,14.4c-0.9,0.3-1.7,1-2.5,1.6l-39.3,3.6c0.9-0.5,1.7-1.3,2.5-1.6C503.7,412.8,512.1,408.2,519.7,401.4z"
						/>
				</defs>
				<clipPath id="SVGID_00000108295097256503688550000015190088043132572075_">
					<use xlink:href="#SVGID_00000057106947502406545320000007300670083031431103_"  style="overflow:visible;"/>
				</clipPath>
				<g style="clip-path:url(#SVGID_00000108295097256503688550000015190088043132572075_);enable-background:new    ;">
					<path class="st26" d="M519.7,401.4l39.3-3.6c-7.6,6.8-16,11.4-24.9,14.4c-0.9,0.3-1.7,1-2.5,1.6l-39.3,3.6
						c0.9-0.5,1.7-1.3,2.5-1.6C503.7,412.8,512.1,408.2,519.7,401.4"/>
				</g>
			</g>
			<g class="st0">
				<defs>
					<path id="SVGID_00000008117327443768650200000007596281554091846294_" class="st0" d="M507.8,355.8l39.3-3.6
						c2.9,2.7,5.9,5.3,8.8,8l-39.3,3.6C513.6,361.2,510.7,358.5,507.8,355.8z"/>
				</defs>
				<clipPath id="SVGID_00000165934708965053941870000017081864936060958366_">
					<use xlink:href="#SVGID_00000008117327443768650200000007596281554091846294_"  style="overflow:visible;"/>
				</clipPath>
				<g style="clip-path:url(#SVGID_00000165934708965053941870000017081864936060958366_);enable-background:new    ;">
					<path class="st9" d="M507.8,355.8l39.3-3.6c2.9,2.7,5.9,5.3,8.8,8l-39.3,3.6C513.6,361.2,510.7,358.5,507.8,355.8"/>
				</g>
			</g>
			<g class="st0">
				<defs>
					<path id="SVGID_00000183240866492719410860000017619179722357976712_" class="st0" d="M516.6,363.8l39.3-3.6
						c1,0.3,1.7,1.1,2.1,2.4l-39.3,3.6C518.3,364.9,517.5,364.2,516.6,363.8z"/>
				</defs>
				<clipPath id="SVGID_00000170270920269534948190000014864452684304990395_">
					<use xlink:href="#SVGID_00000183240866492719410860000017619179722357976712_"  style="overflow:visible;"/>
				</clipPath>
				<g style="clip-path:url(#SVGID_00000170270920269534948190000014864452684304990395_);enable-background:new    ;">
					<path class="st19" d="M516.6,363.8l39.3-3.6c0,0,0,0,0,0L516.6,363.8C516.6,363.8,516.6,363.8,516.6,363.8"/>
					<path class="st18" d="M516.6,363.8l39.3-3.6c0.1,0,0.1,0.1,0.2,0.1l-39.3,3.6C516.7,363.9,516.6,363.9,516.6,363.8"/>
					<path class="st17" d="M516.8,363.9l39.3-3.6c0.1,0,0.1,0.1,0.2,0.1l-39.3,3.6C516.9,364,516.8,363.9,516.8,363.9"/>
					<path class="st15" d="M516.9,364l39.3-3.6c0.1,0,0.1,0.1,0.2,0.1l-39.3,3.6C517,364,517,364,516.9,364"/>
					<path class="st14" d="M517.1,364.1l39.3-3.6c0,0,0.1,0.1,0.1,0.1l-39.3,3.6C517.2,364.1,517.1,364.1,517.1,364.1"/>
					<path class="st12" d="M517.2,364.2l39.3-3.6c0,0,0.1,0.1,0.1,0.1l-39.3,3.6C517.3,364.2,517.3,364.2,517.2,364.2"/>
					<path class="st11" d="M517.4,364.2l39.3-3.6c0,0,0.1,0.1,0.1,0.1l-39.3,3.6C517.4,364.3,517.4,364.3,517.4,364.2"/>
					<path class="st10" d="M517.5,364.3l39.3-3.6c0,0,0.1,0.1,0.1,0.1l-39.3,3.6C517.6,364.4,517.5,364.4,517.5,364.3"/>
					<path class="st9" d="M517.6,364.4l39.3-3.6c0,0,0.1,0.1,0.1,0.1l-39.3,3.6C517.7,364.5,517.6,364.4,517.6,364.4"/>
					<path class="st8" d="M517.7,364.5l39.3-3.6c0,0,0.1,0.1,0.1,0.1l-39.3,3.6C517.8,364.6,517.7,364.5,517.7,364.5"/>
					<path class="st7" d="M517.8,364.6l39.3-3.6c0,0,0.1,0.1,0.1,0.1l-39.3,3.6C517.9,364.7,517.8,364.7,517.8,364.6"/>
					<path class="st6" d="M517.9,364.7l39.3-3.6c0,0,0.1,0.1,0.1,0.1l-39.3,3.6C518,364.8,517.9,364.8,517.9,364.7"/>
					<path class="st5" d="M518,364.9l39.3-3.6c0,0,0.1,0.1,0.1,0.1l-39.3,3.6C518.1,365,518,364.9,518,364.9"/>
					<path class="st4" d="M518.1,365l39.3-3.6c0,0.1,0.1,0.1,0.1,0.2l-39.3,3.6C518.2,365.1,518.2,365.1,518.1,365"/>
					<path class="st2" d="M518.2,365.2l39.3-3.6c0.1,0.1,0.1,0.2,0.1,0.3l-39.3,3.6C518.3,365.4,518.3,365.3,518.2,365.2"/>
					<path class="st30" d="M518.4,365.5l39.3-3.6c0.1,0.2,0.2,0.5,0.3,0.8l-39.3,3.6C518.6,366,518.5,365.7,518.4,365.5"/>
				</g>
			</g>
			<g class="st0">
				<defs>
					<path id="SVGID_00000101088169695427681030000018271680011346688394_" class="st0" d="M518.7,366.3l39.3-3.6
						c0.5,0.6,1,1.3,1.5,2l-39.3,3.6C519.7,367.6,519.2,366.9,518.7,366.3z"/>
				</defs>
				<clipPath id="SVGID_00000161595074401222445840000013007235654568331690_">
					<use xlink:href="#SVGID_00000101088169695427681030000018271680011346688394_"  style="overflow:visible;"/>
				</clipPath>
				<g style="clip-path:url(#SVGID_00000161595074401222445840000013007235654568331690_);enable-background:new    ;">
					<path class="st6" d="M518.7,366.3l39.3-3.6c0.2,0.2,0.3,0.4,0.5,0.6l-39.3,3.6C519,366.7,518.8,366.5,518.7,366.3"/>
					<path class="st5" d="M519.2,366.9l39.3-3.6c0.3,0.4,0.7,0.9,1,1.3l-39.3,3.6C519.8,367.8,519.5,367.3,519.2,366.9"/>
				</g>
			</g>
			<g class="st0">
				<defs>
					<path id="SVGID_00000091006522199783262830000000253846292309631671_" class="st0" d="M522.8,397.5l39.3-3.6
						c-0.4,2.4-1.6,3.3-3.1,3.9l-39.3,3.6C521.2,400.8,522.5,399.9,522.8,397.5z"/>
				</defs>
				<clipPath id="SVGID_00000067217011491406093760000005276208275118415783_">
					<use xlink:href="#SVGID_00000091006522199783262830000000253846292309631671_"  style="overflow:visible;"/>
				</clipPath>
				<g style="clip-path:url(#SVGID_00000067217011491406093760000005276208275118415783_);enable-background:new    ;">
					<path class="st10" d="M522.8,397.5l39.3-3.6c0,0,0,0,0,0.1L522.8,397.5C522.8,397.5,522.8,397.5,522.8,397.5"/>
					<path class="st11" d="M522.8,397.6l39.3-3.6c0,0.1,0,0.2,0,0.2l-39.3,3.6C522.8,397.7,522.8,397.6,522.8,397.6"/>
					<path class="st12" d="M522.8,397.8l39.3-3.6c0,0.1,0,0.2,0,0.2l-39.3,3.6C522.8,398,522.8,397.9,522.8,397.8"/>
					<path class="st14" d="M522.7,398l39.3-3.6c0,0.1,0,0.1-0.1,0.2l-39.3,3.6C522.7,398.2,522.7,398.1,522.7,398"/>
					<path class="st15" d="M522.7,398.2l39.3-3.6c0,0.1,0,0.1-0.1,0.2l-39.3,3.6C522.7,398.4,522.7,398.3,522.7,398.2"/>
					<path class="st17" d="M522.6,398.4l39.3-3.6c0,0.1,0,0.1-0.1,0.2l-39.3,3.6C522.6,398.6,522.6,398.5,522.6,398.4"/>
					<path class="st18" d="M522.6,398.6l39.3-3.6c0,0.1,0,0.1-0.1,0.2l-39.3,3.6C522.5,398.8,522.5,398.7,522.6,398.6"/>
					<path class="st19" d="M522.5,398.8l39.3-3.6c0,0.1,0,0.1-0.1,0.2l-39.3,3.6C522.5,399,522.5,398.9,522.5,398.8"/>
					<path class="st21" d="M522.4,399l39.3-3.6c0,0.1-0.1,0.1-0.1,0.2l-39.3,3.6C522.4,399.1,522.4,399.1,522.4,399"/>
					<path class="st22" d="M522.3,399.2l39.3-3.6c0,0.1-0.1,0.1-0.1,0.2l-39.3,3.6C522.3,399.3,522.3,399.3,522.3,399.2"/>
					<path class="st23" d="M522.2,399.4l39.3-3.6c0,0.1-0.1,0.1-0.1,0.2l-39.3,3.6C522.2,399.5,522.2,399.4,522.2,399.4"/>
					<path class="st29" d="M522.1,399.6l39.3-3.6c0,0.1-0.1,0.1-0.1,0.2l-39.3,3.6C522,399.7,522.1,399.6,522.1,399.6"/>
					<path class="st28" d="M522,399.8l39.3-3.6c-0.1,0.1-0.1,0.2-0.2,0.2l-39.3,3.6C521.9,399.9,521.9,399.9,522,399.8"/>
					<path class="st27" d="M521.8,400l39.3-3.6c-0.1,0.1-0.2,0.2-0.3,0.3l-39.3,3.6C521.6,400.2,521.7,400.1,521.8,400"/>
					<path class="st26" d="M521.5,400.3l39.3-3.6c-0.5,0.5-1.1,0.9-1.8,1.1l-39.3,3.6C520.4,401.2,521,400.8,521.5,400.3"/>
				</g>
			</g>
			<g class="st0">
				<defs>
					<path id="SVGID_00000098197797509182552660000014727951100200347271_" class="st0" d="M520.2,368.2l39.3-3.6c2,1,3.1,3,3.7,5.7
						l-39.3,3.6C523.2,371.2,522.1,369.2,520.2,368.2z"/>
				</defs>
				<clipPath id="SVGID_00000078767351595206722470000005990006957666980784_">
					<use xlink:href="#SVGID_00000098197797509182552660000014727951100200347271_"  style="overflow:visible;"/>
				</clipPath>
				<g style="clip-path:url(#SVGID_00000078767351595206722470000005990006957666980784_);enable-background:new    ;">
					<path class="st15" d="M520.2,368.2l39.3-3.6c0.1,0,0.1,0.1,0.2,0.1l-39.3,3.6C520.3,368.3,520.2,368.2,520.2,368.2"/>
					<path class="st14" d="M520.3,368.3l39.3-3.6c0.1,0,0.2,0.1,0.2,0.1l-39.3,3.6C520.5,368.4,520.4,368.4,520.3,368.3"/>
					<path class="st12" d="M520.6,368.5l39.3-3.6c0.1,0,0.2,0.1,0.2,0.2l-39.3,3.6C520.7,368.6,520.7,368.5,520.6,368.5"/>
					<path class="st11" d="M520.8,368.6l39.3-3.6c0.1,0.1,0.1,0.1,0.2,0.2l-39.3,3.6C521,368.7,520.9,368.7,520.8,368.6"/>
					<path class="st10" d="M521,368.8l39.3-3.6c0.1,0.1,0.1,0.1,0.2,0.2l-39.3,3.6C521.2,368.9,521.1,368.8,521,368.8"/>
					<path class="st9" d="M521.3,369l39.3-3.6c0.1,0.1,0.1,0.1,0.2,0.2l-39.3,3.6C521.4,369.1,521.3,369,521.3,369"/>
					<path class="st8" d="M521.5,369.1l39.3-3.6c0.1,0.1,0.1,0.1,0.2,0.2l-39.3,3.6C521.6,369.3,521.5,369.2,521.5,369.1"/>
					<path class="st7" d="M521.7,369.4l39.3-3.6c0.1,0.1,0.1,0.2,0.2,0.2l-39.3,3.6C521.8,369.5,521.7,369.4,521.7,369.4"/>
					<path class="st6" d="M521.9,369.6l39.3-3.6c0.1,0.1,0.1,0.2,0.2,0.3l-39.3,3.6C522,369.8,522,369.7,521.9,369.6"/>
					<path class="st5" d="M522.1,369.9l39.3-3.6c0.1,0.1,0.2,0.2,0.2,0.3l-39.3,3.6C522.3,370.1,522.2,370,522.1,369.9"/>
					<path class="st4" d="M522.3,370.2l39.3-3.6c0.1,0.1,0.2,0.3,0.3,0.4l-39.3,3.6C522.5,370.4,522.4,370.3,522.3,370.2"/>
					<path class="st2" d="M522.6,370.6l39.3-3.6c0.1,0.2,0.2,0.4,0.3,0.6l-39.3,3.6C522.8,371,522.7,370.8,522.6,370.6"/>
					<path class="st30" d="M522.9,371.2l39.3-3.6c0.4,0.8,0.7,1.7,0.9,2.8l-39.3,3.6C523.6,372.9,523.3,372,522.9,371.2"/>
				</g>
			</g>
			<g>
				<path class="st85" d="M523.8,373.9c4,9.7,3.8,15-1,23.6c-0.4,2.4-1.6,3.3-3.1,3.9c-7.6,6.8-16,11.4-24.9,14.4
					c-0.9,0.3-1.7,1-2.5,1.6c-7.3,2-14.6,3.9-22,5.8c-1.3-0.2-1.8-0.1-2.3,0.6c-1.7-0.2-3.1-0.1-4.3,0.7
					c-10.2,1.3-20.3,2.7-30.5,3.7c-9.3,0.9-18.8,1.2-28.1,1.7c-1.3,0.1-2.7-0.4-3.9,0.5c-1.4-0.1-2.9-0.2-4.3-0.3
					c-11-0.3-22-0.5-32.9-0.7c-0.7,2.9-0.8,4.9-0.9,7l-2.8,209.5c0,2,0,4.1,0,6.1c-1.3,1-2.6,1-3.8,0.9c-3.4-0.4-6.8-0.8-10.1-1.2
					c-3.4-0.4-6.8-0.8-10.1-1.2c-4.3-0.5-8.6-1-12.9-1.5c-13.9-1.6-27.8-3.2-41.8-4.7c-3.5-0.4-4.4-1.7-4.3-6.6
					c1.1-69.6,1.9-139.2,2.9-208.9c0.1-8.3,0.1-9.4-4.5-9.9c-0.7-0.1-1.5-0.1-2.4-0.2c-5.9-1.3-11.7-2.7-17.6-4
					c-16.6-3.6-33.2-8.1-49.6-13.6c-5.1-1.7-10.2-3.4-15.4-5.1c-3.7-2.2-7.7-3.1-11.6-4.6c-0.4-0.8-1-1.1-1.5-1.1
					c-5.8-2.3-10.9-4.7-15.9-7c-3.7-2.1-7.3-4.1-11-6.2c-0.8-0.6-1.6-1.4-2.5-1.5c-0.7-0.6-1.1-1-1.6-1c-3.2-2.1-6.1-4.2-9-6.2
					c-0.3-0.7-0.7-1-1.2-1.1c-1.7-1.2-3.2-2.4-4.6-3.7c-1.4-1.5-2.9-3-4.3-4.5c-1-1.2-2-2.3-3-3.5c-1.2-1.9-2.3-3.7-3.5-5.6
					c-1.9-2.7-3.3-5.6-2.9-9.5c0-1.7,0.1-3.4,0.1-5.2c-0.1-1.5,0.2-2.8,0.9-3.8c0.7-1.3,1.4-2.7,2.1-4c1.3-1.6,2.5-3.3,3.8-4.9
					c0.5-0.5,1-1.1,1.5-1.6c1.2-1,2.4-1.9,3.7-2.9c2.5-1.7,5-3.3,7.5-5c11.3-5.5,21.9-8.8,32.7-11.1c6.9-1.5,13.9-2.9,20.9-4.4
					c5.5-0.1,10.9-0.9,16.3-2.1c6.1-0.4,12.1-0.8,18.2-1.1c15.8-0.7,31.7-0.5,47.5-0.4c8.7,0.3,8.7,0.3,8.8-10.1
					c0.2-18.2,0.4-36.4,0.8-54.6c0.1-4-0.7-5.1-3.5-5.5c-36.7-4.1-73.4-8.3-110-12.5c-0.6-35.7-0.1-71.1,0.4-106.5
					c102.7,11.8,205.5,23.7,308.2,35.4c2.8,0.3,3.7,1.3,3.6,5.4c-0.5,32.2-1,64.4-1.3,96.6c0,4-0.8,4.9-3.6,4.5
					c-18.3-2.2-36.5-4.3-54.7-6.4c-17.4-2-34.7-4-52.1-5.9c-0.7-0.1-1.4-0.4-2.1-0.5c-0.7-0.1-1.3,0.1-1.9,1.1
					c-0.2,8.5-0.4,16.9-0.5,25.3c-0.1,14.4-0.2,28.7-0.3,43.1c2.1,1.6,4.3,2,6.6,2.2c2.7,0.3,3.7,0.4,4.7,0.7
					c7.8,2.1,15.7,3.4,23.5,5.1c0.9,0.2,1.9,0.3,2.8,0.5c1.1,0.9,2.3,1.2,3.4,1.4c0.8,0.1,1.7,0.1,2.5,0.1c4.6,1.5,9.1,3.3,13.8,3.8
					c1.5,0.9,2.4,1.1,3.3,1.2c6.4,1.8,11.8,3.5,17.1,5.2c0.7,0.9,1.5,1.1,2.4,1.2c0.5,0.1,0.9,0,1.4,0c1.4,0.6,2.7,1.6,4.2,1.8
					c5.4,2.2,10,4.4,14.7,5.5c9.9,5,19.8,9.9,29.7,14.9c0.5,0.4,1,0.8,1.5,1.1c3.6,2.5,7.2,5,10.8,7.4c2.9,2.7,5.9,5.3,8.8,8
					c1,0.3,1.7,1.1,2.1,2.4c0.5,0.6,1,1.3,1.5,2C522.1,369.2,523.2,371.2,523.8,373.9z M503.5,387.4c2.6-3,5.1-6.5,3.3-12.4
					c-0.5-1.9-1.6-3.3-1.6-5.1c-1.7-4-4.3-6.5-7.1-8.8c-0.5-0.6-0.9-1.3-1.4-1.7c-13.8-11-28.5-18-43.6-23.2
					c-2.1-1.7-4.4-1.8-6.7-2.6c-5-2-10.1-4.1-15.2-5c-5.8-2.3-11.7-3.7-17.6-5.3c-15.2-4.1-30.4-7.6-45.7-10.3
					c-2.9-0.3-3.4,0.7-3.5,4.3c-0.1,21.8-0.5,43.6-0.8,65.4c-0.1,7.3-0.1,7.1-5.2,7.6c-2.4,0.2-4.9-0.3-7.3-0.2
					c-0.9,0-1.8-0.1-2.7-0.2c-0.4,0-0.7-0.1-1.1-0.1c-0.4,0-0.8-0.1-1.2-0.1c-1.8-0.2-3.7-0.3-5.5,0.2l-34.2-3.9
					c-7.3-2.3-14.7-2.6-22-4.1c-2.7-0.5-3.7-1.4-3.6-5.6c0.5-22.4,0.6-44.9,1.1-67.3c0.1-4.2-0.6-5.8-3.1-6.1c-0.3,0-0.6-0.1-1-0.1
					c-13.1,0-26.2-0.4-39.2-0.3c-7.6,0.1-15.2,0.1-22.7,1.4c-0.5,0-0.9,0-1.4,0c-7,0.3-13.9,0.9-20.7,2.5c-2.2-0.3-3.6,0.4-5,0.7
					c-1.4-0.3-1.9-0.1-2.3,0.5c-3.5-0.1-6.9,1-10.2,2.1c-1.3-0.2-1.9-0.1-2.3,0.6c-2.3-0.3-4,0.7-5.8,1.5c-1.3-0.2-1.9-0.1-2.3,0.6
					c-1.3-0.2-2,0.5-2.8,1c-8.2,2.3-16.2,5.8-22.5,13.5c-3.7,4.5-4,8.7-1.4,15.3c0.5,1,1,2.1,1.5,3.1c1.6,2.8,3.4,5.1,5.7,6.6
					c2.3,2.9,5,4.9,7.9,6.3c2.2,2.3,4.7,4,7.4,4.8c0.6,0.6,1.1,1.3,1.8,1.4c0.7,0.8,1.2,1.1,1.7,1.2c6.4,3.6,12.2,6.3,18.1,8.3
					c0.5,0.8,1.1,1.1,1.7,1.2c0.4,0,0.9,0,1.3,0c2.5,1.4,5,2.8,7.7,3.1c0.3,0,0.6,0.1,0.9,0.1c0.4,0.8,1,1.1,1.6,1.1
					c7.4,2.7,14.1,5.4,21,6.6c3.8,2,7.9,2.5,11.8,3.6c25.5,7.5,51.2,11.7,76.9,15.5c5.9,0.9,11.7,1.6,17.6,2.3
					c9.7,1.1,19.3,2,29,2.5c9.1,0.5,18.2,1.5,27.2,1c1.2,0.1,2.4,0.2,3.6,0.2c9.4-0.1,18.9-0.1,28.3-0.2c6.3-0.1,12.5-0.2,18.7-1.3
					c2.4,0.3,4.1-0.1,5.7-0.5c6.5-0.2,12.9-0.9,19.2-2.7c6.7-0.3,13.2-2.1,19.7-4.2c2.9-0.9,5.8-1.7,8.7-2.7
					C491.2,396.7,498,393.7,503.5,387.4"/>
			</g>
			<g class="st0">
				<defs>
					<path id="SVGID_00000158004996326534304510000005756930948480494781_" class="st0" d="M523.8,373.9l39.3-3.6
						c4,9.7,3.8,15-1,23.6l-39.3,3.6C527.7,388.9,527.9,383.7,523.8,373.9z"/>
				</defs>
				<clipPath id="SVGID_00000127725867302292535430000012997396214858623160_">
					<use xlink:href="#SVGID_00000158004996326534304510000005756930948480494781_"  style="overflow:visible;"/>
				</clipPath>
				<g style="clip-path:url(#SVGID_00000127725867302292535430000012997396214858623160_);enable-background:new    ;">
					<path class="st30" d="M523.8,373.9l39.3-3.6c1.2,3,2.1,5.6,2.5,7.9l-39.3,3.6C525.9,379.5,525.1,376.9,523.8,373.9"/>
					<path class="st2" d="M526.3,381.9l39.3-3.6c0.1,0.5,0.2,0.9,0.2,1.4l-39.3,3.6C526.5,382.8,526.4,382.4,526.3,381.9"/>
					<path class="st4" d="M526.5,383.3l39.3-3.6c0,0.3,0.1,0.7,0.1,1l-39.3,3.6C526.6,383.9,526.6,383.6,526.5,383.3"/>
					<path class="st5" d="M526.6,384.3l39.3-3.6c0,0.3,0,0.5,0,0.8l-39.3,3.6C526.7,384.8,526.6,384.5,526.6,384.3"/>
					<path class="st6" d="M526.7,385.1l39.3-3.6c0,0.2,0,0.5,0,0.7l-39.3,3.6C526.7,385.5,526.7,385.3,526.7,385.1"/>
					<path class="st7" d="M526.7,385.8l39.3-3.6c0,0.2,0,0.4,0,0.7l-39.3,3.6C526.6,386.2,526.7,386,526.7,385.8"/>
					<path class="st8" d="M526.6,386.4l39.3-3.6c0,0.2,0,0.4,0,0.6l-39.3,3.6C526.6,386.8,526.6,386.6,526.6,386.4"/>
					<path class="st9" d="M526.6,387l39.3-3.6c0,0.2,0,0.4-0.1,0.6l-39.3,3.6C526.5,387.5,526.6,387.3,526.6,387"/>
					<path class="st10" d="M526.5,387.7l39.3-3.6c0,0.2-0.1,0.4-0.1,0.6l-39.3,3.6C526.5,388.1,526.5,387.9,526.5,387.7"/>
					<path class="st11" d="M526.4,388.3l39.3-3.6c0,0.2-0.1,0.4-0.1,0.6l-39.3,3.6C526.4,388.7,526.4,388.5,526.4,388.3"/>
					<path class="st12" d="M526.3,388.9l39.3-3.6c0,0.2-0.1,0.4-0.1,0.6l-39.3,3.6C526.2,389.3,526.3,389.1,526.3,388.9"/>
					<path class="st14" d="M526.2,389.5l39.3-3.6c-0.1,0.2-0.1,0.5-0.2,0.7l-39.3,3.6C526.1,390,526.1,389.8,526.2,389.5"/>
					<path class="st15" d="M526,390.2l39.3-3.6c-0.1,0.2-0.1,0.5-0.2,0.7l-39.3,3.6C525.9,390.7,525.9,390.5,526,390.2"/>
					<path class="st17" d="M525.8,390.9l39.3-3.6c-0.1,0.3-0.2,0.5-0.3,0.8l-39.3,3.6C525.6,391.5,525.7,391.2,525.8,390.9"/>
					<path class="st18" d="M525.5,391.8l39.3-3.6c-0.1,0.3-0.2,0.6-0.3,0.9l-39.3,3.6C525.3,392.4,525.4,392.1,525.5,391.8"/>
					<path class="st19" d="M525.2,392.7l39.3-3.6c-0.1,0.4-0.3,0.7-0.5,1.1l-39.3,3.6C524.9,393.4,525,393.1,525.2,392.7"/>
					<path class="st21" d="M524.7,393.8l39.3-3.6c-0.2,0.5-0.4,1-0.7,1.5l-39.3,3.6C524.3,394.8,524.5,394.3,524.7,393.8"/>
					<path class="st22" d="M524,395.3l39.3-3.6c-0.3,0.7-0.7,1.3-1.1,2l-39.3,3.6C523.4,396.6,523.7,395.9,524,395.3"/>
					<path class="st23" d="M523,397.3l39.3-3.6c0,0.1-0.1,0.1-0.1,0.2l-39.3,3.6C522.9,397.4,522.9,397.4,523,397.3"/>
				</g>
			</g>
		</g>
	</g>
</g>
</svg>
