<svg width="29" height="24" viewBox="0 0 29 24" fill="none" xmlns="http://www.w3.org/2000/svg">
<g filter="url(#filter0_d_232_195)">
<path d="M4.43948 7.0587C3.85351 7.57933 3.85351 8.42483 4.43948 8.94546L11.9399 15.6095C12.5259 16.1302 13.4775 16.1302 14.0635 15.6095C14.6494 15.0889 14.6494 14.2434 14.0635 13.7228L9.11786 9.33281L23.4999 9.33281C24.3297 9.33281 25 8.73721 25 8C25 7.26279 24.3297 6.66719 23.4999 6.66719L9.12255 6.66719L14.0588 2.27724C14.6447 1.75661 14.6447 0.911103 14.0588 0.390473C13.4728 -0.130157 12.5212 -0.130157 11.9352 0.390473L4.43479 7.05454L4.43948 7.0587Z" fill="#226BAF"/>
</g>
<defs>
<filter id="filter0_d_232_195" x="0" y="0" width="29" height="24" filterUnits="userSpaceOnUse" color-interpolation-filters="sRGB">
<feFlood flood-opacity="0" result="BackgroundImageFix"/>
<feColorMatrix in="SourceAlpha" type="matrix" values="0 0 0 0 0 0 0 0 0 0 0 0 0 0 0 0 0 0 127 0" result="hardAlpha"/>
<feOffset dy="4"/>
<feGaussianBlur stdDeviation="2"/>
<feComposite in2="hardAlpha" operator="out"/>
<feColorMatrix type="matrix" values="0 0 0 0 0 0 0 0 0 0 0 0 0 0 0 0 0 0 0.25 0"/>
<feBlend mode="normal" in2="BackgroundImageFix" result="effect1_dropShadow_232_195"/>
<feBlend mode="normal" in="SourceGraphic" in2="effect1_dropShadow_232_195" result="shape"/>
</filter>
</defs>
</svg>
