<svg width="21" height="16" viewBox="0 0 21 16" fill="none" xmlns="http://www.w3.org/2000/svg">
<path d="M0.439478 7.0587C-0.146492 7.57933 -0.146492 8.42483 0.439478 8.94546L7.9399 15.6095C8.52587 16.1302 9.47748 16.1302 10.0635 15.6095C10.6494 15.0889 10.6494 14.2434 10.0635 13.7228L5.11786 9.33281L19.4999 9.33281C20.3297 9.33281 21 8.73721 21 8C21 7.26279 20.3297 6.66719 19.4999 6.66719L5.12255 6.66719L10.0588 2.27724C10.6447 1.75661 10.6447 0.911103 10.0588 0.390473C9.4728 -0.130157 8.52118 -0.130157 7.93521 0.390473L0.43479 7.05454L0.439478 7.0587Z" fill="#226BAF"/>
</svg>
